<?xml version="1.0" encoding="UTF-8"?>
<svg id="Layer_2" data-name="Layer 2" xmlns="http://www.w3.org/2000/svg" xmlns:xlink="http://www.w3.org/1999/xlink" viewBox="0 0 5848.47 792.5">
  <defs>
    <style>
      .cls-1 {
        fill: url(#linear-gradient);
      }

      .cls-2 {
        fill: #474f60;
      }

      .cls-3 {
        fill: #8865d6;
      }
    </style>
    <linearGradient id="linear-gradient" x1="-22.03" y1="727.74" x2="707.04" y2="-46.19" gradientUnits="userSpaceOnUse">
      <stop offset=".08" stop-color="#9f59db"/>
      <stop offset=".18" stop-color="#8767da"/>
      <stop offset=".44" stop-color="#5289d8"/>
      <stop offset=".67" stop-color="#2ba2d7"/>
      <stop offset=".85" stop-color="#13b1d6"/>
      <stop offset=".96" stop-color="#0bb7d6"/>
    </linearGradient>
  </defs>
  <g id="Layer_1-2" data-name="Layer 1">
    <path class="cls-2" d="M1050.56,627.18V243.2c0-6.43,5.22-11.65,11.65-11.65h70.13c22.33,0,40.61,3.72,54.85,11.17,14.23,7.45,24.68,17.85,31.36,31.2,6.68,13.36,10.02,28.69,10.02,45.98s-3.34,32.73-10.02,46.31c-6.68,13.58-17.08,24.2-31.2,31.86-14.12,7.67-32.24,11.5-54.35,11.5h-107.63c-1.14,0-2.06.92-2.06,2.06v68.13c0,1.14.92,2.06,2.06,2.06h119.13c37.66,0,69.41-7,95.24-21.02,25.83-14.01,45.37-33.17,58.62-57.47,13.24-24.3,19.87-52.11,19.87-83.42s-6.57-58.84-19.71-83.26c-13.14-24.41-32.51-43.62-58.13-57.64-25.62-14.01-57.15-21.02-94.59-21.02h-160.14c-12.59,0-22.79,10.21-22.79,22.79v446.4c0,11.13,9.02,20.15,20.15,20.15h47.38c11.13,0,20.15-9.02,20.15-20.15Z"/>
    <path class="cls-2" d="M1667.64,340.91c-8.98-16.2-20.81-29.11-35.46-38.74-14.68-9.63-30.84-16.46-48.44-20.53-17.64-4.04-35.1-6.06-52.39-6.06-24.52,0-47.24,3.49-68.14,10.5-20.91,7.01-38.92,17.58-54.03,31.68-12.69,11.87-22.59,26.38-29.71,43.55-2.17,5.23,1.03,11.13,6.57,12.26l61.69,12.55c3.94.8,7.98-1.07,9.8-4.65,2.95-5.82,6.87-11.34,11.76-16.56,6.56-7,15.05-12.7,25.46-17.09,10.39-4.37,22.7-6.56,36.94-6.56s25.77,2.25,35.3,6.73c9.52,4.5,16.7,10.96,21.52,19.38,4.81,8.43,7.22,18.68,7.22,30.7v1.66c0,8.32-3.11,14.44-9.36,18.39-6.24,3.94-16.04,6.79-29.4,8.53-13.35,1.76-30.66,3.84-51.9,6.24-17.94,1.76-35.24,4.72-51.88,8.87-16.63,4.17-31.59,10.31-44.83,18.4-13.25,8.11-23.75,18.94-31.54,32.51-7.76,13.58-11.66,30.76-11.66,51.55,0,24.09,5.37,44.34,16.1,60.78,10.73,16.42,25.4,28.83,44.01,37.26,18.62,8.42,39.53,12.64,62.74,12.64,19.27,0,35.96-2.67,50.08-8.04,14.13-5.35,25.95-12.48,35.48-21.34,9.19-8.56,16.48-17.79,21.9-27.67.36-.66,1.05-1.07,1.8-1.07h0c1.14,0,2.06.92,2.06,2.06v33.09c0,8.52,6.91,15.43,15.43,15.43h50.93c8.52,0,15.43-6.91,15.43-15.43v-229.9c0-24.53-4.49-44.88-13.46-61.1ZM1596.36,515.63c0,13.58-3.56,26.11-10.67,37.61-7.12,11.49-17.08,20.75-29.88,27.75-12.81,7-28.08,10.5-45.82,10.5-12.05,0-22.73-1.85-32.03-5.57-9.31-3.72-16.64-9.14-22-16.26-5.36-7.11-8.05-15.93-8.05-26.44,0-11.37,2.91-20.64,8.72-27.74,5.78-7.11,13.83-12.65,24.14-16.59,10.28-3.94,21.78-6.79,34.48-8.54,5.46-.66,12.2-1.54,20.18-2.63,8-1.1,16.11-2.4,24.32-3.95,8.21-1.52,15.65-3.28,22.33-5.24.07-.02.13-.04.2-.06,7.02-2.1,14.08,3.1,14.08,10.43v26.73Z"/>
    <path class="cls-2" d="M2016.72,293.5v45.34c0,1.14-.92,2.06-2.06,2.06h-1.29c-.77,0-1.47-.43-1.83-1.12-4.35-8.43-10.51-17.54-18.48-27.28-8.31-10.18-19.49-18.89-33.49-26.12-14.02-7.22-31.86-10.82-53.54-10.82-28.24,0-53.81,7.22-76.69,21.66-22.87,14.46-41.1,35.6-54.68,63.38-13.57,27.81-20.36,61.86-20.36,102.15s6.74,73.03,20.2,99.51c13.46,26.5,31.64,46.35,54.52,59.6,22.87,13.26,48.33,19.88,76.36,19.88,21.22,0,38.69-3.18,52.38-9.53,13.68-6.34,24.57-14.17,32.68-23.48,7.73-8.89,13.68-17.54,17.82-25.93.35-.71,1.06-1.15,1.84-1.15h3.9c1.14,0,2.06.92,2.06,2.06v67.23c0,26.27-8.01,45.6-23.98,57.98-15.98,12.37-37.23,18.54-63.72,18.54-17.74,0-32.35-2.35-43.84-7.04-11.5-4.72-20.7-10.68-27.59-17.92-4.02-4.21-7.54-8.35-10.56-12.41-3.69-4.96-10.14-7-15.96-4.91l-47.44,17.03c-8.21,2.95-11.85,12.59-7.54,20.17,5.87,10.31,13.55,19.83,23.04,28.56,13.89,12.82,31.72,22.95,53.52,30.38,21.79,7.44,47.35,11.18,76.69,11.18,33.06,0,62.52-5.22,88.36-15.61,25.83-10.4,46.19-26.27,61.08-47.62,14.89-21.34,22.33-48.34,22.33-80.96v-354.81c0-7.38-5.98-13.35-13.35-13.35h-57.03c-7.38,0-13.35,5.98-13.35,13.35ZM2006.21,522.54c-6.8,16.85-16.65,29.71-29.57,38.58-12.91,8.88-28.69,13.3-47.3,13.3s-35.07-4.65-48.1-13.96c-13.05-9.3-22.89-22.37-29.57-39.24-6.67-16.85-10.01-36.55-10.01-59.1s3.28-42.2,9.86-59.62c6.56-17.4,16.35-31.2,29.39-41.38,13.01-10.18,29.17-15.26,48.43-15.26s34.71,4.87,47.62,14.61c12.91,9.74,22.73,23.32,29.4,40.74,6.67,17.4,10.02,37.7,10.02,60.93s-3.39,43.56-10.18,60.42Z"/>
    <path class="cls-2" d="M2425.08,642.57c21.35-8.21,39.13-19.71,53.37-34.48,10.78-11.2,19.18-23.81,25.19-37.84,3.04-7.09-1.29-15.18-8.84-16.73l-55.08-11.29c-5.36-1.1-10.7,1.6-13.19,6.48-3.42,6.7-7.79,12.6-13.1,17.68-7.45,7.12-16.26,12.48-26.44,16.09s-21.51,5.42-33.99,5.42c-18.83,0-35.36-4.05-49.59-12.15-14.24-8.1-25.29-20.14-33.17-36.13-7.88-15.98-11.82-35.58-11.82-58.79v-40.07c0-18.17,3.45-34.65,10.35-49.43,6.9-14.78,16.91-26.6,30.05-35.47s29.12-13.3,47.95-13.3,34.54,4.38,47.13,13.14c12.59,8.76,22.06,20.97,28.41,36.62,6.03,14.87,9.2,31.96,9.5,51.26.02,1.47,1.51,2.46,2.87,1.88l27.94-11.91c2.06-.88,1.44-3.96-.81-3.96h-245.66c-1.14,0-2.06.92-2.06,2.06v54.01c0,1.14.92,2.06,2.06,2.06h283.68c7.97,0,14.43-6.46,14.43-14.43v-12.5c0-32.19-4.43-59.94-13.3-83.25-8.87-23.32-21.13-42.53-36.78-57.64-15.66-15.11-33.61-26.27-53.86-33.5-20.25-7.23-41.55-10.84-63.88-10.84-35.03,0-65.52,8.05-91.47,24.14-25.95,16.09-45.98,38.37-60.1,66.83-14.12,28.47-21.18,61.64-21.18,99.51s7.17,71.6,21.51,99.84c14.34,28.24,34.81,50.14,61.42,65.68,26.6,15.55,58.4,23.32,95.41,23.32,27.37,0,51.73-4.1,73.07-12.31Z"/>
    <path class="cls-2" d="M2877.62,640.76c23.75-8.75,44.61-20.91,62.56-36.45,17.95-15.54,32.46-33.55,43.52-54.03,8.71-16.12,15.01-33.17,18.89-51.13,1.64-7.58-4.2-14.72-11.95-14.72h-64.3c-5.56,0-10.41,3.76-11.81,9.13-2.8,10.79-6.95,20.61-12.44,29.46-7.01,11.28-15.71,20.8-26.11,28.57-10.4,7.78-22.06,13.69-34.98,17.74-12.92,4.05-26.72,6.08-41.38,6.08-26.27,0-49.76-6.57-70.45-19.71-20.69-13.14-36.95-32.51-48.77-58.13-11.82-25.62-17.73-57.15-17.73-94.59s5.85-68.36,17.57-94.09c11.71-25.72,27.92-45.32,48.61-58.79,20.69-13.47,44.39-20.2,71.1-20.2,14.67,0,28.46,2.03,41.38,6.08,12.92,4.05,24.52,9.97,34.81,17.73,10.29,7.78,18.88,17.24,25.78,28.41,5.44,8.81,9.62,18.71,12.54,29.71,1.42,5.34,6.26,9.05,11.79,9.05h64.04c7.74,0,13.56-7.12,11.96-14.69-4.4-20.85-11.41-39.82-21.02-56.91-11.82-21.02-26.88-38.81-45.16-53.37-18.28-14.56-39.08-25.62-62.4-33.17-23.32-7.55-48.33-11.33-75.04-11.33-42.48,0-80.63,9.97-114.46,29.89-33.83,19.93-60.54,48.66-80.13,86.21-19.6,37.55-29.4,82.71-29.4,135.47s9.74,97.54,29.23,134.98c19.48,37.44,46.09,66.13,79.81,86.05,33.71,19.93,72.03,29.89,114.95,29.89,28.9,0,55.23-4.38,78.99-13.14Z"/>
    <path class="cls-2" d="M3393.87,365.71c-14.35-28.57-34.64-50.75-60.93-66.51-26.27-15.76-57.37-23.64-93.27-23.64s-66.66,7.88-92.95,23.64c-26.27,15.76-46.58,37.94-60.91,66.51-14.35,28.58-21.5,61.91-21.5,100s7.15,70.67,21.5,99.01c14.34,28.37,34.64,50.47,60.91,66.34,26.29,15.89,57.25,23.8,92.95,23.8s67-7.92,93.27-23.8c26.29-15.87,46.58-37.98,60.93-66.34,14.33-28.34,21.5-61.35,21.5-99.01s-7.18-71.43-21.5-100ZM3318.98,526.15c-6.46,18.18-16.31,32.61-29.56,43.34-13.25,10.73-29.83,16.1-49.76,16.1s-36.4-5.36-49.42-16.1c-13.03-10.72-22.78-25.16-29.22-43.34-6.47-18.18-9.7-38.43-9.7-60.76s3.23-43.21,9.7-61.26c6.44-18.07,16.2-32.46,29.22-43.18,13.03-10.73,29.49-16.08,49.42-16.08s36.51,5.35,49.76,16.08c13.25,10.72,23.09,25.18,29.56,43.34,6.45,18.18,9.69,38.56,9.69,61.1s-3.24,42.58-9.69,60.76Z"/>
    <path class="cls-2" d="M3584.15,386.73c6.78-12.59,16.09-22.17,27.92-28.74s25.29-9.85,40.4-9.85c22.33,0,39.85,7.01,52.55,21.02,12.69,14.02,19.05,33.28,19.05,57.8v209.92c0,5.77,4.68,10.45,10.45,10.45h64.49c5.77,0,10.45-4.68,10.45-10.45v-223.06c0-29.56-5.2-54.63-15.6-75.21-10.4-20.58-25.02-36.23-43.84-46.97-18.83-10.72-40.84-16.09-66.01-16.09-30,0-54.96,7.94-74.88,23.81-19.35,15.42-34.16,38.33-44.42,68.72-.45,1.33.55,2.72,1.96,2.72h1.95c1.15,0,2.08-.94,2.06-2.09l-1.13-78.26c-.08-5.71-4.74-10.3-10.45-10.3h-60.05c-5.77,0-10.45,4.68-10.45,10.45v346.28c0,5.77,4.68,10.45,10.45,10.45h64.49c5.77,0,10.45-4.68,10.45-10.45v-204.67c0-17.74,3.39-32.89,10.18-45.49Z"/>
    <path class="cls-2" d="M4119.62,639.94c23.75-9.96,42.31-23.75,55.67-41.38,13.35-17.62,20.04-38.04,20.04-61.25,0-25.83-8.43-46.96-25.29-63.39-16.86-16.42-42.69-28.35-77.51-35.8l-62.4-13.14c-18.61-3.94-31.97-9.41-40.07-16.42-8.1-7-12.15-15.87-12.15-26.6,0-12.48,6.08-22.71,18.23-30.71,12.15-7.99,27.31-11.99,45.49-11.99,19.92,0,35.36,4.43,46.31,13.3,8.64,7,15.17,15.26,19.58,24.78,2.11,4.55,7,7.12,11.92,6.14l55.68-11.04c6.48-1.29,10.27-8.04,8.04-14.26-5.06-14.12-12.44-26.72-22.15-37.81-12.37-14.12-28.57-25.12-48.61-33.01-20.03-7.88-43.96-11.82-71.76-11.82-29.34,0-55.12,4.6-77.34,13.79-22.23,9.2-39.57,22.12-52.05,38.75-12.48,16.64-18.72,36.35-18.72,59.12,0,26.93,8.54,48.93,25.62,66.01,17.08,17.08,42.91,29.34,77.51,36.78l62.73,13.47c16.86,3.72,29.34,9.03,37.44,15.93,8.1,6.9,12.15,15.6,12.15,26.11,0,12.48-6.19,22.94-18.56,31.36-12.37,8.43-29.07,12.64-50.09,12.64s-37.6-4.43-50.41-13.3c-10.69-7.4-18.67-18.04-23.95-31.91-1.87-4.93-6.95-7.86-12.13-6.88l-59.45,11.25c-6.24,1.18-10.08,7.46-8.37,13.57,4.84,17.23,12.98,32.23,24.42,45.01,13.9,15.55,31.69,27.37,53.37,35.47,21.67,8.1,46.64,12.15,74.88,12.15,30.87,0,58.18-4.98,81.94-14.94Z"/>
    <path class="cls-2" d="M4466.89,628.28c19.57-15.32,34.48-38.27,44.76-68.88.45-1.33-.56-2.71-1.96-2.71h-1.63c-1.15,0-2.07.94-2.06,2.08l.83,76.38c.07,6.75,5.57,12.19,12.32,12.19h56.61c6.8,0,12.32-5.52,12.32-12.32v-342.54c0-6.8-5.52-12.32-12.32-12.32h-61.08c-6.8,0-12.32,5.52-12.32,12.32v202.8c0,17.52-3.34,32.63-10.02,45.32-6.68,12.7-15.93,22.33-27.75,28.9-11.82,6.57-25.29,9.85-40.4,9.85-22.33,0-39.9-7-52.71-21.02-12.81-14.01-19.21-33.28-19.21-57.8v-208.05c0-6.8-5.52-12.32-12.32-12.32h-60.75c-6.8,0-12.32,5.52-12.32,12.32v221.19c0,29.34,5.2,54.35,15.6,75.04,10.4,20.69,25.07,36.4,44.01,47.13,18.94,10.73,41,16.09,66.18,16.09,29.34,0,54.08-7.88,74.22-23.65Z"/>
    <path class="cls-2" d="M4677.38,171.31v462.69c0,7.36,5.97,13.33,13.33,13.33h58.73c7.36,0,13.33-5.97,13.33-13.33V168.33c0-5.72-4.63-10.35-10.35-10.35h-61.71c-7.36,0-13.33,5.97-13.33,13.33Z"/>
    <rect class="cls-2" x="4823.17" y="280.15" width="208.55" height="67" rx="7.27" ry="7.27"/>
    <path class="cls-2" d="M4875.39,551.1c0,32.41,9.41,57.37,28.24,74.88,18.83,17.52,45.87,26.28,81.12,26.28,8.98,0,18.39-.61,28.24-1.81,6.82-.84,13.54-2.06,20.15-3.68,4.92-1.21,7.99-6.12,6.98-11.08l-9.82-48.15c-1.02-5.01-5.82-8.3-10.86-7.44-2.03.35-4.24.7-6.61,1.07-6.46.98-11.66,1.48-15.6,1.48-12.92,0-22.23-3.12-27.92-9.36-5.7-6.24-8.54-16.04-8.54-29.39V202.26c0-5.23-4.24-9.47-9.47-9.47h-66.45c-5.23,0-9.47,4.24-9.47,9.47v348.84Z"/>
    <path class="cls-3" d="M5329.12,647.33c3.21,0,6.05-2.06,7.06-5.1l82.39-249.1c7.88-25.4,16.26-54.79,25.12-88.18,8.69-32.71,18.37-69.9,29.06-111.54.33-1.3-.65-2.58-1.99-2.58h-13.06c-1.35,0-2.34,1.29-1.99,2.6,10.9,41.21,20.85,78.06,29.86,110.55,9.2,33.17,18.06,62.89,26.6,89.17l85.31,249.17c1.03,3.01,3.86,5.03,7.03,5.03h80.37c5.14,0,8.73-5.09,7-9.93l-169.41-474.48c-1.06-2.96-3.86-4.93-7-4.93h-100.82c-3.16,0-5.98,2-7.02,4.98l-165.59,474.48c-1.69,4.83,1.9,9.88,7.02,9.88h80.06Z"/>
    <path class="cls-3" d="M5282.06,526.14h311.79c1.14,0,2.06-.92,2.06-2.06v-66.49c0-1.14-.92-2.06-2.06-2.06h-287.26"/>
    <rect class="cls-3" x="5760.78" y="157.98" width="87.69" height="489.35" rx="8.03" ry="8.03"/>
    <path class="cls-1" d="M351.18,234.41v7.74c0,3.39-1.78,6.15-3.99,6.15h-174.06c-2.2,0-3.99-2.76-3.99-6.15v-7.74c0-3.39,1.79-6.15,3.99-6.15h174.06c2.21,0,3.99,2.76,3.99,6.15ZM327.42,300.08h-46.04c-13.13,0-23.77,10.64-23.77,23.76v46.04c0,13.13,10.64,23.77,23.77,23.77h46.04c13.12,0,23.76-10.64,23.76-23.77v-46.04c0-13.12-10.64-23.76-23.76-23.76ZM570.55,228.26h-174.06c-2.2,0-3.99,2.76-3.99,6.15v7.74c0,3.39,1.79,6.15,3.99,6.15h174.06c2.21,0,3.99-2.76,3.99-6.15v-7.74c0-3.39-1.78-6.15-3.99-6.15ZM550.78,300.08h-46.05c-13.12,0-23.76,10.64-23.76,23.76v46.04c0,13.13,10.64,23.77,23.76,23.77h46.05c13.12,0,23.76-10.64,23.76-23.77v-46.04c0-13.12-10.64-23.76-23.76-23.76ZM247.66,80.28c.14.03.27.07.4.11.25.06.49.13.74.2.54.17,1.08.36,1.6.57.51.21,1,.43,1.48.68.29.15.58.31.86.48.23.13.45.27.67.41.18.11.37.23.55.36.27.19.54.39.8.59.06.04.13.09.19.15.24.19.48.39.72.6.13.11.26.23.39.35.38.35.74.72,1.08,1.1.21.22.41.45.6.69.02.02.04.04.05.06.25.3.49.62.73.94.28.4.55.81.8,1.23.13.2.25.41.36.62.44.79.83,1.62,1.15,2.48.09.24.17.48.25.73.5,1.52.81,3.12.89,4.79.02.33.03.67.03,1,0,10.28-8.34,18.62-18.63,18.62-.64,0-1.28-.03-1.9-.1.69.09,1.4.13,2.12.13,10.29,0,18.63-8.34,18.63-18.62,0-8.9-6.23-16.33-14.56-18.17ZM193.13,80.19c8.42,1.8,14.74,9.27,14.74,18.23,0,10.28-8.34,18.62-18.63,18.62-.64,0-1.28-.03-1.9-.1.69.09,1.4.13,2.12.13,10.29,0,18.63-8.34,18.63-18.62,0-9.04-6.43-16.57-14.96-18.26ZM139.01,80.19c8.41,1.8,14.73,9.27,14.73,18.23,0,10.28-8.34,18.62-18.62,18.62-.64,0-1.28-.03-1.9-.1.69.09,1.4.13,2.12.13,10.28,0,18.62-8.34,18.62-18.62,0-9.04-6.43-16.57-14.95-18.26ZM347.19,228.26h-174.06c-2.2,0-3.99,2.76-3.99,6.15v7.74c0,3.39,1.79,6.15,3.99,6.15h174.06c2.21,0,3.99-2.76,3.99-6.15v-7.74c0-3.39-1.78-6.15-3.99-6.15ZM327.42,300.08h-46.04c-13.13,0-23.77,10.64-23.77,23.76v46.04c0,13.13,10.64,23.77,23.77,23.77h46.04c13.12,0,23.76-10.64,23.76-23.77v-46.04c0-13.12-10.64-23.76-23.76-23.76ZM570.55,228.26h-174.06c-2.2,0-3.99,2.76-3.99,6.15v7.74c0,3.39,1.79,6.15,3.99,6.15h174.06c2.21,0,3.99-2.76,3.99-6.15v-7.74c0-3.39-1.78-6.15-3.99-6.15ZM550.78,300.08h-46.05c-13.12,0-23.76,10.64-23.76,23.76v46.04c0,13.13,10.64,23.77,23.76,23.77h46.05c13.12,0,23.76-10.64,23.76-23.77v-46.04c0-13.12-10.64-23.76-23.76-23.76ZM139.01,80.19c-.27-.05-.55-.1-.83-.15h-.02c-.31-.05-.61-.09-.92-.12-.69-.09-1.4-.13-2.12-.13-10.29,0-18.63,8.34-18.63,18.63,0,9.03,6.43,16.56,14.96,18.25.27.06.55.11.83.15.01.01.02,0,.02,0,.31.05.61.09.92.12.69.09,1.4.13,2.12.13,10.28,0,18.62-8.34,18.62-18.62,0-9.04-6.43-16.57-14.95-18.26ZM193.13,80.19c-.27-.05-.55-.1-.83-.15h-.02c-.31-.05-.61-.09-.92-.12-.69-.09-1.4-.13-2.12-.13-10.28,0-18.62,8.34-18.62,18.63,0,9.03,6.43,16.56,14.95,18.25.27.06.55.11.83.15.01.01.02,0,.02,0,.31.05.61.09.92.12.69.09,1.4.13,2.12.13,10.29,0,18.63-8.34,18.63-18.62,0-9.04-6.43-16.57-14.96-18.26ZM247.66,80.28c.14.03.27.07.4.11-.53-.14-1.08-.26-1.63-.35h-.01c-.31-.05-.61-.09-.92-.12-.7-.09-1.41-.13-2.13-.13-10.28,0-18.62,8.34-18.62,18.63,0,8.74,6.02,16.08,14.15,18.06,0,0,0-.01.01,0h.01c.26.08.52.14.79.19s.55.1.83.15t.01,0c.3.05.61.09.92.12.69.09,1.4.13,2.12.13,10.29,0,18.63-8.34,18.63-18.62,0-8.9-6.23-16.33-14.56-18.17ZM347.19,228.26h-174.06c-2.2,0-3.99,2.76-3.99,6.15v7.74c0,3.39,1.79,6.15,3.99,6.15h174.06c2.21,0,3.99-2.76,3.99-6.15v-7.74c0-3.39-1.78-6.15-3.99-6.15ZM327.42,300.08h-46.04c-13.13,0-23.77,10.64-23.77,23.76v46.04c0,13.13,10.64,23.77,23.77,23.77h46.04c13.12,0,23.76-10.64,23.76-23.77v-46.04c0-13.12-10.64-23.76-23.76-23.76ZM570.55,228.26h-174.06c-2.2,0-3.99,2.76-3.99,6.15v7.74c0,3.39,1.79,6.15,3.99,6.15h174.06c2.21,0,3.99-2.76,3.99-6.15v-7.74c0-3.39-1.78-6.15-3.99-6.15ZM550.78,300.08h-46.05c-13.12,0-23.76,10.64-23.76,23.76v46.04c0,13.13,10.64,23.77,23.76,23.77h46.05c13.12,0,23.76-10.64,23.76-23.77v-46.04c0-13.12-10.64-23.76-23.76-23.76ZM550.78,300.08h-46.05c-13.12,0-23.76,10.64-23.76,23.76v46.04c0,13.13,10.64,23.77,23.76,23.77h46.05c13.12,0,23.76-10.64,23.76-23.77v-46.04c0-13.12-10.64-23.76-23.76-23.76ZM570.55,228.26h-174.06c-2.2,0-3.99,2.76-3.99,6.15v7.74c0,3.39,1.79,6.15,3.99,6.15h174.06c2.21,0,3.99-2.76,3.99-6.15v-7.74c0-3.39-1.78-6.15-3.99-6.15ZM327.42,300.08h-46.04c-13.13,0-23.77,10.64-23.77,23.76v46.04c0,13.13,10.64,23.77,23.77,23.77h46.04c13.12,0,23.76-10.64,23.76-23.77v-46.04c0-13.12-10.64-23.76-23.76-23.76ZM347.19,228.26h-174.06c-2.2,0-3.99,2.76-3.99,6.15v7.74c0,3.39,1.79,6.15,3.99,6.15h174.06c2.21,0,3.99-2.76,3.99-6.15v-7.74c0-3.39-1.78-6.15-3.99-6.15ZM139.01,80.19c-.27-.05-.55-.1-.83-.15h-.02c-.31-.05-.61-.09-.92-.12-.69-.09-1.4-.13-2.12-.13-10.29,0-18.63,8.34-18.63,18.63,0,9.03,6.43,16.56,14.96,18.25.27.06.55.11.83.15.01.01.02,0,.02,0,.31.05.61.09.92.12.69.09,1.4.13,2.12.13,10.28,0,18.62-8.34,18.62-18.62,0-9.04-6.43-16.57-14.95-18.26ZM193.13,80.19c-.27-.05-.55-.1-.83-.15h-.02c-.31-.05-.61-.09-.92-.12-.69-.09-1.4-.13-2.12-.13-10.28,0-18.62,8.34-18.62,18.63,0,9.03,6.43,16.56,14.95,18.25.27.06.55.11.83.15.01.01.02,0,.02,0,.31.05.61.09.92.12.69.09,1.4.13,2.12.13,10.29,0,18.63-8.34,18.63-18.62,0-9.04-6.43-16.57-14.96-18.26ZM247.66,80.28c.14.03.27.07.4.11-.53-.14-1.08-.26-1.63-.35h-.01c-.31-.05-.61-.09-.92-.12-.7-.09-1.41-.13-2.13-.13-10.28,0-18.62,8.34-18.62,18.63,0,8.74,6.02,16.08,14.15,18.06,0,0,0-.01.01,0h.01c.26.08.52.14.79.19s.55.1.83.15t.01,0c.3.05.61.09.92.12.69.09,1.4.13,2.12.13,10.29,0,18.63-8.34,18.63-18.62,0-8.9-6.23-16.33-14.56-18.17ZM351.18,234.41v7.74c0,3.39-1.78,6.15-3.99,6.15h-174.06c-2.2,0-3.99-2.76-3.99-6.15v-7.74c0-3.39,1.79-6.15,3.99-6.15h174.06c2.21,0,3.99,2.76,3.99,6.15ZM351.18,323.84v46.04c0,13.13-10.64,23.77-23.76,23.77h-46.04c-13.13,0-23.77-10.64-23.77-23.77v-46.04c0-13.12,10.64-23.76,23.77-23.76h46.04c13.12,0,23.76,10.64,23.76,23.76ZM574.54,234.41v7.74c0,3.39-1.78,6.15-3.99,6.15h-174.06c-2.2,0-3.99-2.76-3.99-6.15v-7.74c0-3.39,1.79-6.15,3.99-6.15h174.06c2.21,0,3.99,2.76,3.99,6.15ZM574.54,323.84v46.04c0,13.13-10.64,23.77-23.76,23.77h-46.05c-13.12,0-23.76-10.64-23.76-23.77v-46.04c0-13.12,10.64-23.76,23.76-23.76h46.05c13.12,0,23.76,10.64,23.76,23.76ZM574.54,323.84v46.04c0,13.13-10.64,23.77-23.76,23.77h-46.05c-13.12,0-23.76-10.64-23.76-23.77v-46.04c0-13.12,10.64-23.76,23.76-23.76h46.05c13.12,0,23.76,10.64,23.76,23.76ZM574.54,234.41v7.74c0,3.39-1.78,6.15-3.99,6.15h-174.06c-2.2,0-3.99-2.76-3.99-6.15v-7.74c0-3.39,1.79-6.15,3.99-6.15h174.06c2.21,0,3.99,2.76,3.99,6.15ZM351.18,323.84v46.04c0,13.13-10.64,23.77-23.76,23.77h-46.04c-13.13,0-23.77-10.64-23.77-23.77v-46.04c0-13.12,10.64-23.76,23.77-23.76h46.04c13.12,0,23.76,10.64,23.76,23.76ZM351.18,234.41v7.74c0,3.39-1.78,6.15-3.99,6.15h-174.06c-2.2,0-3.99-2.76-3.99-6.15v-7.74c0-3.39,1.79-6.15,3.99-6.15h174.06c2.21,0,3.99,2.76,3.99,6.15ZM715.74,73.78v501.37c0,40.75-36.43,73.78-81.36,73.78h-352.42c-7.08,0-13.9,2.63-19.14,7.37l-97.92,88.57c-10.76,9.74-29.15,2.83-29.15-10.96v-73.73c0-6.22-5.04-11.25-11.25-11.25h-43.13c-44.94,0-81.37-33.03-81.37-73.78V73.78C0,33.03,36.43,0,81.37,0h553.01c44.93,0,81.36,33.03,81.36,73.78ZM480.62,534.51c0-16.33-13.24-29.57-29.57-29.57h-186.36c-16.33,0-29.57,13.24-29.57,29.57,0,8.16,3.31,15.56,8.66,20.9,5.35,5.35,12.74,8.66,20.91,8.66h186.36c16.33,0,29.57-13.23,29.57-29.56ZM625.96,181.99c0-11.68-9.47-21.15-21.15-21.15H113.36c-11.68,0-21.16,9.47-21.16,21.15v256.99c0,11.68,9.48,21.15,21.16,21.15h491.45c11.68,0,21.15-9.47,21.15-21.15V181.99ZM626.21,88.63c0-11.56-9.37-20.94-20.94-20.94H109.53c-11.56,0-20.94,9.37-20.94,20.94v30.78c0,5.15,4.17,9.32,9.31,9.32h519c5.14,0,9.31-4.17,9.31-9.32v-30.78ZM574.54,323.84v46.04c0,13.13-10.64,23.77-23.76,23.77h-46.05c-13.12,0-23.76-10.64-23.76-23.77v-46.04c0-13.12,10.64-23.76,23.76-23.76h46.05c13.12,0,23.76,10.64,23.76,23.76ZM574.54,234.41v7.74c0,3.39-1.78,6.15-3.99,6.15h-174.06c-2.2,0-3.99-2.76-3.99-6.15v-7.74c0-3.39,1.79-6.15,3.99-6.15h174.06c2.21,0,3.99,2.76,3.99,6.15ZM351.18,323.84v46.04c0,13.13-10.64,23.77-23.76,23.77h-46.04c-13.13,0-23.77-10.64-23.77-23.77v-46.04c0-13.12,10.64-23.76,23.77-23.76h46.04c13.12,0,23.76,10.64,23.76,23.76ZM351.18,234.41v7.74c0,3.39-1.78,6.15-3.99,6.15h-174.06c-2.2,0-3.99-2.76-3.99-6.15v-7.74c0-3.39,1.79-6.15,3.99-6.15h174.06c2.21,0,3.99,2.76,3.99,6.15ZM347.19,228.26h-174.06c-2.2,0-3.99,2.76-3.99,6.15v7.74c0,3.39,1.79,6.15,3.99,6.15h174.06c2.21,0,3.99-2.76,3.99-6.15v-7.74c0-3.39-1.78-6.15-3.99-6.15ZM327.42,300.08h-46.04c-13.13,0-23.77,10.64-23.77,23.76v46.04c0,13.13,10.64,23.77,23.77,23.77h46.04c13.12,0,23.76-10.64,23.76-23.77v-46.04c0-13.12-10.64-23.76-23.76-23.76ZM570.55,228.26h-174.06c-2.2,0-3.99,2.76-3.99,6.15v7.74c0,3.39,1.79,6.15,3.99,6.15h174.06c2.21,0,3.99-2.76,3.99-6.15v-7.74c0-3.39-1.78-6.15-3.99-6.15ZM550.78,300.08h-46.05c-13.12,0-23.76,10.64-23.76,23.76v46.04c0,13.13,10.64,23.77,23.76,23.77h46.05c13.12,0,23.76-10.64,23.76-23.77v-46.04c0-13.12-10.64-23.76-23.76-23.76ZM139.01,80.19c-.27-.05-.55-.1-.83-.15h-.02c-.31-.05-.61-.09-.92-.12-.69-.09-1.4-.13-2.12-.13-10.29,0-18.63,8.34-18.63,18.63,0,9.03,6.43,16.56,14.96,18.25.27.06.55.11.83.15.01.01.02,0,.02,0,.31.05.61.09.92.12.69.09,1.4.13,2.12.13,10.28,0,18.62-8.34,18.62-18.62,0-9.04-6.43-16.57-14.95-18.26ZM193.13,80.19c-.27-.05-.55-.1-.83-.15h-.02c-.31-.05-.61-.09-.92-.12-.69-.09-1.4-.13-2.12-.13-10.28,0-18.62,8.34-18.62,18.63,0,9.03,6.43,16.56,14.95,18.25.27.06.55.11.83.15.01.01.02,0,.02,0,.31.05.61.09.92.12.69.09,1.4.13,2.12.13,10.29,0,18.63-8.34,18.63-18.62,0-9.04-6.43-16.57-14.96-18.26ZM247.66,80.28c.14.03.27.07.4.11-.53-.14-1.08-.26-1.63-.35h-.01c-.31-.05-.61-.09-.92-.12-.7-.09-1.41-.13-2.13-.13-10.28,0-18.62,8.34-18.62,18.63,0,8.74,6.02,16.08,14.15,18.06,0,0,0-.01.01,0h.01c.26.08.52.14.79.19s.55.1.83.15t.01,0c.3.05.61.09.92.12.69.09,1.4.13,2.12.13,10.29,0,18.63-8.34,18.63-18.62,0-8.9-6.23-16.33-14.56-18.17ZM550.78,300.08h-46.05c-13.12,0-23.76,10.64-23.76,23.76v46.04c0,13.13,10.64,23.77,23.76,23.77h46.05c13.12,0,23.76-10.64,23.76-23.77v-46.04c0-13.12-10.64-23.76-23.76-23.76ZM570.55,228.26h-174.06c-2.2,0-3.99,2.76-3.99,6.15v7.74c0,3.39,1.79,6.15,3.99,6.15h174.06c2.21,0,3.99-2.76,3.99-6.15v-7.74c0-3.39-1.78-6.15-3.99-6.15ZM327.42,300.08h-46.04c-13.13,0-23.77,10.64-23.77,23.76v46.04c0,13.13,10.64,23.77,23.77,23.77h46.04c13.12,0,23.76-10.64,23.76-23.77v-46.04c0-13.12-10.64-23.76-23.76-23.76ZM347.19,228.26h-174.06c-2.2,0-3.99,2.76-3.99,6.15v7.74c0,3.39,1.79,6.15,3.99,6.15h174.06c2.21,0,3.99-2.76,3.99-6.15v-7.74c0-3.39-1.78-6.15-3.99-6.15ZM347.19,228.26h-174.06c-2.2,0-3.99,2.76-3.99,6.15v7.74c0,3.39,1.79,6.15,3.99,6.15h174.06c2.21,0,3.99-2.76,3.99-6.15v-7.74c0-3.39-1.78-6.15-3.99-6.15ZM327.42,300.08h-46.04c-13.13,0-23.77,10.64-23.77,23.76v46.04c0,13.13,10.64,23.77,23.77,23.77h46.04c13.12,0,23.76-10.64,23.76-23.77v-46.04c0-13.12-10.64-23.76-23.76-23.76ZM570.55,228.26h-174.06c-2.2,0-3.99,2.76-3.99,6.15v7.74c0,3.39,1.79,6.15,3.99,6.15h174.06c2.21,0,3.99-2.76,3.99-6.15v-7.74c0-3.39-1.78-6.15-3.99-6.15ZM550.78,300.08h-46.05c-13.12,0-23.76,10.64-23.76,23.76v46.04c0,13.13,10.64,23.77,23.76,23.77h46.05c13.12,0,23.76-10.64,23.76-23.77v-46.04c0-13.12-10.64-23.76-23.76-23.76ZM139.01,80.19c-.27-.05-.55-.1-.83-.15h-.02c-.31-.05-.61-.09-.92-.12-.69-.09-1.4-.13-2.12-.13-10.29,0-18.63,8.34-18.63,18.63,0,9.03,6.43,16.56,14.96,18.25.27.06.55.11.83.15.01.01.02,0,.02,0,.31.05.61.09.92.12.69.09,1.4.13,2.12.13,10.28,0,18.62-8.34,18.62-18.62,0-9.04-6.43-16.57-14.95-18.26ZM193.13,80.19c-.27-.05-.55-.1-.83-.15h-.02c-.31-.05-.61-.09-.92-.12-.69-.09-1.4-.13-2.12-.13-10.28,0-18.62,8.34-18.62,18.63,0,9.03,6.43,16.56,14.95,18.25.27.06.55.11.83.15.01.01.02,0,.02,0,.31.05.61.09.92.12.69.09,1.4.13,2.12.13,10.29,0,18.63-8.34,18.63-18.62,0-9.04-6.43-16.57-14.96-18.26ZM247.66,80.28c.14.03.27.07.4.11-.53-.14-1.08-.26-1.63-.35h-.01c-.31-.05-.61-.09-.92-.12-.7-.09-1.41-.13-2.13-.13-10.28,0-18.62,8.34-18.62,18.63,0,8.74,6.02,16.08,14.15,18.06,0,0,0-.01.01,0h.01c.26.08.52.14.79.19s.55.1.83.15t.01,0c.3.05.61.09.92.12.69.09,1.4.13,2.12.13,10.29,0,18.63-8.34,18.63-18.62,0-8.9-6.23-16.33-14.56-18.17ZM243.59,79.82c.64,0,1.28.03,1.91.1-.7-.09-1.41-.13-2.13-.13-10.28,0-18.62,8.34-18.62,18.63,0,8.74,6.02,16.08,14.15,18.06-.26-.08-.52-.15-.78-.23-1.32-.41-2.57-.95-3.75-1.63-.18-.1-.36-.2-.54-.32-.13-.07-.25-.15-.37-.24-.15-.09-.3-.19-.44-.29-.28-.19-.56-.39-.83-.61-.29-.22-.57-.45-.84-.69-.18-.16-.36-.32-.54-.49-.2-.18-.39-.37-.58-.57-.74-.76-1.42-1.59-2.02-2.47-.15-.21-.29-.42-.42-.64-.07-.11-.14-.22-.2-.33-.15-.23-.28-.47-.4-.71-.26-.47-.5-.96-.71-1.46-.11-.26-.21-.51-.31-.77-.18-.46-.34-.94-.47-1.42-.16-.55-.3-1.11-.4-1.69-.16-.81-.26-1.63-.3-2.48-.02-.33-.03-.66-.03-.99,0-10.29,8.34-18.63,18.62-18.63ZM189.46,79.82c.64,0,1.28.03,1.9.1-.69-.09-1.4-.13-2.12-.13-10.28,0-18.62,8.34-18.62,18.63,0,9.03,6.43,16.56,14.95,18.25-8.41-1.8-14.73-9.27-14.73-18.22,0-10.29,8.34-18.63,18.62-18.63ZM135.34,79.82c.64,0,1.28.03,1.9.1-.69-.09-1.4-.13-2.12-.13-10.29,0-18.63,8.34-18.63,18.63,0,9.03,6.43,16.56,14.96,18.25-8.42-1.8-14.74-9.27-14.74-18.22,0-10.29,8.34-18.63,18.63-18.63ZM347.19,228.26h-174.06c-2.2,0-3.99,2.76-3.99,6.15v7.74c0,3.39,1.79,6.15,3.99,6.15h174.06c2.21,0,3.99-2.76,3.99-6.15v-7.74c0-3.39-1.78-6.15-3.99-6.15ZM570.55,228.26h-174.06c-2.2,0-3.99,2.76-3.99,6.15v7.74c0,3.39,1.79,6.15,3.99,6.15h174.06c2.21,0,3.99-2.76,3.99-6.15v-7.74c0-3.39-1.78-6.15-3.99-6.15ZM261.97,97.42c-.08-1.67-.39-3.27-.89-4.79-.08-.25-.16-.49-.25-.73-.32-.86-.71-1.69-1.15-2.48-.11-.21-.23-.42-.36-.62-.25-.42-.52-.83-.8-1.23-.24-.32-.48-.64-.73-.94,0-.02-.03-.04-.05-.06-.19-.24-.39-.47-.6-.69-.34-.38-.7-.75-1.08-1.1-.13-.12-.26-.24-.39-.35-.24-.21-.48-.41-.72-.6-.06-.06-.13-.11-.19-.15-.26-.2-.53-.4-.8-.59-.18-.13-.37-.25-.55-.36-.22-.14-.44-.28-.67-.41-.28-.17-.57-.33-.86-.48-.48-.25-.97-.47-1.48-.68-.52-.21-1.06-.4-1.6-.57-.25-.07-.49-.14-.74-.2-.53-.14-1.08-.26-1.63-.35h-.01c-.31-.05-.61-.09-.92-.12-.63-.07-1.27-.1-1.91-.1-10.28,0-18.62,8.34-18.62,18.63,0,.33.01.66.03.99.04.85.14,1.67.3,2.48.1.58.24,1.14.4,1.69.13.48.29.96.47,1.42.1.26.2.51.31.77.21.5.45.99.71,1.46.11.22.23.43.36.64,0,.02.02.05.04.07.06.11.13.22.2.33.13.22.27.43.42.64.6.88,1.28,1.71,2.02,2.47.19.2.38.39.58.57.18.17.36.33.54.49.27.24.55.47.84.69.27.22.55.42.83.61.14.1.29.2.44.29.12.09.24.17.37.24.18.12.36.22.54.32,1.18.68,2.43,1.22,3.75,1.63.26.08.52.15.78.23,0,0,0-.01.01,0,.26.06.53.13.8.19.27.05.55.1.83.15t.01,0c.3.05.61.09.92.12.62.07,1.26.1,1.9.1,10.29,0,18.63-8.34,18.63-18.62,0-.33-.01-.67-.03-1ZM139.01,80.19c-.27-.05-.55-.1-.83-.15h-.02c-.31-.05-.61-.09-.92-.12-.62-.07-1.26-.1-1.9-.1-10.29,0-18.63,8.34-18.63,18.63,0,8.95,6.32,16.42,14.74,18.22.27.06.55.11.83.15.01.01.02,0,.02,0,.31.05.61.09.92.12.62.07,1.26.1,1.9.1,10.28,0,18.62-8.34,18.62-18.62,0-8.96-6.32-16.43-14.73-18.23ZM193.13,80.19c-.27-.05-.55-.1-.83-.15h-.02c-.31-.05-.61-.09-.92-.12-.62-.07-1.26-.1-1.9-.1-10.28,0-18.62,8.34-18.62,18.63,0,8.95,6.32,16.42,14.73,18.22.27.06.55.11.83.15.01.01.02,0,.02,0,.31.05.61.09.92.12.62.07,1.26.1,1.9.1,10.29,0,18.63-8.34,18.63-18.62,0-8.96-6.32-16.43-14.74-18.23Z"/>
  </g>
</svg>