<?xml version="1.0" encoding="UTF-8"?>
<svg id="Layer_2" data-name="Layer 2" xmlns="http://www.w3.org/2000/svg" viewBox="0 0 395.59 53.63">
  <defs>
    <style>
      .cls-1 {
        fill: #0bb7d6;
      }

      .cls-2 {
        fill: #fff;
      }

      .cls-3 {
        fill: #8865d6;
      }
    </style>
  </defs>
  <g id="Layer_1-2" data-name="Layer 1">
    <g>
      <path class="cls-3" d="M385,43.11l-11.46-32.09c-.07-.2-.26-.33-.47-.33h-6.82c-.21,0-.4.13-.47.33l-11.21,32.1c-.11.32.13.67.48.67h5.41c.22,0,.42-.14.48-.35l2.46-7.42c.09-.26.33-.43.6-.43h11.48c.27,0,.51.17.6.43l2.54,7.43c.07.2.26.34.47.34h5.44c.35,0,.59-.35.47-.68ZM365.99,30.81c-.43,0-.73-.42-.6-.83l1.12-3.39c.53-1.72,1.09-3.7,1.69-5.96.25-.96.52-1.97.8-3.04.16-.62,1.05-.63,1.22,0,.29,1.05.56,2.04.82,2.98.62,2.24,1.22,4.25,1.8,6.03l1.16,3.39c.14.41-.16.83-.6.83h-7.42Z"/>
      <rect class="cls-3" x="389.66" y="10.69" width="5.93" height="33.1" rx=".54" ry=".54"/>
      <path class="cls-3" d="M31.14,20.57h6.11c.89,0,1.61.72,1.61,1.61v2.84c0,.89-.72,1.61-1.61,1.61h-6.11c-.89,0-1.61-.72-1.61-1.61v-2.84c0-.89.72-1.61,1.61-1.61Z"/>
      <path class="cls-3" d="M11.6,16.75c-.09-.07-.15-.21-.15-.38v-.52c0-.09.02-.18.05-.25,0,.02,0,.04,0,.06v.77c0,.12.04.23.1.32Z"/>
      <path class="cls-3" d="M26.71,16.76c-.09-.06-.16-.21-.16-.38v-.52c0-.1.02-.18.06-.25,0,.02,0,.04,0,.07v.77c0,.12.04.23.11.32Z"/>
      <path class="cls-3" d="M17.74,6.66c0,.12-.02.24-.05.35,0,0-.01.01-.02.02.04-.12.06-.24.06-.37,0-.02,0-.05,0-.07,0-.11-.03-.22-.06-.32,0-.02-.01-.03-.02-.05-.02-.06-.05-.11-.08-.17,0-.01-.02-.03-.02-.04-.02-.03-.04-.06-.05-.08-.02-.02-.03-.04-.05-.06,0,0,0,0,0,0-.01-.02-.03-.03-.04-.05-.02-.03-.05-.05-.07-.07,0,0-.02-.02-.03-.02-.02-.01-.03-.03-.05-.04,0,0,0,0-.01-.01-.02-.01-.04-.03-.05-.04-.01,0-.03-.02-.04-.02-.01,0-.03-.02-.05-.03-.02-.01-.04-.02-.06-.03-.03-.02-.07-.03-.1-.05-.04-.01-.07-.03-.11-.04-.02,0-.03,0-.05-.01,0,0-.02,0-.03,0,.56.12.98.63.98,1.23Z"/>
      <path class="cls-3" d="M14.08,6.66c0,.12-.02.24-.05.35,0,0-.01.01-.02.02.04-.12.06-.24.06-.37,0-.61-.43-1.11-1-1.23.58.11,1.01.62,1.01,1.24Z"/>
      <path class="cls-3" d="M10.41,6.66c0,.12-.02.24-.05.35,0,0-.01.01-.02.02.04-.12.06-.24.06-.37,0-.61-.43-1.11-1-1.23.58.11,1.01.62,1.01,1.24Z"/>
      <path class="cls-3" d="M11.6,16.75c-.09-.07-.15-.21-.15-.38v-.52c0-.09.02-.18.05-.25,0,.02,0,.04,0,.06v.77c0,.12.04.23.1.32Z"/>
      <path class="cls-3" d="M26.71,16.76c-.09-.06-.16-.21-.16-.38v-.52c0-.1.02-.18.06-.25,0,.02,0,.04,0,.07v.77c0,.12.04.23.11.32Z"/>
      <path class="cls-3" d="M10.41,6.66c0,.12-.02.24-.05.35,0,0-.01.01-.02.02-.23.21-.53.34-.86.34-.04,0-.09,0-.13,0-.02,0-.04,0-.06,0,0,0,0,0,0,0-.02,0-.04,0-.06-.01-.57-.12-1-.63-1-1.23,0-.14.02-.27.06-.4.22-.2.52-.32.84-.32.05,0,.1,0,.14,0,.02,0,.04,0,.06,0h0s.04,0,.06.01c.58.11,1.01.62,1.01,1.24Z"/>
      <path class="cls-3" d="M14.08,6.66c0,.12-.02.24-.05.35,0,0-.01.01-.02.02-.23.21-.53.34-.87.34-.04,0-.09,0-.13,0-.02,0-.04,0-.06,0,0,0,0,0,0,0-.02,0-.04,0-.06-.01-.57-.12-1-.63-1-1.23,0-.14.02-.27.06-.4.22-.2.52-.32.84-.32.05,0,.1,0,.14,0,.02,0,.04,0,.06,0h0s.04,0,.06.01c.58.11,1.01.62,1.01,1.24Z"/>
      <path class="cls-3" d="M17.74,6.66c0,.12-.02.24-.05.35,0,0-.01.01-.02.02-.23.21-.53.34-.87.34-.04,0-.09,0-.13,0-.02,0-.04,0-.06,0t0,0s-.04,0-.06-.01c-.02,0-.04,0-.05-.01h0s-.04-.01-.05-.02c-.09-.03-.17-.06-.25-.11-.01,0-.02-.01-.04-.02,0,0-.02-.01-.03-.02-.01,0-.02-.01-.03-.02-.02-.01-.04-.03-.06-.04-.02-.01-.04-.03-.06-.05-.01-.01-.02-.02-.04-.03-.01-.01-.03-.03-.04-.04-.05-.05-.1-.11-.14-.17-.01-.01-.02-.03-.03-.04,0,0,0-.01-.01-.02,0,0,0,0,0,0,0-.01-.02-.03-.02-.04-.02-.03-.03-.06-.05-.1,0-.02-.01-.03-.02-.05-.01-.03-.02-.06-.03-.1-.01-.04-.02-.08-.03-.11-.01-.05-.02-.11-.02-.17,0-.02,0-.04,0-.07,0-.14.02-.27.06-.4.22-.2.52-.32.84-.32.05,0,.1,0,.14,0,.02,0,.04,0,.06,0h0s.07.01.11.02c0,0-.02,0-.03,0,.56.12.98.63.98,1.23Z"/>
      <path class="cls-3" d="M11.6,16.75c-.09-.07-.15-.21-.15-.38v-.52c0-.09.02-.18.05-.25,0,.02,0,.04,0,.06v.77c0,.12.04.23.1.32Z"/>
      <path class="cls-3" d="M26.71,16.76c-.09-.06-.16-.21-.16-.38v-.52c0-.1.02-.18.06-.25,0,.02,0,.04,0,.07v.77c0,.12.04.23.11.32Z"/>
      <path class="cls-3" d="M26.71,16.76c-.09-.06-.16-.21-.16-.38v-.52c0-.1.02-.18.06-.25,0,.02,0,.04,0,.07v.77c0,.12.04.23.11.32Z"/>
      <path class="cls-3" d="M11.6,16.75c-.09-.07-.15-.21-.15-.38v-.52c0-.09.02-.18.05-.25,0,.02,0,.04,0,.06v.77c0,.12.04.23.1.32Z"/>
      <path class="cls-3" d="M10.41,6.66c0,.12-.02.24-.05.35,0,0-.01.01-.02.02-.23.21-.53.34-.86.34-.04,0-.09,0-.13,0-.02,0-.04,0-.06,0,0,0,0,0,0,0-.02,0-.04,0-.06-.01-.57-.12-1-.63-1-1.23,0-.14.02-.27.06-.4.22-.2.52-.32.84-.32.05,0,.1,0,.14,0,.02,0,.04,0,.06,0h0s.04,0,.06.01c.58.11,1.01.62,1.01,1.24Z"/>
      <path class="cls-3" d="M14.08,6.66c0,.12-.02.24-.05.35,0,0-.01.01-.02.02-.23.21-.53.34-.87.34-.04,0-.09,0-.13,0-.02,0-.04,0-.06,0,0,0,0,0,0,0-.02,0-.04,0-.06-.01-.57-.12-1-.63-1-1.23,0-.14.02-.27.06-.4.22-.2.52-.32.84-.32.05,0,.1,0,.14,0,.02,0,.04,0,.06,0h0s.04,0,.06.01c.58.11,1.01.62,1.01,1.24Z"/>
      <path class="cls-3" d="M17.74,6.66c0,.12-.02.24-.05.35,0,0-.01.01-.02.02-.23.21-.53.34-.87.34-.04,0-.09,0-.13,0-.02,0-.04,0-.06,0t0,0s-.04,0-.06-.01c-.02,0-.04,0-.05-.01h0s-.04-.01-.05-.02c-.09-.03-.17-.06-.25-.11-.01,0-.02-.01-.04-.02,0,0-.02-.01-.03-.02-.01,0-.02-.01-.03-.02-.02-.01-.04-.03-.06-.04-.02-.01-.04-.03-.06-.05-.01-.01-.02-.02-.04-.03-.01-.01-.03-.03-.04-.04-.05-.05-.1-.11-.14-.17-.01-.01-.02-.03-.03-.04,0,0,0-.01-.01-.02,0,0,0,0,0,0,0-.01-.02-.03-.02-.04-.02-.03-.03-.06-.05-.1,0-.02-.01-.03-.02-.05-.01-.03-.02-.06-.03-.1-.01-.04-.02-.08-.03-.11-.01-.05-.02-.11-.02-.17,0-.02,0-.04,0-.07,0-.14.02-.27.06-.4.22-.2.52-.32.84-.32.05,0,.1,0,.14,0,.02,0,.04,0,.06,0h0s.07.01.11.02c0,0-.02,0-.03,0,.56.12.98.63.98,1.23Z"/>
      <path class="cls-3" d="M11.6,16.75c-.09-.07-.15-.21-.15-.38v-.52c0-.09.02-.18.05-.25,0,.02,0,.04,0,.06v.77c0,.12.04.23.1.32Z"/>
      <path class="cls-3" d="M26.71,16.76c-.09-.06-.16-.21-.16-.38v-.52c0-.1.02-.18.06-.25,0,.02,0,.04,0,.07v.77c0,.12.04.23.11.32Z"/>
      <path class="cls-3" d="M26.71,16.76c-.09-.06-.16-.21-.16-.38v-.52c0-.1.02-.18.06-.25,0,.02,0,.04,0,.07v.77c0,.12.04.23.11.32Z"/>
      <path class="cls-3" d="M11.6,16.75c-.09-.07-.15-.21-.15-.38v-.52c0-.09.02-.18.05-.25,0,.02,0,.04,0,.06v.77c0,.12.04.23.1.32Z"/>
      <path class="cls-3" d="M10.41,6.66c0,.12-.02.24-.05.35,0,0-.01.01-.02.02-.23.21-.53.34-.86.34-.04,0-.09,0-.13,0-.02,0-.04,0-.06,0,0,0,0,0,0,0-.02,0-.04,0-.06-.01-.57-.12-1-.63-1-1.23,0-.14.02-.27.06-.4.22-.2.52-.32.84-.32.05,0,.1,0,.14,0,.02,0,.04,0,.06,0h0s.04,0,.06.01c.58.11,1.01.62,1.01,1.24Z"/>
      <path class="cls-3" d="M14.08,6.66c0,.12-.02.24-.05.35,0,0-.01.01-.02.02-.23.21-.53.34-.87.34-.04,0-.09,0-.13,0-.02,0-.04,0-.06,0,0,0,0,0,0,0-.02,0-.04,0-.06-.01-.57-.12-1-.63-1-1.23,0-.14.02-.27.06-.4.22-.2.52-.32.84-.32.05,0,.1,0,.14,0,.02,0,.04,0,.06,0h0s.04,0,.06.01c.58.11,1.01.62,1.01,1.24Z"/>
      <path class="cls-3" d="M17.74,6.66c0,.12-.02.24-.05.35,0,0-.01.01-.02.02-.23.21-.53.34-.87.34-.04,0-.09,0-.13,0-.02,0-.04,0-.06,0t0,0s-.04,0-.06-.01c-.02,0-.04,0-.05-.01h0s-.04-.01-.05-.02c-.09-.03-.17-.06-.25-.11-.01,0-.02-.01-.04-.02,0,0-.02-.01-.03-.02-.01,0-.02-.01-.03-.02-.02-.01-.04-.03-.06-.04-.02-.01-.04-.03-.06-.05-.01-.01-.02-.02-.04-.03-.01-.01-.03-.03-.04-.04-.05-.05-.1-.11-.14-.17-.01-.01-.02-.03-.03-.04,0,0,0-.01-.01-.02,0,0,0,0,0,0,0-.01-.02-.03-.02-.04-.02-.03-.03-.06-.05-.1,0-.02-.01-.03-.02-.05-.01-.03-.02-.06-.03-.1-.01-.04-.02-.08-.03-.11-.01-.05-.02-.11-.02-.17,0-.02,0-.04,0-.07,0-.14.02-.27.06-.4.22-.2.52-.32.84-.32.05,0,.1,0,.14,0,.02,0,.04,0,.06,0h0s.07.01.11.02c0,0-.02,0-.03,0,.56.12.98.63.98,1.23Z"/>
      <path class="cls-3" d="M11.6,16.75c-.09-.07-.15-.21-.15-.38v-.52c0-.09.02-.18.05-.25,0,.02,0,.04,0,.06v.77c0,.12.04.23.1.32Z"/>
      <path class="cls-3" d="M26.71,16.76c-.09-.06-.16-.21-.16-.38v-.52c0-.1.02-.18.06-.25,0,.02,0,.04,0,.07v.77c0,.12.04.23.11.32Z"/>
      <path class="cls-3" d="M17.74,6.66c0,.12-.02.24-.05.35,0,0-.01.01-.02.02-.23.21-.53.34-.87.34-.04,0-.09,0-.13,0-.02,0-.04,0-.06,0t0,0s-.04,0-.06-.01c-.02,0-.04,0-.05-.01h0s-.04-.01-.05-.02c-.09-.03-.17-.06-.25-.11-.01,0-.02-.01-.04-.02,0,0-.02-.01-.03-.02-.01,0-.02-.01-.03-.02-.02-.01-.04-.03-.06-.04-.02-.01-.04-.03-.06-.05-.01-.01-.02-.02-.04-.03-.01-.01-.03-.03-.04-.04-.05-.05-.1-.11-.14-.17-.01-.01-.02-.03-.03-.04,0,0,0-.01-.01-.02,0,0,0,0,0,0,0-.01-.02-.03-.02-.04-.02-.03-.03-.06-.05-.1,0-.02-.01-.03-.02-.05-.01-.03-.02-.06-.03-.1-.01-.04-.02-.08-.03-.11-.01-.05-.02-.11-.02-.17,0-.02,0-.04,0-.07,0-.14.02-.27.06-.4.22-.2.52-.32.84-.32.05,0,.1,0,.14,0,.02,0,.04,0,.06,0h0s.07.01.11.02c0,0-.02,0-.03,0,.56.12.98.63.98,1.23Z"/>
      <path class="cls-3" d="M14.08,6.66c0,.12-.02.24-.05.35,0,0-.01.01-.02.02-.23.21-.53.34-.87.34-.04,0-.09,0-.13,0-.02,0-.04,0-.06,0,0,0,0,0,0,0-.02,0-.04,0-.06-.01-.57-.12-1-.63-1-1.23,0-.14.02-.27.06-.4.22-.2.52-.32.84-.32.05,0,.1,0,.14,0,.02,0,.04,0,.06,0h0s.04,0,.06.01c.58.11,1.01.62,1.01,1.24Z"/>
      <path class="cls-3" d="M10.41,6.66c0,.12-.02.24-.05.35,0,0-.01.01-.02.02-.23.21-.53.34-.86.34-.04,0-.09,0-.13,0-.02,0-.04,0-.06,0,0,0,0,0,0,0-.02,0-.04,0-.06-.01-.57-.12-1-.63-1-1.23,0-.14.02-.27.06-.4.22-.2.52-.32.84-.32.05,0,.1,0,.14,0,.02,0,.04,0,.06,0h0s.04,0,.06.01c.58.11,1.01.62,1.01,1.24Z"/>
      <path class="cls-3" d="M31.14,20.57h6.11c.89,0,1.61.72,1.61,1.61v2.84c0,.89-.72,1.61-1.61,1.61h-6.11c-.89,0-1.61-.72-1.61-1.61v-2.84c0-.89.72-1.61,1.61-1.61Z"/>
      <path class="cls-2" d="M26.71,16.76c-.09-.06-.16-.21-.16-.38v-.52c0-.1.02-.18.06-.25,0,.02,0,.04,0,.07v.77c0,.12.04.23.11.32Z"/>
      <path class="cls-2" d="M11.6,16.75c-.09-.07-.15-.21-.15-.38v-.52c0-.09.02-.18.05-.25,0,.02,0,.04,0,.06v.77c0,.12.04.23.1.32Z"/>
      <path class="cls-3" d="M16.04,20.57h6.11c.89,0,1.61.72,1.61,1.61v2.84c0,.89-.72,1.61-1.61,1.61h-6.11c-.89,0-1.61-.72-1.61-1.61v-2.84c0-.89.72-1.61,1.61-1.61Z"/>
      <path class="cls-3" d="M31.14,20.57h6.11c.89,0,1.61.72,1.61,1.61v2.84c0,.89-.72,1.61-1.61,1.61h-6.11c-.89,0-1.61-.72-1.61-1.61v-2.84c0-.89.72-1.61,1.61-1.61Z"/>
      <path class="cls-2" d="M9.4,5.42s-.04,0-.06-.01h0s-.04,0-.06,0c-.05,0-.09,0-.14,0-.32,0-.62.12-.84.32-.04.13-.06.26-.06.4,0,.61.43,1.11,1,1.23.02,0,.04,0,.06.01,0,0,0,0,0,0,.02,0,.04,0,.06,0,.04,0,.09,0,.13,0,.33,0,.64-.13.86-.34,0,0,.01-.01.02-.02.03-.11.05-.23.05-.35,0-.61-.43-1.12-1.01-1.24ZM13.06,5.42s-.04,0-.06-.01h0s-.04,0-.06,0c-.05,0-.09,0-.14,0-.32,0-.62.12-.84.32-.04.13-.06.26-.06.4,0,.61.43,1.11,1,1.23.02,0,.04,0,.06.01,0,0,0,0,0,0,.02,0,.04,0,.06,0,.04,0,.09,0,.13,0,.33,0,.64-.13.87-.34,0,0,.01-.01.02-.02.03-.11.05-.23.05-.35,0-.61-.43-1.12-1.01-1.24ZM16.75,5.43s.02,0,.03,0c-.04,0-.07-.02-.11-.02h0s-.04,0-.06,0c-.05,0-.1,0-.14,0-.32,0-.62.12-.84.32-.04.13-.06.26-.06.4,0,.02,0,.04,0,.07,0,.06,0,.11.02.17,0,.04.02.08.03.11,0,.03.02.06.03.1,0,.02.01.03.02.05.01.03.03.07.05.1,0,.01.02.03.02.04,0,0,0,0,0,0,0,0,0,.01.01.02,0,.01.02.03.03.04.04.06.09.12.14.17.01.01.03.03.04.04.01.01.02.02.04.03.02.02.04.03.06.05.02.01.04.03.06.04,0,0,.02.01.03.02,0,0,.02.01.03.02.01,0,.02.01.04.02.08.05.16.08.25.11.02,0,.04.01.05.02h0s.04,0,.05.01c.02,0,.04,0,.06.01t0,0s.04,0,.06,0c.04,0,.09,0,.13,0,.34,0,.64-.13.87-.34,0,0,.01-.01.02-.02.03-.11.05-.23.05-.35,0-.6-.42-1.1-.98-1.23ZM16.75,5.43s.02,0,.03,0c-.04,0-.07-.02-.11-.02h0s-.04,0-.06,0c-.05,0-.1,0-.14,0-.32,0-.62.12-.84.32-.04.13-.06.26-.06.4,0,.02,0,.04,0,.07,0,.06,0,.11.02.17,0,.04.02.08.03.11,0,.03.02.06.03.1,0,.02.01.03.02.05.01.03.03.07.05.1,0,.01.02.03.02.04,0,0,0,0,0,0,0,0,0,.01.01.02,0,.01.02.03.03.04.04.06.09.12.14.17.01.01.03.03.04.04.01.01.02.02.04.03.02.02.04.03.06.05.02.01.04.03.06.04,0,0,.02.01.03.02,0,0,.02.01.03.02.01,0,.02.01.04.02.08.05.16.08.25.11.02,0,.04.01.05.02h0s.04,0,.05.01c.02,0,.04,0,.06.01t0,0s.04,0,.06,0c.04,0,.09,0,.13,0,.34,0,.64-.13.87-.34,0,0,.01-.01.02-.02.03-.11.05-.23.05-.35,0-.6-.42-1.1-.98-1.23ZM13.06,5.42s-.04,0-.06-.01h0s-.04,0-.06,0c-.05,0-.09,0-.14,0-.32,0-.62.12-.84.32-.04.13-.06.26-.06.4,0,.61.43,1.11,1,1.23.02,0,.04,0,.06.01,0,0,0,0,0,0,.02,0,.04,0,.06,0,.04,0,.09,0,.13,0,.33,0,.64-.13.87-.34,0,0,.01-.01.02-.02.03-.11.05-.23.05-.35,0-.61-.43-1.12-1.01-1.24ZM9.4,5.42s-.04,0-.06-.01h0s-.04,0-.06,0c-.05,0-.09,0-.14,0-.32,0-.62.12-.84.32-.04.13-.06.26-.06.4,0,.61.43,1.11,1,1.23.02,0,.04,0,.06.01,0,0,0,0,0,0,.02,0,.04,0,.06,0,.04,0,.09,0,.13,0,.33,0,.64-.13.86-.34,0,0,.01-.01.02-.02.03-.11.05-.23.05-.35,0-.61-.43-1.12-1.01-1.24ZM9.4,5.42s-.04,0-.06-.01h0s-.04,0-.06,0c-.05,0-.09,0-.14,0-.32,0-.62.12-.84.32-.04.13-.06.26-.06.4,0,.61.43,1.11,1,1.23.02,0,.04,0,.06.01,0,0,0,0,0,0,.02,0,.04,0,.06,0,.04,0,.09,0,.13,0,.33,0,.64-.13.86-.34,0,0,.01-.01.02-.02.03-.11.05-.23.05-.35,0-.61-.43-1.12-1.01-1.24ZM13.06,5.42s-.04,0-.06-.01h0s-.04,0-.06,0c-.05,0-.09,0-.14,0-.32,0-.62.12-.84.32-.04.13-.06.26-.06.4,0,.61.43,1.11,1,1.23.02,0,.04,0,.06.01,0,0,0,0,0,0,.02,0,.04,0,.06,0,.04,0,.09,0,.13,0,.33,0,.64-.13.87-.34,0,0,.01-.01.02-.02.03-.11.05-.23.05-.35,0-.61-.43-1.12-1.01-1.24ZM16.75,5.43s.02,0,.03,0c-.04,0-.07-.02-.11-.02h0s-.04,0-.06,0c-.05,0-.1,0-.14,0-.32,0-.62.12-.84.32-.04.13-.06.26-.06.4,0,.02,0,.04,0,.07,0,.06,0,.11.02.17,0,.04.02.08.03.11,0,.03.02.06.03.1,0,.02.01.03.02.05.01.03.03.07.05.1,0,.01.02.03.02.04,0,0,0,0,0,0,0,0,0,.01.01.02,0,.01.02.03.03.04.04.06.09.12.14.17.01.01.03.03.04.04.01.01.02.02.04.03.02.02.04.03.06.05.02.01.04.03.06.04,0,0,.02.01.03.02,0,0,.02.01.03.02.01,0,.02.01.04.02.08.05.16.08.25.11.02,0,.04.01.05.02h0s.04,0,.05.01c.02,0,.04,0,.06.01t0,0s.04,0,.06,0c.04,0,.09,0,.13,0,.34,0,.64-.13.87-.34,0,0,.01-.01.02-.02.03-.11.05-.23.05-.35,0-.6-.42-1.1-.98-1.23ZM16.75,5.43s.02,0,.03,0c-.04,0-.07-.02-.11-.02h0s-.04,0-.06,0c-.05,0-.1,0-.14,0-.32,0-.62.12-.84.32-.04.13-.06.26-.06.4,0,.02,0,.04,0,.07,0,.06,0,.11.02.17,0,.04.02.08.03.11,0,.03.02.06.03.1,0,.02.01.03.02.05.01.03.03.07.05.1,0,.01.02.03.02.04,0,0,0,0,0,0,0,0,0,.01.01.02,0,.01.02.03.03.04.04.06.09.12.14.17.01.01.03.03.04.04.01.01.02.02.04.03.02.02.04.03.06.05.02.01.04.03.06.04,0,0,.02.01.03.02,0,0,.02.01.03.02.01,0,.02.01.04.02.08.05.16.08.25.11.02,0,.04.01.05.02h0s.04,0,.05.01c.02,0,.04,0,.06.01t0,0s.04,0,.06,0c.04,0,.09,0,.13,0,.34,0,.64-.13.87-.34,0,0,.01-.01.02-.02.03-.11.05-.23.05-.35,0-.6-.42-1.1-.98-1.23ZM13.06,5.42s-.04,0-.06-.01h0s-.04,0-.06,0c-.05,0-.09,0-.14,0-.32,0-.62.12-.84.32-.04.13-.06.26-.06.4,0,.61.43,1.11,1,1.23.02,0,.04,0,.06.01,0,0,0,0,0,0,.02,0,.04,0,.06,0,.04,0,.09,0,.13,0,.33,0,.64-.13.87-.34,0,0,.01-.01.02-.02.03-.11.05-.23.05-.35,0-.61-.43-1.12-1.01-1.24ZM9.4,5.42s-.04,0-.06-.01h0s-.04,0-.06,0c-.05,0-.09,0-.14,0-.32,0-.62.12-.84.32-.04.13-.06.26-.06.4,0,.61.43,1.11,1,1.23.02,0,.04,0,.06.01,0,0,0,0,0,0,.02,0,.04,0,.06,0,.04,0,.09,0,.13,0,.33,0,.64-.13.86-.34,0,0,.01-.01.02-.02.03-.11.05-.23.05-.35,0-.61-.43-1.12-1.01-1.24ZM9.4,5.42s-.04,0-.06-.01h0s-.04,0-.06,0c-.05,0-.09,0-.14,0-.32,0-.62.12-.84.32-.04.13-.06.26-.06.4,0,.61.43,1.11,1,1.23.02,0,.04,0,.06.01,0,0,0,0,0,0,.02,0,.04,0,.06,0,.04,0,.09,0,.13,0,.33,0,.64-.13.86-.34,0,0,.01-.01.02-.02.03-.11.05-.23.05-.35,0-.61-.43-1.12-1.01-1.24ZM13.06,5.42s-.04,0-.06-.01h0s-.04,0-.06,0c-.05,0-.09,0-.14,0-.32,0-.62.12-.84.32-.04.13-.06.26-.06.4,0,.61.43,1.11,1,1.23.02,0,.04,0,.06.01,0,0,0,0,0,0,.02,0,.04,0,.06,0,.04,0,.09,0,.13,0,.33,0,.64-.13.87-.34,0,0,.01-.01.02-.02.03-.11.05-.23.05-.35,0-.61-.43-1.12-1.01-1.24ZM16.75,5.43s.02,0,.03,0c-.04,0-.07-.02-.11-.02h0s-.04,0-.06,0c-.05,0-.1,0-.14,0-.32,0-.62.12-.84.32-.04.13-.06.26-.06.4,0,.02,0,.04,0,.07,0,.06,0,.11.02.17,0,.04.02.08.03.11,0,.03.02.06.03.1,0,.02.01.03.02.05.01.03.03.07.05.1,0,.01.02.03.02.04,0,0,0,0,0,0,0,0,0,.01.01.02,0,.01.02.03.03.04.04.06.09.12.14.17.01.01.03.03.04.04.01.01.02.02.04.03.02.02.04.03.06.05.02.01.04.03.06.04,0,0,.02.01.03.02,0,0,.02.01.03.02.01,0,.02.01.04.02.08.05.16.08.25.11.02,0,.04.01.05.02h0s.04,0,.05.01c.02,0,.04,0,.06.01t0,0s.04,0,.06,0c.04,0,.09,0,.13,0,.34,0,.64-.13.87-.34,0,0,.01-.01.02-.02.03-.11.05-.23.05-.35,0-.6-.42-1.1-.98-1.23ZM16.75,5.43s.02,0,.03,0c-.04,0-.07-.02-.11-.02h0s-.04,0-.06,0c-.05,0-.1,0-.14,0-.32,0-.62.12-.84.32-.04.13-.06.26-.06.4,0,.02,0,.04,0,.07,0,.06,0,.11.02.17,0,.04.02.08.03.11,0,.03.02.06.03.1,0,.02.01.03.02.05.01.03.03.07.05.1,0,.01.02.03.02.04,0,0,0,0,0,0,0,0,0,.01.01.02,0,.01.02.03.03.04.04.06.09.12.14.17.01.01.03.03.04.04.01.01.02.02.04.03.02.02.04.03.06.05.02.01.04.03.06.04,0,0,.02.01.03.02,0,0,.02.01.03.02.01,0,.02.01.04.02.08.05.16.08.25.11.02,0,.04.01.05.02h0s.04,0,.05.01c.02,0,.04,0,.06.01t0,0s.04,0,.06,0c.04,0,.09,0,.13,0,.34,0,.64-.13.87-.34,0,0,.01-.01.02-.02.03-.11.05-.23.05-.35,0-.6-.42-1.1-.98-1.23ZM13.06,5.42s-.04,0-.06-.01h0s-.04,0-.06,0c-.05,0-.09,0-.14,0-.32,0-.62.12-.84.32-.04.13-.06.26-.06.4,0,.61.43,1.11,1,1.23.02,0,.04,0,.06.01,0,0,0,0,0,0,.02,0,.04,0,.06,0,.04,0,.09,0,.13,0,.33,0,.64-.13.87-.34,0,0,.01-.01.02-.02.03-.11.05-.23.05-.35,0-.61-.43-1.12-1.01-1.24ZM9.4,5.42s-.04,0-.06-.01h0s-.04,0-.06,0c-.05,0-.09,0-.14,0-.32,0-.62.12-.84.32-.04.13-.06.26-.06.4,0,.61.43,1.11,1,1.23.02,0,.04,0,.06.01,0,0,0,0,0,0,.02,0,.04,0,.06,0,.04,0,.09,0,.13,0,.33,0,.64-.13.86-.34,0,0,.01-.01.02-.02.03-.11.05-.23.05-.35,0-.61-.43-1.12-1.01-1.24ZM9.4,5.42s-.04,0-.06-.01h0s-.04,0-.06,0c-.05,0-.09,0-.14,0-.32,0-.62.12-.84.32-.04.13-.06.26-.06.4,0,.61.43,1.11,1,1.23.02,0,.04,0,.06.01,0,0,0,0,0,0,.02,0,.04,0,.06,0,.04,0,.09,0,.13,0,.33,0,.64-.13.86-.34,0,0,.01-.01.02-.02.03-.11.05-.23.05-.35,0-.61-.43-1.12-1.01-1.24ZM13.06,5.42s-.04,0-.06-.01h0s-.04,0-.06,0c-.05,0-.09,0-.14,0-.32,0-.62.12-.84.32-.04.13-.06.26-.06.4,0,.61.43,1.11,1,1.23.02,0,.04,0,.06.01,0,0,0,0,0,0,.02,0,.04,0,.06,0,.04,0,.09,0,.13,0,.33,0,.64-.13.87-.34,0,0,.01-.01.02-.02.03-.11.05-.23.05-.35,0-.61-.43-1.12-1.01-1.24ZM16.75,5.43s.02,0,.03,0c-.04,0-.07-.02-.11-.02h0s-.04,0-.06,0c-.05,0-.1,0-.14,0-.32,0-.62.12-.84.32-.04.13-.06.26-.06.4,0,.02,0,.04,0,.07,0,.06,0,.11.02.17,0,.04.02.08.03.11,0,.03.02.06.03.1,0,.02.01.03.02.05.01.03.03.07.05.1,0,.01.02.03.02.04,0,0,0,0,0,0,0,0,0,.01.01.02,0,.01.02.03.03.04.04.06.09.12.14.17.01.01.03.03.04.04.01.01.02.02.04.03.02.02.04.03.06.05.02.01.04.03.06.04,0,0,.02.01.03.02,0,0,.02.01.03.02.01,0,.02.01.04.02.08.05.16.08.25.11.02,0,.04.01.05.02h0s.04,0,.05.01c.02,0,.04,0,.06.01t0,0s.04,0,.06,0c.04,0,.09,0,.13,0,.34,0,.64-.13.87-.34,0,0,.01-.01.02-.02.03-.11.05-.23.05-.35,0-.6-.42-1.1-.98-1.23ZM16.75,5.43s.02,0,.03,0c-.04,0-.07-.02-.11-.02h0s-.04,0-.06,0c-.05,0-.1,0-.14,0-.32,0-.62.12-.84.32-.04.13-.06.26-.06.4,0,.02,0,.04,0,.07,0,.06,0,.11.02.17,0,.04.02.08.03.11,0,.03.02.06.03.1,0,.02.01.03.02.05.01.03.03.07.05.1,0,.01.02.03.02.04,0,0,0,0,0,0,0,0,0,.01.01.02,0,.01.02.03.03.04.04.06.09.12.14.17.01.01.03.03.04.04.01.01.02.02.04.03.02.02.04.03.06.05.02.01.04.03.06.04,0,0,.02.01.03.02,0,0,.02.01.03.02.01,0,.02.01.04.02.08.05.16.08.25.11.02,0,.04.01.05.02h0s.04,0,.05.01c.02,0,.04,0,.06.01t0,0s.04,0,.06,0c.04,0,.09,0,.13,0,.34,0,.64-.13.87-.34,0,0,.01-.01.02-.02.03-.11.05-.23.05-.35,0-.6-.42-1.1-.98-1.23ZM13.06,5.42s-.04,0-.06-.01h0s-.04,0-.06,0c-.05,0-.09,0-.14,0-.32,0-.62.12-.84.32-.04.13-.06.26-.06.4,0,.61.43,1.11,1,1.23.02,0,.04,0,.06.01,0,0,0,0,0,0,.02,0,.04,0,.06,0,.04,0,.09,0,.13,0,.33,0,.64-.13.87-.34,0,0,.01-.01.02-.02.03-.11.05-.23.05-.35,0-.61-.43-1.12-1.01-1.24ZM9.4,5.42s-.04,0-.06-.01h0s-.04,0-.06,0c-.05,0-.09,0-.14,0-.32,0-.62.12-.84.32-.04.13-.06.26-.06.4,0,.61.43,1.11,1,1.23.02,0,.04,0,.06.01,0,0,0,0,0,0,.02,0,.04,0,.06,0,.04,0,.09,0,.13,0,.33,0,.64-.13.86-.34,0,0,.01-.01.02-.02.03-.11.05-.23.05-.35,0-.61-.43-1.12-1.01-1.24ZM9.4,5.42s-.04,0-.06-.01h0s-.04,0-.06,0c-.05,0-.09,0-.14,0-.32,0-.62.12-.84.32-.04.13-.06.26-.06.4,0,.61.43,1.11,1,1.23.02,0,.04,0,.06.01,0,0,0,0,0,0,.02,0,.04,0,.06,0,.04,0,.09,0,.13,0,.33,0,.64-.13.86-.34,0,0,.01-.01.02-.02.03-.11.05-.23.05-.35,0-.61-.43-1.12-1.01-1.24ZM13.06,5.42s-.04,0-.06-.01h0s-.04,0-.06,0c-.05,0-.09,0-.14,0-.32,0-.62.12-.84.32-.04.13-.06.26-.06.4,0,.61.43,1.11,1,1.23.02,0,.04,0,.06.01,0,0,0,0,0,0,.02,0,.04,0,.06,0,.04,0,.09,0,.13,0,.33,0,.64-.13.87-.34,0,0,.01-.01.02-.02.03-.11.05-.23.05-.35,0-.61-.43-1.12-1.01-1.24ZM16.75,5.43s.02,0,.03,0c-.04,0-.07-.02-.11-.02h0s-.04,0-.06,0c-.05,0-.1,0-.14,0-.32,0-.62.12-.84.32-.04.13-.06.26-.06.4,0,.02,0,.04,0,.07,0,.06,0,.11.02.17,0,.04.02.08.03.11,0,.03.02.06.03.1,0,.02.01.03.02.05.01.03.03.07.05.1,0,.01.02.03.02.04,0,0,0,0,0,0,0,0,0,.01.01.02,0,.01.02.03.03.04.04.06.09.12.14.17.01.01.03.03.04.04.01.01.02.02.04.03.02.02.04.03.06.05.02.01.04.03.06.04,0,0,.02.01.03.02,0,0,.02.01.03.02.01,0,.02.01.04.02.08.05.16.08.25.11.02,0,.04.01.05.02h0s.04,0,.05.01c.02,0,.04,0,.06.01t0,0s.04,0,.06,0c.04,0,.09,0,.13,0,.34,0,.64-.13.87-.34,0,0,.01-.01.02-.02.03-.11.05-.23.05-.35,0-.6-.42-1.1-.98-1.23ZM16.75,5.43s.02,0,.03,0c-.04,0-.07-.02-.11-.02h0s-.04,0-.06,0c-.05,0-.1,0-.14,0-.32,0-.62.12-.84.32-.04.13-.06.26-.06.4,0,.02,0,.04,0,.07,0,.06,0,.11.02.17,0,.04.02.08.03.11,0,.03.02.06.03.1,0,.02.01.03.02.05.01.03.03.07.05.1,0,.01.02.03.02.04,0,0,0,0,0,0,0,0,0,.01.01.02,0,.01.02.03.03.04.04.06.09.12.14.17.01.01.03.03.04.04.01.01.02.02.04.03.02.02.04.03.06.05.02.01.04.03.06.04,0,0,.02.01.03.02,0,0,.02.01.03.02.01,0,.02.01.04.02.08.05.16.08.25.11.02,0,.04.01.05.02h0s.04,0,.05.01c.02,0,.04,0,.06.01t0,0s.04,0,.06,0c.04,0,.09,0,.13,0,.34,0,.64-.13.87-.34,0,0,.01-.01.02-.02.03-.11.05-.23.05-.35,0-.6-.42-1.1-.98-1.23ZM13.06,5.42s-.04,0-.06-.01h0s-.04,0-.06,0c-.05,0-.09,0-.14,0-.32,0-.62.12-.84.32-.04.13-.06.26-.06.4,0,.61.43,1.11,1,1.23.02,0,.04,0,.06.01,0,0,0,0,0,0,.02,0,.04,0,.06,0,.04,0,.09,0,.13,0,.33,0,.64-.13.87-.34,0,0,.01-.01.02-.02.03-.11.05-.23.05-.35,0-.61-.43-1.12-1.01-1.24ZM9.4,5.42s-.04,0-.06-.01h0s-.04,0-.06,0c-.05,0-.09,0-.14,0-.32,0-.62.12-.84.32-.04.13-.06.26-.06.4,0,.61.43,1.11,1,1.23.02,0,.04,0,.06.01,0,0,0,0,0,0,.02,0,.04,0,.06,0,.04,0,.09,0,.13,0,.33,0,.64-.13.86-.34,0,0,.01-.01.02-.02.03-.11.05-.23.05-.35,0-.61-.43-1.12-1.01-1.24ZM9.4,5.42s-.04,0-.06-.01h0s-.04,0-.06,0c-.05,0-.09,0-.14,0-.32,0-.62.12-.84.32-.04.13-.06.26-.06.4,0,.61.43,1.11,1,1.23.02,0,.04,0,.06.01,0,0,0,0,0,0,.02,0,.04,0,.06,0,.04,0,.09,0,.13,0,.33,0,.64-.13.86-.34,0,0,.01-.01.02-.02.03-.11.05-.23.05-.35,0-.61-.43-1.12-1.01-1.24ZM13.06,5.42s-.04,0-.06-.01h0s-.04,0-.06,0c-.05,0-.09,0-.14,0-.32,0-.62.12-.84.32-.04.13-.06.26-.06.4,0,.61.43,1.11,1,1.23.02,0,.04,0,.06.01,0,0,0,0,0,0,.02,0,.04,0,.06,0,.04,0,.09,0,.13,0,.33,0,.64-.13.87-.34,0,0,.01-.01.02-.02.03-.11.05-.23.05-.35,0-.61-.43-1.12-1.01-1.24ZM16.75,5.43s.02,0,.03,0c-.04,0-.07-.02-.11-.02h0s-.04,0-.06,0c-.05,0-.1,0-.14,0-.32,0-.62.12-.84.32-.04.13-.06.26-.06.4,0,.02,0,.04,0,.07,0,.06,0,.11.02.17,0,.04.02.08.03.11,0,.03.02.06.03.1,0,.02.01.03.02.05.01.03.03.07.05.1,0,.01.02.03.02.04,0,0,0,0,0,0,0,0,0,.01.01.02,0,.01.02.03.03.04.04.06.09.12.14.17.01.01.03.03.04.04.01.01.02.02.04.03.02.02.04.03.06.05.02.01.04.03.06.04,0,0,.02.01.03.02,0,0,.02.01.03.02.01,0,.02.01.04.02.08.05.16.08.25.11.02,0,.04.01.05.02h0s.04,0,.05.01c.02,0,.04,0,.06.01t0,0s.04,0,.06,0c.04,0,.09,0,.13,0,.34,0,.64-.13.87-.34,0,0,.01-.01.02-.02.03-.11.05-.23.05-.35,0-.6-.42-1.1-.98-1.23ZM16.75,5.43s.02,0,.03,0c-.04,0-.07-.02-.11-.02h0s-.04,0-.06,0c-.05,0-.1,0-.14,0-.32,0-.62.12-.84.32-.04.13-.06.26-.06.4,0,.02,0,.04,0,.07,0,.06,0,.11.02.17,0,.04.02.08.03.11,0,.03.02.06.03.1,0,.02.01.03.02.05.01.03.03.07.05.1,0,.01.02.03.02.04,0,0,0,0,0,0,0,0,0,.01.01.02,0,.01.02.03.03.04.04.06.09.12.14.17.01.01.03.03.04.04.01.01.02.02.04.03.02.02.04.03.06.05.02.01.04.03.06.04,0,0,.02.01.03.02,0,0,.02.01.03.02.01,0,.02.01.04.02.08.05.16.08.25.11.02,0,.04.01.05.02h0s.04,0,.05.01c.02,0,.04,0,.06.01t0,0s.04,0,.06,0c.04,0,.09,0,.13,0,.34,0,.64-.13.87-.34,0,0,.01-.01.02-.02.03-.11.05-.23.05-.35,0-.6-.42-1.1-.98-1.23ZM13.06,5.42s-.04,0-.06-.01h0s-.04,0-.06,0c-.05,0-.09,0-.14,0-.32,0-.62.12-.84.32-.04.13-.06.26-.06.4,0,.61.43,1.11,1,1.23.02,0,.04,0,.06.01,0,0,0,0,0,0,.02,0,.04,0,.06,0,.04,0,.09,0,.13,0,.33,0,.64-.13.87-.34,0,0,.01-.01.02-.02.03-.11.05-.23.05-.35,0-.61-.43-1.12-1.01-1.24ZM9.4,5.42s-.04,0-.06-.01h0s-.04,0-.06,0c-.05,0-.09,0-.14,0-.32,0-.62.12-.84.32-.04.13-.06.26-.06.4,0,.61.43,1.11,1,1.23.02,0,.04,0,.06.01,0,0,0,0,0,0,.02,0,.04,0,.06,0,.04,0,.09,0,.13,0,.33,0,.64-.13.86-.34,0,0,.01-.01.02-.02.03-.11.05-.23.05-.35,0-.61-.43-1.12-1.01-1.24ZM9.4,5.42s-.04,0-.06-.01h0s-.04,0-.06,0c-.05,0-.09,0-.14,0-.32,0-.62.12-.84.32-.04.13-.06.26-.06.4,0,.61.43,1.11,1,1.23.02,0,.04,0,.06.01,0,0,0,0,0,0,.02,0,.04,0,.06,0,.04,0,.09,0,.13,0,.33,0,.64-.13.86-.34,0,0,.01-.01.02-.02.03-.11.05-.23.05-.35,0-.61-.43-1.12-1.01-1.24ZM13.06,5.42s-.04,0-.06-.01h0s-.04,0-.06,0c-.05,0-.09,0-.14,0-.32,0-.62.12-.84.32-.04.13-.06.26-.06.4,0,.61.43,1.11,1,1.23.02,0,.04,0,.06.01,0,0,0,0,0,0,.02,0,.04,0,.06,0,.04,0,.09,0,.13,0,.33,0,.64-.13.87-.34,0,0,.01-.01.02-.02.03-.11.05-.23.05-.35,0-.61-.43-1.12-1.01-1.24ZM16.75,5.43s.02,0,.03,0c-.04,0-.07-.02-.11-.02h0s-.04,0-.06,0c-.05,0-.1,0-.14,0-.32,0-.62.12-.84.32-.04.13-.06.26-.06.4,0,.02,0,.04,0,.07,0,.06,0,.11.02.17,0,.04.02.08.03.11,0,.03.02.06.03.1,0,.02.01.03.02.05.01.03.03.07.05.1,0,.01.02.03.02.04,0,0,0,0,0,0,0,0,0,.01.01.02,0,.01.02.03.03.04.04.06.09.12.14.17.01.01.03.03.04.04.01.01.02.02.04.03.02.02.04.03.06.05.02.01.04.03.06.04,0,0,.02.01.03.02,0,0,.02.01.03.02.01,0,.02.01.04.02.08.05.16.08.25.11.02,0,.04.01.05.02h0s.04,0,.05.01c.02,0,.04,0,.06.01t0,0s.04,0,.06,0c.04,0,.09,0,.13,0,.34,0,.64-.13.87-.34,0,0,.01-.01.02-.02.03-.11.05-.23.05-.35,0-.6-.42-1.1-.98-1.23ZM16.75,5.43s.02,0,.03,0c-.04,0-.07-.02-.11-.02h0s-.04,0-.06,0c-.05,0-.1,0-.14,0-.32,0-.62.12-.84.32-.04.13-.06.26-.06.4,0,.02,0,.04,0,.07,0,.06,0,.11.02.17,0,.04.02.08.03.11,0,.03.02.06.03.1,0,.02.01.03.02.05.01.03.03.07.05.1,0,.01.02.03.02.04,0,0,0,0,0,0,0,0,0,.01.01.02,0,.01.02.03.03.04.04.06.09.12.14.17.01.01.03.03.04.04.01.01.02.02.04.03.02.02.04.03.06.05.02.01.04.03.06.04,0,0,.02.01.03.02,0,0,.02.01.03.02.01,0,.02.01.04.02.08.05.16.08.25.11.02,0,.04.01.05.02h0s.04,0,.05.01c.02,0,.04,0,.06.01t0,0s.04,0,.06,0c.04,0,.09,0,.13,0,.34,0,.64-.13.87-.34,0,0,.01-.01.02-.02.03-.11.05-.23.05-.35,0-.6-.42-1.1-.98-1.23ZM13.06,5.42s-.04,0-.06-.01h0s-.04,0-.06,0c-.05,0-.09,0-.14,0-.32,0-.62.12-.84.32-.04.13-.06.26-.06.4,0,.61.43,1.11,1,1.23.02,0,.04,0,.06.01,0,0,0,0,0,0,.02,0,.04,0,.06,0,.04,0,.09,0,.13,0,.33,0,.64-.13.87-.34,0,0,.01-.01.02-.02.03-.11.05-.23.05-.35,0-.61-.43-1.12-1.01-1.24ZM9.4,5.42s-.04,0-.06-.01h0s-.04,0-.06,0c-.05,0-.09,0-.14,0-.32,0-.62.12-.84.32-.04.13-.06.26-.06.4,0,.61.43,1.11,1,1.23.02,0,.04,0,.06.01,0,0,0,0,0,0,.02,0,.04,0,.06,0,.04,0,.09,0,.13,0,.33,0,.64-.13.86-.34,0,0,.01-.01.02-.02.03-.11.05-.23.05-.35,0-.61-.43-1.12-1.01-1.24ZM42.91,0H5.5C2.46,0,0,2.23,0,4.99v33.91c0,2.76,2.46,4.99,5.5,4.99h2.92c.42,0,.76.34.76.76v4.99c0,.93,1.24,1.4,1.97.74l6.62-5.99c.35-.32.82-.5,1.29-.5h23.84c3.04,0,5.5-2.23,5.5-4.99V4.99c0-2.76-2.46-4.99-5.5-4.99ZM31.93,40.44h-15.41c-.68,0-1.33-.32-1.78-.84-.44-.52-.72-1.23-.72-2.02,0-1.58,1.1-2.87,2.45-2.87h15.45c1.35,0,2.45,1.28,2.45,2.87s-1.1,2.86-2.45,2.86ZM42.34,30.37c0,.79-.64,1.43-1.43,1.43H7.67c-.79,0-1.43-.64-1.43-1.43V12.99c0-.79.64-1.43,1.43-1.43h33.24c.79,0,1.43.64,1.43,1.43v17.38ZM42.36,7.83c0,.44-.28.8-.63.8H6.62c-.35,0-.63-.36-.63-.8v-2.66c0-1,.63-1.81,1.42-1.81h33.53c.78,0,1.42.81,1.42,1.81v2.66ZM16.75,5.43s.02,0,.03,0c-.04,0-.07-.02-.11-.02h0s-.04,0-.06,0c-.05,0-.1,0-.14,0-.32,0-.62.12-.84.32-.04.13-.06.26-.06.4,0,.02,0,.04,0,.07,0,.06,0,.11.02.17,0,.04.02.08.03.11,0,.03.02.06.03.1,0,.02.01.03.02.05.01.03.03.07.05.1,0,.01.02.03.02.04,0,0,0,0,0,0,0,0,0,.01.01.02,0,.01.02.03.03.04.04.06.09.12.14.17.01.01.03.03.04.04.01.01.02.02.04.03.02.02.04.03.06.05.02.01.04.03.06.04,0,0,.02.01.03.02,0,0,.02.01.03.02.01,0,.02.01.04.02.08.05.16.08.25.11.02,0,.04.01.05.02h0s.04,0,.05.01c.02,0,.04,0,.06.01t0,0s.04,0,.06,0c.04,0,.09,0,.13,0,.34,0,.64-.13.87-.34,0,0,.01-.01.02-.02.03-.11.05-.23.05-.35,0-.6-.42-1.1-.98-1.23ZM13.06,5.42s-.04,0-.06-.01h0s-.04,0-.06,0c-.05,0-.09,0-.14,0-.32,0-.62.12-.84.32-.04.13-.06.26-.06.4,0,.61.43,1.11,1,1.23.02,0,.04,0,.06.01,0,0,0,0,0,0,.02,0,.04,0,.06,0,.04,0,.09,0,.13,0,.33,0,.64-.13.87-.34,0,0,.01-.01.02-.02.03-.11.05-.23.05-.35,0-.61-.43-1.12-1.01-1.24ZM9.4,5.42s-.04,0-.06-.01h0s-.04,0-.06,0c-.05,0-.09,0-.14,0-.32,0-.62.12-.84.32-.04.13-.06.26-.06.4,0,.61.43,1.11,1,1.23.02,0,.04,0,.06.01,0,0,0,0,0,0,.02,0,.04,0,.06,0,.04,0,.09,0,.13,0,.33,0,.64-.13.86-.34,0,0,.01-.01.02-.02.03-.11.05-.23.05-.35,0-.61-.43-1.12-1.01-1.24ZM9.4,5.42s-.04,0-.06-.01h0s-.04,0-.06,0c-.05,0-.09,0-.14,0-.32,0-.62.12-.84.32-.04.13-.06.26-.06.4,0,.61.43,1.11,1,1.23.02,0,.04,0,.06.01,0,0,0,0,0,0,.02,0,.04,0,.06,0,.04,0,.09,0,.13,0,.33,0,.64-.13.86-.34,0,0,.01-.01.02-.02.03-.11.05-.23.05-.35,0-.61-.43-1.12-1.01-1.24ZM13.06,5.42s-.04,0-.06-.01h0s-.04,0-.06,0c-.05,0-.09,0-.14,0-.32,0-.62.12-.84.32-.04.13-.06.26-.06.4,0,.61.43,1.11,1,1.23.02,0,.04,0,.06.01,0,0,0,0,0,0,.02,0,.04,0,.06,0,.04,0,.09,0,.13,0,.33,0,.64-.13.87-.34,0,0,.01-.01.02-.02.03-.11.05-.23.05-.35,0-.61-.43-1.12-1.01-1.24ZM16.75,5.43s.02,0,.03,0c-.04,0-.07-.02-.11-.02h0s-.04,0-.06,0c-.05,0-.1,0-.14,0-.32,0-.62.12-.84.32-.04.13-.06.26-.06.4,0,.02,0,.04,0,.07,0,.06,0,.11.02.17,0,.04.02.08.03.11,0,.03.02.06.03.1,0,.02.01.03.02.05.01.03.03.07.05.1,0,.01.02.03.02.04,0,0,0,0,0,0,0,0,0,.01.01.02,0,.01.02.03.03.04.04.06.09.12.14.17.01.01.03.03.04.04.01.01.02.02.04.03.02.02.04.03.06.05.02.01.04.03.06.04,0,0,.02.01.03.02,0,0,.02.01.03.02.01,0,.02.01.04.02.08.05.16.08.25.11.02,0,.04.01.05.02h0s.04,0,.05.01c.02,0,.04,0,.06.01t0,0s.04,0,.06,0c.04,0,.09,0,.13,0,.34,0,.64-.13.87-.34,0,0,.01-.01.02-.02.03-.11.05-.23.05-.35,0-.6-.42-1.1-.98-1.23ZM16.75,5.43s.02,0,.03,0c-.04,0-.07-.02-.11-.02h0s-.04,0-.06,0c-.05,0-.1,0-.14,0-.32,0-.62.12-.84.32-.04.13-.06.26-.06.4,0,.02,0,.04,0,.07,0,.06,0,.11.02.17,0,.04.02.08.03.11,0,.03.02.06.03.1,0,.02.01.03.02.05.01.03.03.07.05.1,0,.01.02.03.02.04,0,0,0,0,0,0,0,0,0,.01.01.02,0,.01.02.03.03.04.04.06.09.12.14.17.01.01.03.03.04.04.01.01.02.02.04.03.02.02.04.03.06.05.02.01.04.03.06.04,0,0,.02.01.03.02,0,0,.02.01.03.02.01,0,.02.01.04.02.08.05.16.08.25.11.02,0,.04.01.05.02h0s.04,0,.05.01c.02,0,.04,0,.06.01t0,0s.04,0,.06,0c.04,0,.09,0,.13,0,.34,0,.64-.13.87-.34,0,0,.01-.01.02-.02.03-.11.05-.23.05-.35,0-.6-.42-1.1-.98-1.23ZM13.06,5.42s-.04,0-.06-.01h0s-.04,0-.06,0c-.05,0-.09,0-.14,0-.32,0-.62.12-.84.32-.04.13-.06.26-.06.4,0,.61.43,1.11,1,1.23.02,0,.04,0,.06.01,0,0,0,0,0,0,.02,0,.04,0,.06,0,.04,0,.09,0,.13,0,.33,0,.64-.13.87-.34,0,0,.01-.01.02-.02.03-.11.05-.23.05-.35,0-.61-.43-1.12-1.01-1.24ZM9.4,5.42s-.04,0-.06-.01h0s-.04,0-.06,0c-.05,0-.09,0-.14,0-.32,0-.62.12-.84.32-.04.13-.06.26-.06.4,0,.61.43,1.11,1,1.23.02,0,.04,0,.06.01,0,0,0,0,0,0,.02,0,.04,0,.06,0,.04,0,.09,0,.13,0,.33,0,.64-.13.86-.34,0,0,.01-.01.02-.02.03-.11.05-.23.05-.35,0-.61-.43-1.12-1.01-1.24ZM9.4,5.42s-.04,0-.06-.01h0s-.04,0-.06,0c-.05,0-.09,0-.14,0-.32,0-.62.12-.84.32-.04.13-.06.26-.06.4,0,.61.43,1.11,1,1.23.02,0,.04,0,.06.01,0,0,0,0,0,0,.02,0,.04,0,.06,0,.04,0,.09,0,.13,0,.33,0,.64-.13.86-.34,0,0,.01-.01.02-.02.03-.11.05-.23.05-.35,0-.61-.43-1.12-1.01-1.24ZM13.06,5.42s-.04,0-.06-.01h0s-.04,0-.06,0c-.05,0-.09,0-.14,0-.32,0-.62.12-.84.32-.04.13-.06.26-.06.4,0,.61.43,1.11,1,1.23.02,0,.04,0,.06.01,0,0,0,0,0,0,.02,0,.04,0,.06,0,.04,0,.09,0,.13,0,.33,0,.64-.13.87-.34,0,0,.01-.01.02-.02.03-.11.05-.23.05-.35,0-.61-.43-1.12-1.01-1.24ZM16.75,5.43s.02,0,.03,0c-.04,0-.07-.02-.11-.02h0s-.04,0-.06,0c-.05,0-.1,0-.14,0-.32,0-.62.12-.84.32-.04.13-.06.26-.06.4,0,.02,0,.04,0,.07,0,.06,0,.11.02.17,0,.04.02.08.03.11,0,.03.02.06.03.1,0,.02.01.03.02.05.01.03.03.07.05.1,0,.01.02.03.02.04,0,0,0,0,0,0,0,0,0,.01.01.02,0,.01.02.03.03.04.04.06.09.12.14.17.01.01.03.03.04.04.01.01.02.02.04.03.02.02.04.03.06.05.02.01.04.03.06.04,0,0,.02.01.03.02,0,0,.02.01.03.02.01,0,.02.01.04.02.08.05.16.08.25.11.02,0,.04.01.05.02h0s.04,0,.05.01c.02,0,.04,0,.06.01t0,0s.04,0,.06,0c.04,0,.09,0,.13,0,.34,0,.64-.13.87-.34,0,0,.01-.01.02-.02.03-.11.05-.23.05-.35,0-.6-.42-1.1-.98-1.23ZM16.75,5.43s.02,0,.03,0c-.04,0-.07-.02-.11-.02h0s-.04,0-.06,0c-.05,0-.1,0-.14,0-.32,0-.62.12-.84.32-.04.13-.06.26-.06.4,0,.02,0,.04,0,.07,0,.06,0,.11.02.17,0,.04.02.08.03.11,0,.03.02.06.03.1,0,.02.01.03.02.05.01.03.03.07.05.1,0,.01.02.03.02.04,0,0,0,0,0,0,0,0,0,.01.01.02,0,.01.02.03.03.04.04.06.09.12.14.17.01.01.03.03.04.04.01.01.02.02.04.03.02.02.04.03.06.05.02.01.04.03.06.04,0,0,.02.01.03.02,0,0,.02.01.03.02.01,0,.02.01.04.02.08.05.16.08.25.11.02,0,.04.01.05.02h0s.04,0,.05.01c.02,0,.04,0,.06.01t0,0s.04,0,.06,0c.04,0,.09,0,.13,0,.34,0,.64-.13.87-.34,0,0,.01-.01.02-.02.03-.11.05-.23.05-.35,0-.6-.42-1.1-.98-1.23ZM13.06,5.42s-.04,0-.06-.01h0s-.04,0-.06,0c-.05,0-.09,0-.14,0-.32,0-.62.12-.84.32-.04.13-.06.26-.06.4,0,.61.43,1.11,1,1.23.02,0,.04,0,.06.01,0,0,0,0,0,0,.02,0,.04,0,.06,0,.04,0,.09,0,.13,0,.33,0,.64-.13.87-.34,0,0,.01-.01.02-.02.03-.11.05-.23.05-.35,0-.61-.43-1.12-1.01-1.24ZM9.4,5.42s-.04,0-.06-.01h0s-.04,0-.06,0c-.05,0-.09,0-.14,0-.32,0-.62.12-.84.32-.04.13-.06.26-.06.4,0,.61.43,1.11,1,1.23.02,0,.04,0,.06.01,0,0,0,0,0,0,.02,0,.04,0,.06,0,.04,0,.09,0,.13,0,.33,0,.64-.13.86-.34,0,0,.01-.01.02-.02.03-.11.05-.23.05-.35,0-.61-.43-1.12-1.01-1.24ZM9.4,5.42s-.04,0-.06-.01h0s-.04,0-.06,0c-.05,0-.09,0-.14,0-.32,0-.62.12-.84.32-.04.13-.06.26-.06.4,0,.61.43,1.11,1,1.23.02,0,.04,0,.06.01,0,0,0,0,0,0,.02,0,.04,0,.06,0,.04,0,.09,0,.13,0,.33,0,.64-.13.86-.34,0,0,.01-.01.02-.02.03-.11.05-.23.05-.35,0-.61-.43-1.12-1.01-1.24ZM13.06,5.42s-.04,0-.06-.01h0s-.04,0-.06,0c-.05,0-.09,0-.14,0-.32,0-.62.12-.84.32-.04.13-.06.26-.06.4,0,.61.43,1.11,1,1.23.02,0,.04,0,.06.01,0,0,0,0,0,0,.02,0,.04,0,.06,0,.04,0,.09,0,.13,0,.33,0,.64-.13.87-.34,0,0,.01-.01.02-.02.03-.11.05-.23.05-.35,0-.61-.43-1.12-1.01-1.24ZM16.75,5.43s.02,0,.03,0c-.04,0-.07-.02-.11-.02h0s-.04,0-.06,0c-.05,0-.1,0-.14,0-.32,0-.62.12-.84.32-.04.13-.06.26-.06.4,0,.02,0,.04,0,.07,0,.06,0,.11.02.17,0,.04.02.08.03.11,0,.03.02.06.03.1,0,.02.01.03.02.05.01.03.03.07.05.1,0,.01.02.03.02.04,0,0,0,0,0,0,0,0,0,.01.01.02,0,.01.02.03.03.04.04.06.09.12.14.17.01.01.03.03.04.04.01.01.02.02.04.03.02.02.04.03.06.05.02.01.04.03.06.04,0,0,.02.01.03.02,0,0,.02.01.03.02.01,0,.02.01.04.02.08.05.16.08.25.11.02,0,.04.01.05.02h0s.04,0,.05.01c.02,0,.04,0,.06.01t0,0s.04,0,.06,0c.04,0,.09,0,.13,0,.34,0,.64-.13.87-.34,0,0,.01-.01.02-.02.03-.11.05-.23.05-.35,0-.6-.42-1.1-.98-1.23ZM16.75,5.43s.02,0,.03,0c-.04,0-.07-.02-.11-.02h0s-.04,0-.06,0c-.05,0-.1,0-.14,0-.32,0-.62.12-.84.32-.04.13-.06.26-.06.4,0,.02,0,.04,0,.07,0,.06,0,.11.02.17,0,.04.02.08.03.11,0,.03.02.06.03.1,0,.02.01.03.02.05.01.03.03.07.05.1,0,.01.02.03.02.04,0,0,0,0,0,0,0,0,0,.01.01.02,0,.01.02.03.03.04.04.06.09.12.14.17.01.01.03.03.04.04.01.01.02.02.04.03.02.02.04.03.06.05.02.01.04.03.06.04,0,0,.02.01.03.02,0,0,.02.01.03.02.01,0,.02.01.04.02.08.05.16.08.25.11.02,0,.04.01.05.02h0s.04,0,.05.01c.02,0,.04,0,.06.01t0,0s.04,0,.06,0c.04,0,.09,0,.13,0,.34,0,.64-.13.87-.34,0,0,.01-.01.02-.02.03-.11.05-.23.05-.35,0-.6-.42-1.1-.98-1.23ZM13.06,5.42s-.04,0-.06-.01h0s-.04,0-.06,0c-.05,0-.09,0-.14,0-.32,0-.62.12-.84.32-.04.13-.06.26-.06.4,0,.61.43,1.11,1,1.23.02,0,.04,0,.06.01,0,0,0,0,0,0,.02,0,.04,0,.06,0,.04,0,.09,0,.13,0,.33,0,.64-.13.87-.34,0,0,.01-.01.02-.02.03-.11.05-.23.05-.35,0-.61-.43-1.12-1.01-1.24ZM9.4,5.42s-.04,0-.06-.01h0s-.04,0-.06,0c-.05,0-.09,0-.14,0-.32,0-.62.12-.84.32-.04.13-.06.26-.06.4,0,.61.43,1.11,1,1.23.02,0,.04,0,.06.01,0,0,0,0,0,0,.02,0,.04,0,.06,0,.04,0,.09,0,.13,0,.33,0,.64-.13.86-.34,0,0,.01-.01.02-.02.03-.11.05-.23.05-.35,0-.61-.43-1.12-1.01-1.24ZM9.4,5.42s-.04,0-.06-.01h0s-.04,0-.06,0c-.05,0-.09,0-.14,0-.32,0-.62.12-.84.32-.04.13-.06.26-.06.4,0,.61.43,1.11,1,1.23.02,0,.04,0,.06.01,0,0,0,0,0,0,.02,0,.04,0,.06,0,.04,0,.09,0,.13,0,.33,0,.64-.13.86-.34,0,0,.01-.01.02-.02.03-.11.05-.23.05-.35,0-.61-.43-1.12-1.01-1.24ZM13.06,5.42s-.04,0-.06-.01h0s-.04,0-.06,0c-.05,0-.09,0-.14,0-.32,0-.62.12-.84.32-.04.13-.06.26-.06.4,0,.61.43,1.11,1,1.23.02,0,.04,0,.06.01,0,0,0,0,0,0,.02,0,.04,0,.06,0,.04,0,.09,0,.13,0,.33,0,.64-.13.87-.34,0,0,.01-.01.02-.02.03-.11.05-.23.05-.35,0-.61-.43-1.12-1.01-1.24ZM16.75,5.43s.02,0,.03,0c-.04,0-.07-.02-.11-.02h0s-.04,0-.06,0c-.05,0-.1,0-.14,0-.32,0-.62.12-.84.32-.04.13-.06.26-.06.4,0,.02,0,.04,0,.07,0,.06,0,.11.02.17,0,.04.02.08.03.11,0,.03.02.06.03.1,0,.02.01.03.02.05.01.03.03.07.05.1,0,.01.02.03.02.04,0,0,0,0,0,0,0,0,0,.01.01.02,0,.01.02.03.03.04.04.06.09.12.14.17.01.01.03.03.04.04.01.01.02.02.04.03.02.02.04.03.06.05.02.01.04.03.06.04,0,0,.02.01.03.02,0,0,.02.01.03.02.01,0,.02.01.04.02.08.05.16.08.25.11.02,0,.04.01.05.02h0s.04,0,.05.01c.02,0,.04,0,.06.01t0,0s.04,0,.06,0c.04,0,.09,0,.13,0,.34,0,.64-.13.87-.34,0,0,.01-.01.02-.02.03-.11.05-.23.05-.35,0-.6-.42-1.1-.98-1.23ZM16.75,5.43s.02,0,.03,0c-.04,0-.07-.02-.11-.02h0s-.04,0-.06,0c-.05,0-.1,0-.14,0-.32,0-.62.12-.84.32-.04.13-.06.26-.06.4,0,.02,0,.04,0,.07,0,.06,0,.11.02.17,0,.04.02.08.03.11,0,.03.02.06.03.1,0,.02.01.03.02.05.01.03.03.07.05.1,0,.01.02.03.02.04,0,0,0,0,0,0,0,0,0,.01.01.02,0,.01.02.03.03.04.04.06.09.12.14.17.01.01.03.03.04.04.01.01.02.02.04.03.02.02.04.03.06.05.02.01.04.03.06.04,0,0,.02.01.03.02,0,0,.02.01.03.02.01,0,.02.01.04.02.08.05.16.08.25.11.02,0,.04.01.05.02h0s.04,0,.05.01c.02,0,.04,0,.06.01t0,0s.04,0,.06,0c.04,0,.09,0,.13,0,.34,0,.64-.13.87-.34,0,0,.01-.01.02-.02.03-.11.05-.23.05-.35,0-.6-.42-1.1-.98-1.23ZM13.06,5.42s-.04,0-.06-.01h0s-.04,0-.06,0c-.05,0-.09,0-.14,0-.32,0-.62.12-.84.32-.04.13-.06.26-.06.4,0,.61.43,1.11,1,1.23.02,0,.04,0,.06.01,0,0,0,0,0,0,.02,0,.04,0,.06,0,.04,0,.09,0,.13,0,.33,0,.64-.13.87-.34,0,0,.01-.01.02-.02.03-.11.05-.23.05-.35,0-.61-.43-1.12-1.01-1.24ZM9.4,5.42s-.04,0-.06-.01h0s-.04,0-.06,0c-.05,0-.09,0-.14,0-.32,0-.62.12-.84.32-.04.13-.06.26-.06.4,0,.61.43,1.11,1,1.23.02,0,.04,0,.06.01,0,0,0,0,0,0,.02,0,.04,0,.06,0,.04,0,.09,0,.13,0,.33,0,.64-.13.86-.34,0,0,.01-.01.02-.02.03-.11.05-.23.05-.35,0-.61-.43-1.12-1.01-1.24ZM9.4,5.42s-.04,0-.06-.01h0s-.04,0-.06,0c-.05,0-.09,0-.14,0-.32,0-.62.12-.84.32-.04.13-.06.26-.06.4,0,.61.43,1.11,1,1.23.02,0,.04,0,.06.01,0,0,0,0,0,0,.02,0,.04,0,.06,0,.04,0,.09,0,.13,0,.33,0,.64-.13.86-.34,0,0,.01-.01.02-.02.03-.11.05-.23.05-.35,0-.61-.43-1.12-1.01-1.24ZM13.06,5.42s-.04,0-.06-.01h0s-.04,0-.06,0c-.05,0-.09,0-.14,0-.32,0-.62.12-.84.32-.04.13-.06.26-.06.4,0,.61.43,1.11,1,1.23.02,0,.04,0,.06.01,0,0,0,0,0,0,.02,0,.04,0,.06,0,.04,0,.09,0,.13,0,.33,0,.64-.13.87-.34,0,0,.01-.01.02-.02.03-.11.05-.23.05-.35,0-.61-.43-1.12-1.01-1.24ZM16.75,5.43s.02,0,.03,0c-.04,0-.07-.02-.11-.02h0s-.04,0-.06,0c-.05,0-.1,0-.14,0-.32,0-.62.12-.84.32-.04.13-.06.26-.06.4,0,.02,0,.04,0,.07,0,.06,0,.11.02.17,0,.04.02.08.03.11,0,.03.02.06.03.1,0,.02.01.03.02.05.01.03.03.07.05.1,0,.01.02.03.02.04,0,0,0,0,0,0,0,0,0,.01.01.02,0,.01.02.03.03.04.04.06.09.12.14.17.01.01.03.03.04.04.01.01.02.02.04.03.02.02.04.03.06.05.02.01.04.03.06.04,0,0,.02.01.03.02,0,0,.02.01.03.02.01,0,.02.01.04.02.08.05.16.08.25.11.02,0,.04.01.05.02h0s.04,0,.05.01c.02,0,.04,0,.06.01t0,0s.04,0,.06,0c.04,0,.09,0,.13,0,.34,0,.64-.13.87-.34,0,0,.01-.01.02-.02.03-.11.05-.23.05-.35,0-.6-.42-1.1-.98-1.23ZM16.75,5.43s.02,0,.03,0c-.04,0-.07-.02-.11-.02h0s-.04,0-.06,0c-.05,0-.1,0-.14,0-.32,0-.62.12-.84.32-.04.13-.06.26-.06.4,0,.02,0,.04,0,.07,0,.06,0,.11.02.17,0,.04.02.08.03.11,0,.03.02.06.03.1,0,.02.01.03.02.05.01.03.03.07.05.1,0,.01.02.03.02.04,0,0,0,0,0,0,0,0,0,.01.01.02,0,.01.02.03.03.04.04.06.09.12.14.17.01.01.03.03.04.04.01.01.02.02.04.03.02.02.04.03.06.05.02.01.04.03.06.04,0,0,.02.01.03.02,0,0,.02.01.03.02.01,0,.02.01.04.02.08.05.16.08.25.11.02,0,.04.01.05.02h0s.04,0,.05.01c.02,0,.04,0,.06.01t0,0s.04,0,.06,0c.04,0,.09,0,.13,0,.34,0,.64-.13.87-.34,0,0,.01-.01.02-.02.03-.11.05-.23.05-.35,0-.6-.42-1.1-.98-1.23ZM13.06,5.42s-.04,0-.06-.01h0s-.04,0-.06,0c-.05,0-.09,0-.14,0-.32,0-.62.12-.84.32-.04.13-.06.26-.06.4,0,.61.43,1.11,1,1.23.02,0,.04,0,.06.01,0,0,0,0,0,0,.02,0,.04,0,.06,0,.04,0,.09,0,.13,0,.33,0,.64-.13.87-.34,0,0,.01-.01.02-.02.03-.11.05-.23.05-.35,0-.61-.43-1.12-1.01-1.24ZM9.4,5.42s-.04,0-.06-.01h0s-.04,0-.06,0c-.05,0-.09,0-.14,0-.32,0-.62.12-.84.32-.04.13-.06.26-.06.4,0,.61.43,1.11,1,1.23.02,0,.04,0,.06.01,0,0,0,0,0,0,.02,0,.04,0,.06,0,.04,0,.09,0,.13,0,.33,0,.64-.13.86-.34,0,0,.01-.01.02-.02.03-.11.05-.23.05-.35,0-.61-.43-1.12-1.01-1.24ZM9.4,5.42s-.04,0-.06-.01h0s-.04,0-.06,0c-.05,0-.09,0-.14,0-.32,0-.62.12-.84.32-.04.13-.06.26-.06.4,0,.61.43,1.11,1,1.23.02,0,.04,0,.06.01,0,0,0,0,0,0,.02,0,.04,0,.06,0,.04,0,.09,0,.13,0,.33,0,.64-.13.86-.34,0,0,.01-.01.02-.02.03-.11.05-.23.05-.35,0-.61-.43-1.12-1.01-1.24ZM13.06,5.42s-.04,0-.06-.01h0s-.04,0-.06,0c-.05,0-.09,0-.14,0-.32,0-.62.12-.84.32-.04.13-.06.26-.06.4,0,.61.43,1.11,1,1.23.02,0,.04,0,.06.01,0,0,0,0,0,0,.02,0,.04,0,.06,0,.04,0,.09,0,.13,0,.33,0,.64-.13.87-.34,0,0,.01-.01.02-.02.03-.11.05-.23.05-.35,0-.61-.43-1.12-1.01-1.24ZM16.75,5.43s.02,0,.03,0c-.04,0-.07-.02-.11-.02h0s-.04,0-.06,0c-.05,0-.1,0-.14,0-.32,0-.62.12-.84.32-.04.13-.06.26-.06.4,0,.02,0,.04,0,.07,0,.06,0,.11.02.17,0,.04.02.08.03.11,0,.03.02.06.03.1,0,.02.01.03.02.05.01.03.03.07.05.1,0,.01.02.03.02.04,0,0,0,0,0,0,0,0,0,.01.01.02,0,.01.02.03.03.04.04.06.09.12.14.17.01.01.03.03.04.04.01.01.02.02.04.03.02.02.04.03.06.05.02.01.04.03.06.04,0,0,.02.01.03.02,0,0,.02.01.03.02.01,0,.02.01.04.02.08.05.16.08.25.11.02,0,.04.01.05.02h0s.04,0,.05.01c.02,0,.04,0,.06.01t0,0s.04,0,.06,0c.04,0,.09,0,.13,0,.34,0,.64-.13.87-.34,0,0,.01-.01.02-.02.03-.11.05-.23.05-.35,0-.6-.42-1.1-.98-1.23ZM16.75,5.43s.02,0,.03,0c-.04,0-.07-.02-.11-.02h0s-.04,0-.06,0c-.05,0-.1,0-.14,0-.32,0-.62.12-.84.32-.04.13-.06.26-.06.4,0,.02,0,.04,0,.07,0,.06,0,.11.02.17,0,.04.02.08.03.11,0,.03.02.06.03.1,0,.02.01.03.02.05.01.03.03.07.05.1,0,.01.02.03.02.04,0,0,0,0,0,0,0,0,0,.01.01.02,0,.01.02.03.03.04.04.06.09.12.14.17.01.01.03.03.04.04.01.01.02.02.04.03.02.02.04.03.06.05.02.01.04.03.06.04,0,0,.02.01.03.02,0,0,.02.01.03.02.01,0,.02.01.04.02.08.05.16.08.25.11.02,0,.04.01.05.02h0s.04,0,.05.01c.02,0,.04,0,.06.01t0,0s.04,0,.06,0c.04,0,.09,0,.13,0,.34,0,.64-.13.87-.34,0,0,.01-.01.02-.02.03-.11.05-.23.05-.35,0-.6-.42-1.1-.98-1.23ZM13.06,5.42s-.04,0-.06-.01h0s-.04,0-.06,0c-.05,0-.09,0-.14,0-.32,0-.62.12-.84.32-.04.13-.06.26-.06.4,0,.61.43,1.11,1,1.23.02,0,.04,0,.06.01,0,0,0,0,0,0,.02,0,.04,0,.06,0,.04,0,.09,0,.13,0,.33,0,.64-.13.87-.34,0,0,.01-.01.02-.02.03-.11.05-.23.05-.35,0-.61-.43-1.12-1.01-1.24ZM9.4,5.42s-.04,0-.06-.01h0s-.04,0-.06,0c-.05,0-.09,0-.14,0-.32,0-.62.12-.84.32-.04.13-.06.26-.06.4,0,.61.43,1.11,1,1.23.02,0,.04,0,.06.01,0,0,0,0,0,0,.02,0,.04,0,.06,0,.04,0,.09,0,.13,0,.33,0,.64-.13.86-.34,0,0,.01-.01.02-.02.03-.11.05-.23.05-.35,0-.61-.43-1.12-1.01-1.24Z"/>
      <path class="cls-1" d="M40.91,11.56H7.67c-.79,0-1.43.64-1.43,1.43v17.38c0,.79.64,1.43,1.43,1.43h33.24c.79,0,1.43-.64,1.43-1.43V12.99c0-.79-.64-1.43-1.43-1.43ZM23.76,16.44c0,.29-.24.53-.53.53h-11.2c-.17,0-.33-.08-.43-.21t0,0c-.07-.09-.1-.2-.1-.32v-.77s0-.04,0-.06c.03-.27.26-.47.53-.47h11.2c.29,0,.53.24.53.53v.77ZM38.87,16.44c0,.29-.24.53-.53.53h-11.2c-.17,0-.33-.08-.42-.21h0c-.07-.09-.11-.2-.11-.32v-.77s0-.04,0-.07c.03-.26.26-.47.53-.47h11.2c.29,0,.53.24.53.53v.77Z"/>
      <path class="cls-2" d="M10.41,6.66c0,.12-.02.24-.05.35,0,0-.01.01-.02.02-.23.21-.53.34-.86.34-.04,0-.09,0-.13,0-.02,0-.04,0-.06,0,0,0,0,0,0,0-.02,0-.04,0-.06-.01-.57-.12-1-.63-1-1.23,0-.14.02-.27.06-.4.22-.2.52-.32.84-.32.05,0,.1,0,.14,0,.02,0,.04,0,.06,0h0s.04,0,.06.01c.58.11,1.01.62,1.01,1.24Z"/>
      <path class="cls-2" d="M14.08,6.66c0,.12-.02.24-.05.35,0,0-.01.01-.02.02-.23.21-.53.34-.87.34-.04,0-.09,0-.13,0-.02,0-.04,0-.06,0,0,0,0,0,0,0-.02,0-.04,0-.06-.01-.57-.12-1-.63-1-1.23,0-.14.02-.27.06-.4.22-.2.52-.32.84-.32.05,0,.1,0,.14,0,.02,0,.04,0,.06,0h0s.04,0,.06.01c.58.11,1.01.62,1.01,1.24Z"/>
      <path class="cls-2" d="M17.74,6.66c0,.12-.02.24-.05.35,0,0-.01.01-.02.02-.23.21-.53.34-.87.34-.04,0-.09,0-.13,0-.02,0-.04,0-.06,0t0,0s-.04,0-.06-.01c-.02,0-.04,0-.05-.01h0s-.04-.01-.05-.02c-.09-.03-.17-.06-.25-.11-.01,0-.02-.01-.04-.02,0,0-.02-.01-.03-.02-.01,0-.02-.01-.03-.02-.02-.01-.04-.03-.06-.04-.02-.01-.04-.03-.06-.05-.01-.01-.02-.02-.04-.03-.01-.01-.03-.03-.04-.04-.05-.05-.1-.11-.14-.17-.01-.01-.02-.03-.03-.04,0,0,0-.01-.01-.02,0,0,0,0,0,0,0-.01-.02-.03-.02-.04-.02-.03-.03-.06-.05-.1,0-.02-.01-.03-.02-.05-.01-.03-.02-.06-.03-.1-.01-.04-.02-.08-.03-.11-.01-.05-.02-.11-.02-.17,0-.02,0-.04,0-.07,0-.14.02-.27.06-.4.22-.2.52-.32.84-.32.05,0,.1,0,.14,0,.02,0,.04,0,.06,0h0s.07.01.11.02c0,0-.02,0-.03,0,.56.12.98.63.98,1.23Z"/>
      <path class="cls-3" d="M16.04,20.57h6.11c.89,0,1.61.72,1.61,1.61v4.33c0,.89-.72,1.61-1.61,1.61h-6.11c-.89,0-1.61-.72-1.61-1.61v-4.33c0-.89.72-1.61,1.61-1.61Z"/>
      <path class="cls-3" d="M31.14,20.57h6.11c.89,0,1.61.72,1.61,1.61v4.33c0,.89-.72,1.61-1.61,1.61h-6.11c-.89,0-1.61-.72-1.61-1.61v-4.33c0-.89.72-1.61,1.61-1.61Z"/>
      <path class="cls-1" d="M18.06,6.12c0,.35-.14.67-.37.89,0,0-.01.01-.02.02-.23.21-.53.34-.87.34-.04,0-.09,0-.13,0-.02,0-.04,0-.06,0t0,0s-.04,0-.06-.01c-.02,0-.04,0-.05-.01h0s-.04-.01-.05-.02c-.09-.03-.17-.06-.25-.11-.01,0-.02-.01-.04-.02,0,0-.02-.01-.03-.02-.01,0-.02-.01-.03-.02-.02-.01-.04-.03-.06-.04-.02-.01-.04-.03-.06-.05-.01-.01-.02-.02-.04-.03-.01-.01-.03-.03-.04-.04-.05-.05-.1-.11-.14-.17-.01-.01-.02-.03-.03-.04,0,0,0-.01-.01-.02,0,0,0,0,0,0,0-.01-.02-.03-.02-.04-.02-.03-.03-.06-.05-.1,0-.02-.01-.03-.02-.05-.01-.03-.02-.06-.03-.1-.01-.04-.02-.08-.03-.11-.01-.05-.02-.11-.02-.17,0-.02,0-.04,0-.07,0-.14.02-.27.06-.4.17-.5.64-.86,1.19-.86.04,0,.09,0,.13,0,.02,0,.04,0,.06,0h0s.07.01.11.02c.02,0,.03,0,.05.01.04.01.07.02.11.04.03.01.07.03.1.05.02.01.04.02.06.03.02,0,.03.02.05.03.01,0,.03.02.04.02.02.01.04.03.05.04,0,0,0,0,.01.01.02.01.03.03.05.04,0,0,.02.02.03.02.03.02.05.05.07.07.01.01.03.03.04.05,0,0,0,0,0,0,.02.02.03.04.05.06.02.03.04.05.05.08,0,.01.02.03.02.04.03.05.06.11.08.17,0,.02.01.03.02.05.03.1.05.21.06.32,0,.02,0,.05,0,.07Z"/>
      <path class="cls-1" d="M10.74,6.12c0,.35-.14.67-.37.89,0,0-.01.01-.02.02-.23.21-.53.34-.86.34-.04,0-.09,0-.13,0-.02,0-.04,0-.06,0,0,0,0,0,0,0-.02,0-.04,0-.06-.01-.57-.12-1-.63-1-1.23,0-.14.02-.27.06-.4.17-.5.64-.86,1.2-.86.04,0,.09,0,.13,0,.02,0,.04,0,.06,0h0s.04,0,.06.01c.57.12,1,.63,1,1.23Z"/>
      <path class="cls-1" d="M14.4,6.12c0,.35-.14.67-.37.89,0,0-.01.01-.02.02-.23.21-.53.34-.87.34-.04,0-.09,0-.13,0-.02,0-.04,0-.06,0,0,0,0,0,0,0-.02,0-.04,0-.06-.01-.57-.12-1-.63-1-1.23,0-.14.02-.27.06-.4.17-.5.64-.86,1.2-.86.04,0,.09,0,.13,0,.02,0,.04,0,.06,0h0s.04,0,.06.01c.57.12,1,.63,1,1.23Z"/>
    </g>
    <g>
      <path class="cls-1" d="M87.84,16.05c-.89-1.65-2.2-2.95-3.93-3.9-1.74-.94-3.87-1.42-6.4-1.42h-10.83c-.85,0-1.54.69-1.54,1.54v30.19c0,.75.61,1.36,1.36,1.36h3.21c.75,0,1.36-.61,1.36-1.36v-9.83h6.35c2.55,0,4.69-.48,6.44-1.42,1.75-.95,3.07-2.25,3.96-3.89.9-1.64,1.35-3.52,1.35-5.64s-.45-3.98-1.33-5.63ZM82.43,24.81c-.45.92-1.16,1.64-2.11,2.15-.96.52-2.18.78-3.68.78h-5.57v-11.25c0-.43.35-.78.79-.78h4.74c1.51,0,2.75.25,3.71.75.96.51,1.67,1.21,2.12,2.11.45.9.68,1.94.68,3.11s-.23,2.21-.68,3.13Z"/>
      <path class="cls-1" d="M112.79,23.1c-.61-1.1-1.41-1.97-2.4-2.62-.99-.65-2.08-1.11-3.28-1.39-1.19-.27-2.37-.41-3.54-.41-1.66,0-3.19.24-4.61.71-1.41.47-2.63,1.19-3.65,2.14-.86.8-1.53,1.78-2.01,2.94-.15.35.07.75.44.83l4.17.85c.27.05.54-.07.66-.31.2-.39.46-.77.8-1.12.44-.47,1.02-.86,1.72-1.16.7-.3,1.54-.44,2.5-.44s1.74.15,2.39.46c.64.3,1.13.74,1.46,1.31.32.57.49,1.26.49,2.08v.11c0,.56-.21.98-.63,1.24-.42.27-1.08.46-1.99.58-.9.12-2.07.26-3.51.42-1.21.12-2.38.32-3.51.6-1.12.28-2.14.7-3.03,1.24-.9.55-1.61,1.28-2.13,2.2-.52.92-.79,2.08-.79,3.49,0,1.63.36,3,1.09,4.11.73,1.11,1.72,1.95,2.98,2.52,1.26.57,2.67.85,4.24.85,1.3,0,2.43-.18,3.39-.54.96-.36,1.75-.84,2.4-1.44.62-.58,1.11-1.2,1.48-1.87.02-.04.07-.07.12-.07h0c.08,0,.14.06.14.14v2.24c0,.58.47,1.04,1.04,1.04h3.44c.58,0,1.04-.47,1.04-1.04v-15.54c0-1.66-.3-3.03-.91-4.13ZM107.97,34.91c0,.92-.24,1.77-.72,2.54-.48.78-1.15,1.4-2.02,1.88-.87.47-1.9.71-3.1.71-.81,0-1.54-.12-2.17-.38-.63-.25-1.13-.62-1.49-1.1-.36-.48-.54-1.08-.54-1.79,0-.77.2-1.4.59-1.88.39-.48.93-.86,1.63-1.12.69-.27,1.47-.46,2.33-.58.37-.04.83-.1,1.36-.18.54-.07,1.09-.16,1.64-.27.56-.1,1.06-.22,1.51-.35,0,0,0,0,.01,0,.47-.14.95.21.95.71v1.81Z"/>
      <path class="cls-1" d="M136.39,19.89v3.07c0,.08-.06.14-.14.14h-.09c-.05,0-.1-.03-.12-.08-.29-.57-.71-1.19-1.25-1.84-.56-.69-1.32-1.28-2.26-1.77-.95-.49-2.15-.73-3.62-.73-1.91,0-3.64.49-5.19,1.46-1.55.98-2.78,2.41-3.7,4.29-.92,1.88-1.38,4.18-1.38,6.91s.46,4.94,1.37,6.73c.91,1.79,2.14,3.13,3.69,4.03,1.55.9,3.27,1.34,5.16,1.34,1.44,0,2.62-.22,3.54-.64.93-.43,1.66-.96,2.21-1.59.52-.6.92-1.19,1.2-1.75.02-.05.07-.08.12-.08h.26c.08,0,.14.06.14.14v4.55c0,1.78-.54,3.08-1.62,3.92-1.08.84-2.52,1.25-4.31,1.25-1.2,0-2.19-.16-2.96-.48-.78-.32-1.4-.72-1.87-1.21-.27-.28-.51-.56-.71-.84-.25-.34-.69-.47-1.08-.33l-3.21,1.15c-.55.2-.8.85-.51,1.36.4.7.92,1.34,1.56,1.93.94.87,2.15,1.55,3.62,2.05,1.47.5,3.2.76,5.19.76,2.24,0,4.23-.35,5.97-1.06,1.75-.7,3.12-1.78,4.13-3.22,1.01-1.44,1.51-3.27,1.51-5.47v-23.99c0-.5-.4-.9-.9-.9h-3.86c-.5,0-.9.4-.9.9ZM135.68,35.38c-.46,1.14-1.13,2.01-2,2.61-.87.6-1.94.9-3.2.9s-2.37-.31-3.25-.94c-.88-.63-1.55-1.51-2-2.65-.45-1.14-.68-2.47-.68-4s.22-2.85.67-4.03c.44-1.18,1.11-2.11,1.99-2.8.88-.69,1.97-1.03,3.27-1.03s2.35.33,3.22.99c.87.66,1.54,1.58,1.99,2.75.45,1.18.68,2.55.68,4.12s-.23,2.95-.69,4.09Z"/>
      <path class="cls-1" d="M169.13,25.58c-.6-1.58-1.43-2.88-2.48-3.9-1.06-1.02-2.28-1.78-3.65-2.27-1.37-.48-2.81-.73-4.32-.73-2.36,0-4.43.55-6.18,1.63-1.75,1.09-3.11,2.6-4.06,4.52-.96,1.93-1.44,4.17-1.44,6.73s.49,4.84,1.46,6.75c.97,1.91,2.35,3.39,4.15,4.44,1.8,1.05,3.95,1.58,6.45,1.58,1.85,0,3.5-.28,4.94-.83,1.45-.56,2.65-1.34,3.61-2.33.73-.76,1.3-1.61,1.7-2.56.21-.48-.08-1.03-.59-1.13l-3.73-.77c-.36-.07-.72.11-.89.44-.23.45-.53.85-.89,1.2-.5.48-1.09.84-1.78,1.08-.69.25-1.46.37-2.3.37-1.27,0-2.39-.27-3.35-.82-.97-.55-1.71-1.36-2.25-2.44-.48-.98-.74-2.14-.79-3.51h16.32c.54,0,.97-.44.97-.98v-.84c0-2.18-.3-4.06-.9-5.63ZM152.76,29.1c.08-.94.31-1.8.67-2.59.47-1,1.15-1.8,2.04-2.4.88-.6,1.96-.9,3.24-.9s2.33.3,3.18.89c.85.59,1.49,1.42,1.92,2.48.31.75.51,1.6.6,2.52h-11.65Z"/>
      <path class="cls-1" d="M195.48,43.37c1.61-.59,3.02-1.41,4.23-2.46,1.21-1.05,2.19-2.27,2.94-3.65.59-1.09,1.01-2.24,1.28-3.46.11-.51-.28-1-.81-1h-4.35c-.38,0-.7.25-.8.62-.19.73-.47,1.39-.84,1.99-.47.76-1.06,1.41-1.77,1.93-.7.53-1.49.93-2.36,1.2-.87.27-1.81.41-2.8.41-1.78,0-3.36-.44-4.76-1.33-1.4-.89-2.5-2.2-3.3-3.93s-1.2-3.86-1.2-6.4.4-4.62,1.19-6.36c.79-1.74,1.89-3.06,3.29-3.97s3-1.37,4.81-1.37c.99,0,1.92.14,2.8.41.87.27,1.66.67,2.35,1.2.7.53,1.28,1.17,1.74,1.92.37.6.65,1.27.85,2.01.1.36.42.61.8.61h4.33c.52,0,.92-.48.81-.99-.3-1.41-.77-2.69-1.42-3.85-.8-1.42-1.82-2.62-3.05-3.61-1.24-.98-2.64-1.73-4.22-2.24-1.58-.51-3.27-.77-5.07-.77-2.87,0-5.45.67-7.74,2.02-2.29,1.35-4.09,3.29-5.42,5.83-1.33,2.54-1.99,5.59-1.99,9.16s.66,6.6,1.98,9.13c1.32,2.53,3.12,4.47,5.4,5.82,2.28,1.35,4.87,2.02,7.77,2.02,1.95,0,3.73-.3,5.34-.89Z"/>
      <path class="cls-1" d="M229.5,24.78c-.97-1.93-2.34-3.43-4.12-4.5-1.78-1.07-3.88-1.6-6.31-1.6s-4.51.53-6.28,1.6c-1.78,1.07-3.15,2.57-4.12,4.5-.97,1.93-1.45,4.19-1.45,6.76s.48,4.78,1.45,6.69c.97,1.92,2.34,3.41,4.12,4.49,1.78,1.07,3.87,1.61,6.28,1.61s4.53-.54,6.31-1.61c1.78-1.07,3.15-2.57,4.12-4.49.97-1.92,1.45-4.15,1.45-6.69s-.49-4.83-1.45-6.76ZM224.44,35.62c-.44,1.23-1.1,2.21-2,2.93-.9.73-2.02,1.09-3.36,1.09s-2.46-.36-3.34-1.09c-.88-.73-1.54-1.7-1.98-2.93-.44-1.23-.66-2.6-.66-4.11s.22-2.92.66-4.14c.44-1.22,1.1-2.19,1.98-2.92.88-.73,1.99-1.09,3.34-1.09s2.47.36,3.36,1.09c.9.73,1.56,1.7,2,2.93.44,1.23.66,2.61.66,4.13s-.22,2.88-.66,4.11Z"/>
      <path class="cls-1" d="M257.6,28.03v15.08c0,.39-.31.71-.7.71h-4.36c-.39,0-.71-.32-.71-.71v-14.19c0-1.66-.43-2.96-1.29-3.91-.86-.95-2.04-1.42-3.55-1.42-1.02,0-1.93.22-2.73.67-.8.44-1.43,1.09-1.89,1.94-.46.85-.69,1.88-.69,3.07v13.84c0,.39-.31.71-.7.71h-4.36c-.39,0-.71-.32-.71-.71v-23.41c0-.39.32-.71.71-.71h4.06c.38,0,.7.31.7.7l.06,4.24c.66-1.57,1.53-2.78,2.62-3.64,1.35-1.07,3.03-1.61,5.06-1.61,1.7,0,3.19.36,4.47,1.09,1.27.73,2.26,1.78,2.96,3.18.7,1.39,1.05,3.08,1.05,5.08Z"/>
      <path class="cls-1" d="M277.69,43.32c1.61-.67,2.86-1.61,3.76-2.8.9-1.19,1.35-2.57,1.35-4.14,0-1.75-.57-3.18-1.71-4.29-1.14-1.11-2.89-1.92-5.24-2.42l-4.22-.89c-1.26-.27-2.16-.64-2.71-1.11-.55-.47-.82-1.07-.82-1.8,0-.84.41-1.54,1.23-2.08.82-.54,1.85-.81,3.08-.81,1.35,0,2.39.3,3.13.9.58.47,1.03,1.03,1.32,1.68.14.31.47.48.81.42l3.76-.75c.44-.09.69-.54.54-.96-.34-.95-.84-1.81-1.5-2.56-.84-.95-1.93-1.7-3.29-2.23-1.35-.53-2.97-.8-4.85-.8-1.98,0-3.73.31-5.23.93-1.5.62-2.68,1.5-3.52,2.62-.84,1.13-1.27,2.46-1.27,4,0,1.82.58,3.31,1.73,4.46s2.9,1.98,5.24,2.49l4.24.91c1.14.25,1.98.61,2.53,1.08.55.47.82,1.05.82,1.77,0,.84-.42,1.55-1.25,2.12-.84.57-1.97.85-3.39.85s-2.54-.3-3.41-.9c-.72-.5-1.26-1.22-1.62-2.16-.13-.33-.47-.53-.82-.47l-4.02.76c-.42.08-.68.5-.57.92.33,1.16.88,2.18,1.65,3.04.94,1.05,2.14,1.85,3.61,2.4,1.47.55,3.15.82,5.06.82,2.09,0,3.93-.34,5.54-1.01Z"/>
      <path class="cls-1" d="M309.37,19.83v23.16c0,.46-.38.83-.84.83h-3.82c-.46,0-.83-.37-.84-.83l-.04-4.14c-.66,1.59-1.55,2.82-2.66,3.68-1.36,1.07-3.03,1.6-5.01,1.6-1.71,0-3.2-.36-4.48-1.09-1.28-.72-2.27-1.79-2.97-3.18-.71-1.4-1.06-3.09-1.06-5.08v-14.95c0-.46.37-.84.83-.84h4.11c.46,0,.83.38.83.84v14.06c0,1.66.44,2.96,1.3,3.91.87.95,2.06,1.42,3.57,1.42,1.02,0,1.93-.22,2.73-.66.8-.45,1.42-1.1,1.87-1.96.46-.86.68-1.88.68-3.06v-13.71c0-.46.38-.84.84-.84h4.12c.46,0,.84.38.84.84Z"/>
      <path class="cls-1" d="M315.41,11.63v31.28c0,.5.4.9.9.9h3.97c.5,0,.9-.4.9-.9V11.43c0-.39-.31-.7-.7-.7h-4.17c-.5,0-.9.4-.9.9Z"/>
      <path class="cls-1" d="M340.34,43.78c-.45.11-.9.19-1.36.25-.67.08-1.3.12-1.91.12-2.38,0-4.21-.59-5.49-1.77-1.27-1.19-1.9-2.88-1.9-5.07v-13.79h-3.04c-.28,0-.5-.22-.5-.49v-3.55c0-.27.22-.49.5-.49h3.04v-5.26c0-.36.28-.64.64-.64h4.49c.35,0,.64.28.64.64v5.26h4.3c.27,0,.5.22.5.49v3.55c0,.27-.23.49-.5.49h-4.3v13.3c0,.91.19,1.57.58,1.99.38.42,1.01.63,1.88.63.27,0,.62-.03,1.06-.1.16-.02.31-.04.45-.07.34-.06.66.17.73.51l.66,3.25c.07.34-.14.67-.47.75Z"/>
    </g>
  </g>
</svg>