<?xml version="1.0" encoding="UTF-8"?>
<svg id="Layer_2" data-name="Layer 2" xmlns="http://www.w3.org/2000/svg" viewBox="0 0 48.39 50.67">
  <defs>
    <style>
      .cls-1 {
        fill: none;
      }

      .cls-2 {
        fill: #475569;
      }

      .cls-3 {
        fill: #0bb7d6;
      }

      .cls-4 {
        fill: #fff;
      }

      .cls-5 {
        fill: #474f60;
      }

      .cls-6 {
        fill: #8865d6;
      }
    </style>
  </defs>
  <g id="Layer_1-2" data-name="Layer 1">
    <path class="cls-6" d="M17.73,6.66c0,.12-.02.24-.05.35,0,0-.01.01-.02.02.04-.12.06-.24.06-.37,0-.02,0-.05,0-.07,0-.11-.03-.22-.06-.32,0-.02-.01-.03-.02-.05-.02-.06-.05-.11-.08-.17,0-.01-.02-.03-.02-.04-.02-.03-.04-.06-.05-.08-.02-.02-.03-.04-.05-.06,0,0,0,0,0,0-.01-.02-.03-.03-.04-.05-.02-.03-.05-.05-.07-.07,0,0-.02-.02-.03-.02-.02-.01-.03-.03-.05-.04,0,0,0,0-.01-.01-.02-.01-.04-.03-.05-.04-.01,0-.03-.02-.04-.02-.01,0-.03-.02-.05-.03-.02-.01-.04-.02-.06-.03-.03-.02-.07-.03-.1-.05-.04-.01-.07-.03-.11-.04-.02,0-.03,0-.05-.01,0,0-.02,0-.03,0,.56.12.98.63.98,1.23Z"/>
    <path class="cls-6" d="M14.07,6.66c0,.12-.02.24-.05.35,0,0-.01.01-.02.02.04-.12.06-.24.06-.37,0-.61-.43-1.11-1-1.23.58.11,1.01.62,1.01,1.23Z"/>
    <path class="cls-6" d="M10.41,6.66c0,.12-.02.24-.05.35,0,0-.01.01-.02.02.04-.12.06-.24.06-.37,0-.61-.43-1.11-1-1.23.58.11,1.01.62,1.01,1.23Z"/>
    <path class="cls-6" d="M10.41,6.66c0,.12-.02.24-.05.35,0,0-.01.01-.02.02-.23.21-.53.34-.86.34-.04,0-.09,0-.13,0-.02,0-.04,0-.06,0,0,0,0,0,0,0-.02,0-.04,0-.06-.01-.57-.12-1-.63-1-1.23,0-.14.02-.27.06-.4.22-.2.52-.32.84-.32.05,0,.1,0,.14,0,.02,0,.04,0,.06,0h0s.04,0,.06.01c.58.11,1.01.62,1.01,1.23Z"/>
    <path class="cls-6" d="M14.07,6.66c0,.12-.02.24-.05.35,0,0-.01.01-.02.02-.23.21-.53.34-.86.34-.04,0-.09,0-.13,0-.02,0-.04,0-.06,0,0,0,0,0,0,0-.02,0-.04,0-.06-.01-.57-.12-1-.63-1-1.23,0-.14.02-.27.06-.4.22-.2.52-.32.84-.32.05,0,.1,0,.14,0,.02,0,.04,0,.06,0h0s.04,0,.06.01c.58.11,1.01.62,1.01,1.23Z"/>
    <path class="cls-6" d="M17.73,6.66c0,.12-.02.24-.05.35,0,0-.01.01-.02.02-.23.21-.53.34-.86.34-.04,0-.09,0-.13,0-.02,0-.04,0-.06,0t0,0s-.04,0-.06-.01c-.02,0-.04,0-.05-.01h0s-.04-.01-.05-.02c-.09-.03-.17-.06-.25-.11-.01,0-.02-.01-.04-.02,0,0-.02-.01-.03-.02-.01,0-.02-.01-.03-.02-.02-.01-.04-.03-.06-.04-.02-.01-.04-.03-.06-.05-.01-.01-.02-.02-.04-.03-.01-.01-.03-.03-.04-.04-.05-.05-.1-.11-.14-.17-.01-.01-.02-.03-.03-.04,0,0,0-.01-.01-.02,0,0,0,0,0,0,0-.01-.02-.03-.02-.04-.02-.03-.03-.06-.05-.1,0-.02-.01-.03-.02-.05-.01-.03-.02-.06-.03-.1-.01-.04-.02-.08-.03-.11-.01-.05-.02-.11-.02-.17,0-.02,0-.04,0-.07,0-.14.02-.27.06-.4.22-.2.52-.32.84-.32.05,0,.1,0,.14,0,.02,0,.04,0,.06,0h0s.07.01.11.02c0,0-.02,0-.03,0,.56.12.98.63.98,1.23Z"/>
    <path class="cls-6" d="M23.74,15.85v.52c0,.23-.12.42-.27.42h-11.77s-.08-.01-.11-.04c0,0,0,0,0,0-.09-.07-.16-.21-.16-.38v-.52c0-.09.02-.18.05-.25.05-.1.13-.17.22-.17h11.77c.15,0,.27.19.27.42Z"/>
    <path class="cls-6" d="M23.74,15.85v.52c0,.23-.12.42-.27.42h-11.77s-.08-.01-.11-.04c0,0,0,0,0,0-.09-.07-.16-.21-.16-.38v-.52c0-.09.02-.18.05-.25.05-.1.13-.17.22-.17h11.77c.15,0,.27.19.27.42Z"/>
    <path class="cls-6" d="M10.41,6.66c0,.12-.02.24-.05.35,0,0-.01.01-.02.02-.23.21-.53.34-.86.34-.04,0-.09,0-.13,0-.02,0-.04,0-.06,0,0,0,0,0,0,0-.02,0-.04,0-.06-.01-.57-.12-1-.63-1-1.23,0-.14.02-.27.06-.4.22-.2.52-.32.84-.32.05,0,.1,0,.14,0,.02,0,.04,0,.06,0h0s.04,0,.06.01c.58.11,1.01.62,1.01,1.23Z"/>
    <path class="cls-6" d="M14.07,6.66c0,.12-.02.24-.05.35,0,0-.01.01-.02.02-.23.21-.53.34-.86.34-.04,0-.09,0-.13,0-.02,0-.04,0-.06,0,0,0,0,0,0,0-.02,0-.04,0-.06-.01-.57-.12-1-.63-1-1.23,0-.14.02-.27.06-.4.22-.2.52-.32.84-.32.05,0,.1,0,.14,0,.02,0,.04,0,.06,0h0s.04,0,.06.01c.58.11,1.01.62,1.01,1.23Z"/>
    <path class="cls-6" d="M17.73,6.66c0,.12-.02.24-.05.35,0,0-.01.01-.02.02-.23.21-.53.34-.86.34-.04,0-.09,0-.13,0-.02,0-.04,0-.06,0t0,0s-.04,0-.06-.01c-.02,0-.04,0-.05-.01h0s-.04-.01-.05-.02c-.09-.03-.17-.06-.25-.11-.01,0-.02-.01-.04-.02,0,0-.02-.01-.03-.02-.01,0-.02-.01-.03-.02-.02-.01-.04-.03-.06-.04-.02-.01-.04-.03-.06-.05-.01-.01-.02-.02-.04-.03-.01-.01-.03-.03-.04-.04-.05-.05-.1-.11-.14-.17-.01-.01-.02-.03-.03-.04,0,0,0-.01-.01-.02,0,0,0,0,0,0,0-.01-.02-.03-.02-.04-.02-.03-.03-.06-.05-.1,0-.02-.01-.03-.02-.05-.01-.03-.02-.06-.03-.1-.01-.04-.02-.08-.03-.11-.01-.05-.02-.11-.02-.17,0-.02,0-.04,0-.07,0-.14.02-.27.06-.4.22-.2.52-.32.84-.32.05,0,.1,0,.14,0,.02,0,.04,0,.06,0h0s.07.01.11.02c0,0-.02,0-.03,0,.56.12.98.63.98,1.23Z"/>
    <path class="cls-6" d="M23.74,15.85v.52c0,.23-.12.42-.27.42h-11.77s-.08-.01-.11-.04c0,0,0,0,0,0-.09-.07-.16-.21-.16-.38v-.52c0-.09.02-.18.05-.25.05-.1.13-.17.22-.17h11.77c.15,0,.27.19.27.42Z"/>
    <path class="cls-6" d="M23.74,15.85v.52c0,.23-.12.42-.27.42h-11.77s-.08-.01-.11-.04c0,0,0,0,0,0-.09-.07-.16-.21-.16-.38v-.52c0-.09.02-.18.05-.25.05-.1.13-.17.22-.17h11.77c.15,0,.27.19.27.42Z"/>
    <path class="cls-6" d="M10.41,6.66c0,.12-.02.24-.05.35,0,0-.01.01-.02.02-.23.21-.53.34-.86.34-.04,0-.09,0-.13,0-.02,0-.04,0-.06,0,0,0,0,0,0,0-.02,0-.04,0-.06-.01-.57-.12-1-.63-1-1.23,0-.14.02-.27.06-.4.22-.2.52-.32.84-.32.05,0,.1,0,.14,0,.02,0,.04,0,.06,0h0s.04,0,.06.01c.58.11,1.01.62,1.01,1.23Z"/>
    <path class="cls-6" d="M14.07,6.66c0,.12-.02.24-.05.35,0,0-.01.01-.02.02-.23.21-.53.34-.86.34-.04,0-.09,0-.13,0-.02,0-.04,0-.06,0,0,0,0,0,0,0-.02,0-.04,0-.06-.01-.57-.12-1-.63-1-1.23,0-.14.02-.27.06-.4.22-.2.52-.32.84-.32.05,0,.1,0,.14,0,.02,0,.04,0,.06,0h0s.04,0,.06.01c.58.11,1.01.62,1.01,1.23Z"/>
    <path class="cls-6" d="M17.73,6.66c0,.12-.02.24-.05.35,0,0-.01.01-.02.02-.23.21-.53.34-.86.34-.04,0-.09,0-.13,0-.02,0-.04,0-.06,0t0,0s-.04,0-.06-.01c-.02,0-.04,0-.05-.01h0s-.04-.01-.05-.02c-.09-.03-.17-.06-.25-.11-.01,0-.02-.01-.04-.02,0,0-.02-.01-.03-.02-.01,0-.02-.01-.03-.02-.02-.01-.04-.03-.06-.04-.02-.01-.04-.03-.06-.05-.01-.01-.02-.02-.04-.03-.01-.01-.03-.03-.04-.04-.05-.05-.1-.11-.14-.17-.01-.01-.02-.03-.03-.04,0,0,0-.01-.01-.02,0,0,0,0,0,0,0-.01-.02-.03-.02-.04-.02-.03-.03-.06-.05-.1,0-.02-.01-.03-.02-.05-.01-.03-.02-.06-.03-.1-.01-.04-.02-.08-.03-.11-.01-.05-.02-.11-.02-.17,0-.02,0-.04,0-.07,0-.14.02-.27.06-.4.22-.2.52-.32.84-.32.05,0,.1,0,.14,0,.02,0,.04,0,.06,0h0s.07.01.11.02c0,0-.02,0-.03,0,.56.12.98.63.98,1.23Z"/>
    <path class="cls-6" d="M23.74,15.85v.52c0,.23-.12.42-.27.42h-11.77s-.08-.01-.11-.04c0,0,0,0,0,0-.09-.07-.16-.21-.16-.38v-.52c0-.09.02-.18.05-.25.05-.1.13-.17.22-.17h11.77c.15,0,.27.19.27.42Z"/>
    <path class="cls-6" d="M17.73,6.66c0,.12-.02.24-.05.35,0,0-.01.01-.02.02-.23.21-.53.34-.86.34-.04,0-.09,0-.13,0-.02,0-.04,0-.06,0t0,0s-.04,0-.06-.01c-.02,0-.04,0-.05-.01h0s-.04-.01-.05-.02c-.09-.03-.17-.06-.25-.11-.01,0-.02-.01-.04-.02,0,0-.02-.01-.03-.02-.01,0-.02-.01-.03-.02-.02-.01-.04-.03-.06-.04-.02-.01-.04-.03-.06-.05-.01-.01-.02-.02-.04-.03-.01-.01-.03-.03-.04-.04-.05-.05-.1-.11-.14-.17-.01-.01-.02-.03-.03-.04,0,0,0-.01-.01-.02,0,0,0,0,0,0,0-.01-.02-.03-.02-.04-.02-.03-.03-.06-.05-.1,0-.02-.01-.03-.02-.05-.01-.03-.02-.06-.03-.1-.01-.04-.02-.08-.03-.11-.01-.05-.02-.11-.02-.17,0-.02,0-.04,0-.07,0-.14.02-.27.06-.4.22-.2.52-.32.84-.32.05,0,.1,0,.14,0,.02,0,.04,0,.06,0h0s.07.01.11.02c0,0-.02,0-.03,0,.56.12.98.63.98,1.23Z"/>
    <path class="cls-6" d="M14.07,6.66c0,.12-.02.24-.05.35,0,0-.01.01-.02.02-.23.21-.53.34-.86.34-.04,0-.09,0-.13,0-.02,0-.04,0-.06,0,0,0,0,0,0,0-.02,0-.04,0-.06-.01-.57-.12-1-.63-1-1.23,0-.14.02-.27.06-.4.22-.2.52-.32.84-.32.05,0,.1,0,.14,0,.02,0,.04,0,.06,0h0s.04,0,.06.01c.58.11,1.01.62,1.01,1.23Z"/>
    <path class="cls-6" d="M10.41,6.66c0,.12-.02.24-.05.35,0,0-.01.01-.02.02-.23.21-.53.34-.86.34-.04,0-.09,0-.13,0-.02,0-.04,0-.06,0,0,0,0,0,0,0-.02,0-.04,0-.06-.01-.57-.12-1-.63-1-1.23,0-.14.02-.27.06-.4.22-.2.52-.32.84-.32.05,0,.1,0,.14,0,.02,0,.04,0,.06,0h0s.04,0,.06.01c.58.11,1.01.62,1.01,1.23Z"/>
    <path class="cls-4" d="M23.74,15.85v.52c0,.23-.12.42-.27.42h-11.77s-.08-.01-.11-.04c0,0,0,0,0,0-.09-.07-.16-.21-.16-.38v-.52c0-.09.02-.18.05-.25.05-.1.13-.17.22-.17h11.77c.15,0,.27.19.27.42Z"/>
    <path class="cls-2" d="M10.39,6.44c0-.08-.03-.15-.06-.21-.05-.14-.12-.26-.21-.37h-.01s-.01-.02-.02-.03c-.08-.1-.18-.18-.29-.25h-.01c-.12-.08-.25-.13-.39-.16-.02,0-.04,0-.06-.01h-.06s-.1-.01-.15-.01c-.32,0-.62.12-.84.32-.04.13-.06.26-.06.4,0,.6.42,1.11.99,1.23.02,0,.04.01.06.01s.04.01.06.01c.04,0,.09.01.13.01.34,0,.64-.14.87-.35,0,0,.01,0,.02-.02.03-.11.05-.23.05-.35,0-.08-.01-.15-.02-.22ZM14.05,6.44c-.01-.08-.03-.15-.06-.21-.05-.14-.12-.26-.21-.37h-.01s-.01-.02-.02-.03c-.08-.1-.18-.18-.29-.25h-.01c-.12-.08-.25-.13-.39-.16-.02,0-.04,0-.06-.01h-.06c-.05-.01-.1-.01-.15-.01-.32,0-.62.12-.84.32-.04.13-.06.26-.06.4,0,.6.42,1.11.99,1.23.02,0,.04.01.06.01s.04.01.06.01c.04,0,.09.01.13.01.33,0,.64-.14.86-.35.01,0,.02,0,.03-.02.03-.11.05-.23.05-.35,0-.08,0-.15-.02-.22ZM17.71,6.46s-.01-.08-.03-.12c-.01-.03-.01-.05-.03-.07-.02-.08-.06-.15-.1-.22,0-.02-.01-.03-.02-.04-.02-.03-.03-.06-.05-.09-.02-.02-.04-.04-.05-.06,0-.02-.01-.02-.01-.02,0,0-.01-.02-.02-.02,0-.01-.01-.02-.02-.01t-.01-.02s-.02-.03-.04-.04c0-.01-.01-.02-.02-.01l-.03-.03s-.07-.07-.11-.09c-.03-.02-.06-.04-.08-.05-.05-.03-.11-.06-.16-.08s-.11-.04-.16-.05c-.04-.01-.07-.02-.11-.03h-.06s-.1-.01-.15-.01c-.32,0-.62.12-.84.32-.04.13-.06.26-.06.4v.07s.01.11.02.16c.01.04.01.08.03.12,0,.03.01.06.03.09,0,.02,0,.04.02.06.01.03.03.06.05.09,0,.02.01.03.02.05.01.01.01.02.02.02.01.02.01.03.03.05.04.06.08.11.13.16.01.02.03.03.04.04,0,.01.03.03.04.04.02.01.03.03.05.04.02.02.04.03.06.04.01.01.02.02.03.02.01.01.02.02.03.02.01.01.02.02.03.02.08.05.17.08.26.11,0,.01.03.01.05.02.02,0,.03.01.05.01s.04.01.06.01.04.01.06.01c.04,0,.09.01.13.01.34,0,.64-.14.86-.35.01,0,.02,0,.03-.02.03-.11.05-.23.05-.35,0-.07-.01-.14-.02-.2ZM17.71,6.46s-.01-.08-.03-.12c-.01-.03-.01-.05-.03-.07-.02-.08-.06-.15-.1-.22,0-.02-.01-.03-.02-.04-.02-.03-.03-.06-.05-.09-.02-.02-.04-.04-.05-.06,0-.02-.01-.02-.01-.02,0,0-.01-.02-.02-.02,0-.01-.01-.02-.02-.01t-.01-.02s-.02-.03-.04-.04c0-.01-.01-.02-.02-.01l-.03-.03s-.07-.07-.11-.09c-.03-.02-.06-.04-.08-.05-.05-.03-.11-.06-.16-.08s-.11-.04-.16-.05c-.04-.01-.07-.02-.11-.03h-.06s-.1-.01-.15-.01c-.32,0-.62.12-.84.32-.04.13-.06.26-.06.4v.07s.01.11.02.16c.01.04.01.08.03.12,0,.03.01.06.03.09,0,.02,0,.04.02.06.01.03.03.06.05.09,0,.02.01.03.02.05.01.01.01.02.02.02.01.02.01.03.03.05.04.06.08.11.13.16.01.02.03.03.04.04,0,.01.03.03.04.04.02.01.03.03.05.04.02.02.04.03.06.04.01.01.02.02.03.02.01.01.02.02.03.02.01.01.02.02.03.02.08.05.17.08.26.11,0,.01.03.01.05.02.02,0,.03.01.05.01s.04.01.06.01.04.01.06.01c.04,0,.09.01.13.01.34,0,.64-.14.86-.35.01,0,.02,0,.03-.02.03-.11.05-.23.05-.35,0-.07-.01-.14-.02-.2ZM14.05,6.44c-.01-.08-.03-.15-.06-.21-.05-.14-.12-.26-.21-.37h-.01s-.01-.02-.02-.03c-.08-.1-.18-.18-.29-.25h-.01c-.12-.08-.25-.13-.39-.16-.02,0-.04,0-.06-.01h-.06c-.05-.01-.1-.01-.15-.01-.32,0-.62.12-.84.32-.04.13-.06.26-.06.4,0,.6.42,1.11.99,1.23.02,0,.04.01.06.01s.04.01.06.01c.04,0,.09.01.13.01.33,0,.64-.14.86-.35.01,0,.02,0,.03-.02.03-.11.05-.23.05-.35,0-.08,0-.15-.02-.22ZM10.39,6.44c0-.08-.03-.15-.06-.21-.05-.14-.12-.26-.21-.37h-.01s-.01-.02-.02-.03c-.08-.1-.18-.18-.29-.25h-.01c-.12-.08-.25-.13-.39-.16-.02,0-.04,0-.06-.01h-.06s-.1-.01-.15-.01c-.32,0-.62.12-.84.32-.04.13-.06.26-.06.4,0,.6.42,1.11.99,1.23.02,0,.04.01.06.01s.04.01.06.01c.04,0,.09.01.13.01.34,0,.64-.14.87-.35,0,0,.01,0,.02-.02.03-.11.05-.23.05-.35,0-.08-.01-.15-.02-.22ZM10.39,6.44c0-.08-.03-.15-.06-.21-.05-.14-.12-.26-.21-.37h-.01s-.01-.02-.02-.03c-.08-.1-.18-.18-.29-.25h-.01c-.12-.08-.25-.13-.39-.16-.02,0-.04,0-.06-.01h-.06s-.1-.01-.15-.01c-.32,0-.62.12-.84.32-.04.13-.06.26-.06.4,0,.6.42,1.11.99,1.23.02,0,.04.01.06.01s.04.01.06.01c.04,0,.09.01.13.01.34,0,.64-.14.87-.35,0,0,.01,0,.02-.02.03-.11.05-.23.05-.35,0-.08-.01-.15-.02-.22ZM14.05,6.44c-.01-.08-.03-.15-.06-.21-.05-.14-.12-.26-.21-.37h-.01s-.01-.02-.02-.03c-.08-.1-.18-.18-.29-.25h-.01c-.12-.08-.25-.13-.39-.16-.02,0-.04,0-.06-.01h-.06c-.05-.01-.1-.01-.15-.01-.32,0-.62.12-.84.32-.04.13-.06.26-.06.4,0,.6.42,1.11.99,1.23.02,0,.04.01.06.01s.04.01.06.01c.04,0,.09.01.13.01.33,0,.64-.14.86-.35.01,0,.02,0,.03-.02.03-.11.05-.23.05-.35,0-.08,0-.15-.02-.22ZM17.71,6.46s-.01-.08-.03-.12c-.01-.03-.01-.05-.03-.07-.02-.08-.06-.15-.1-.22,0-.02-.01-.03-.02-.04-.02-.03-.03-.06-.05-.09-.02-.02-.04-.04-.05-.06,0-.02-.01-.02-.01-.02,0,0-.01-.02-.02-.02,0-.01-.01-.02-.02-.01t-.01-.02s-.02-.03-.04-.04c0-.01-.01-.02-.02-.01l-.03-.03s-.07-.07-.11-.09c-.03-.02-.06-.04-.08-.05-.05-.03-.11-.06-.16-.08s-.11-.04-.16-.05c-.04-.01-.07-.02-.11-.03h-.06s-.1-.01-.15-.01c-.32,0-.62.12-.84.32-.04.13-.06.26-.06.4v.07s.01.11.02.16c.01.04.01.08.03.12,0,.03.01.06.03.09,0,.02,0,.04.02.06.01.03.03.06.05.09,0,.02.01.03.02.05.01.01.01.02.02.02.01.02.01.03.03.05.04.06.08.11.13.16.01.02.03.03.04.04,0,.01.03.03.04.04.02.01.03.03.05.04.02.02.04.03.06.04.01.01.02.02.03.02.01.01.02.02.03.02.01.01.02.02.03.02.08.05.17.08.26.11,0,.01.03.01.05.02.02,0,.03.01.05.01s.04.01.06.01.04.01.06.01c.04,0,.09.01.13.01.34,0,.64-.14.86-.35.01,0,.02,0,.03-.02.03-.11.05-.23.05-.35,0-.07-.01-.14-.02-.2ZM17.71,6.46s-.01-.08-.03-.12c-.01-.03-.01-.05-.03-.07-.02-.08-.06-.15-.1-.22,0-.02-.01-.03-.02-.04-.02-.03-.03-.06-.05-.09-.02-.02-.04-.04-.05-.06,0-.02-.01-.02-.01-.02,0,0-.01-.02-.02-.02,0-.01-.01-.02-.02-.01t-.01-.02s-.02-.03-.04-.04c0-.01-.01-.02-.02-.01l-.03-.03s-.07-.07-.11-.09c-.03-.02-.06-.04-.08-.05-.05-.03-.11-.06-.16-.08s-.11-.04-.16-.05c-.04-.01-.07-.02-.11-.03h-.06s-.1-.01-.15-.01c-.32,0-.62.12-.84.32-.04.13-.06.26-.06.4v.07s.01.11.02.16c.01.04.01.08.03.12,0,.03.01.06.03.09,0,.02,0,.04.02.06.01.03.03.06.05.09,0,.02.01.03.02.05.01.01.01.02.02.02.01.02.01.03.03.05.04.06.08.11.13.16.01.02.03.03.04.04,0,.01.03.03.04.04.02.01.03.03.05.04.02.02.04.03.06.04.01.01.02.02.03.02.01.01.02.02.03.02.01.01.02.02.03.02.08.05.17.08.26.11,0,.01.03.01.05.02.02,0,.03.01.05.01s.04.01.06.01.04.01.06.01c.04,0,.09.01.13.01.34,0,.64-.14.86-.35.01,0,.02,0,.03-.02.03-.11.05-.23.05-.35,0-.07-.01-.14-.02-.2ZM14.05,6.44c-.01-.08-.03-.15-.06-.21-.05-.14-.12-.26-.21-.37h-.01s-.01-.02-.02-.03c-.08-.1-.18-.18-.29-.25h-.01c-.12-.08-.25-.13-.39-.16-.02,0-.04,0-.06-.01h-.06c-.05-.01-.1-.01-.15-.01-.32,0-.62.12-.84.32-.04.13-.06.26-.06.4,0,.6.42,1.11.99,1.23.02,0,.04.01.06.01s.04.01.06.01c.04,0,.09.01.13.01.33,0,.64-.14.86-.35.01,0,.02,0,.03-.02.03-.11.05-.23.05-.35,0-.08,0-.15-.02-.22ZM10.39,6.44c0-.08-.03-.15-.06-.21-.05-.14-.12-.26-.21-.37h-.01s-.01-.02-.02-.03c-.08-.1-.18-.18-.29-.25h-.01c-.12-.08-.25-.13-.39-.16-.02,0-.04,0-.06-.01h-.06s-.1-.01-.15-.01c-.32,0-.62.12-.84.32-.04.13-.06.26-.06.4,0,.6.42,1.11.99,1.23.02,0,.04.01.06.01s.04.01.06.01c.04,0,.09.01.13.01.34,0,.64-.14.87-.35,0,0,.01,0,.02-.02.03-.11.05-.23.05-.35,0-.08-.01-.15-.02-.22ZM10.39,6.44c0-.08-.03-.15-.06-.21-.05-.14-.12-.26-.21-.37h-.01s-.01-.02-.02-.03c-.08-.1-.18-.18-.29-.25h-.01c-.12-.08-.25-.13-.39-.16-.02,0-.04,0-.06-.01h-.06s-.1-.01-.15-.01c-.32,0-.62.12-.84.32-.04.13-.06.26-.06.4,0,.6.42,1.11.99,1.23.02,0,.04.01.06.01s.04.01.06.01c.04,0,.09.01.13.01.34,0,.64-.14.87-.35,0,0,.01,0,.02-.02.03-.11.05-.23.05-.35,0-.08-.01-.15-.02-.22ZM14.05,6.44c-.01-.08-.03-.15-.06-.21-.05-.14-.12-.26-.21-.37h-.01s-.01-.02-.02-.03c-.08-.1-.18-.18-.29-.25h-.01c-.12-.08-.25-.13-.39-.16-.02,0-.04,0-.06-.01h-.06c-.05-.01-.1-.01-.15-.01-.32,0-.62.12-.84.32-.04.13-.06.26-.06.4,0,.6.42,1.11.99,1.23.02,0,.04.01.06.01s.04.01.06.01c.04,0,.09.01.13.01.33,0,.64-.14.86-.35.01,0,.02,0,.03-.02.03-.11.05-.23.05-.35,0-.08,0-.15-.02-.22ZM17.71,6.46s-.01-.08-.03-.12c-.01-.03-.01-.05-.03-.07-.02-.08-.06-.15-.1-.22,0-.02-.01-.03-.02-.04-.02-.03-.03-.06-.05-.09-.02-.02-.04-.04-.05-.06,0-.02-.01-.02-.01-.02,0,0-.01-.02-.02-.02,0-.01-.01-.02-.02-.01t-.01-.02s-.02-.03-.04-.04c0-.01-.01-.02-.02-.01l-.03-.03s-.07-.07-.11-.09c-.03-.02-.06-.04-.08-.05-.05-.03-.11-.06-.16-.08s-.11-.04-.16-.05c-.04-.01-.07-.02-.11-.03h-.06s-.1-.01-.15-.01c-.32,0-.62.12-.84.32-.04.13-.06.26-.06.4v.07s.01.11.02.16c.01.04.01.08.03.12,0,.03.01.06.03.09,0,.02,0,.04.02.06.01.03.03.06.05.09,0,.02.01.03.02.05.01.01.01.02.02.02.01.02.01.03.03.05.04.06.08.11.13.16.01.02.03.03.04.04,0,.01.03.03.04.04.02.01.03.03.05.04.02.02.04.03.06.04.01.01.02.02.03.02.01.01.02.02.03.02.01.01.02.02.03.02.08.05.17.08.26.11,0,.01.03.01.05.02.02,0,.03.01.05.01s.04.01.06.01.04.01.06.01c.04,0,.09.01.13.01.34,0,.64-.14.86-.35.01,0,.02,0,.03-.02.03-.11.05-.23.05-.35,0-.07-.01-.14-.02-.2ZM17.71,6.46s-.01-.08-.03-.12c-.01-.03-.01-.05-.03-.07-.02-.08-.06-.15-.1-.22,0-.02-.01-.03-.02-.04-.02-.03-.03-.06-.05-.09-.02-.02-.04-.04-.05-.06,0-.02-.01-.02-.01-.02,0,0-.01-.02-.02-.02,0-.01-.01-.02-.02-.01t-.01-.02s-.02-.03-.04-.04c0-.01-.01-.02-.02-.01l-.03-.03s-.07-.07-.11-.09c-.03-.02-.06-.04-.08-.05-.05-.03-.11-.06-.16-.08s-.11-.04-.16-.05c-.04-.01-.07-.02-.11-.03h-.06s-.1-.01-.15-.01c-.32,0-.62.12-.84.32-.04.13-.06.26-.06.4v.07s.01.11.02.16c.01.04.01.08.03.12,0,.03.01.06.03.09,0,.02,0,.04.02.06.01.03.03.06.05.09,0,.02.01.03.02.05.01.01.01.02.02.02.01.02.01.03.03.05.04.06.08.11.13.16.01.02.03.03.04.04,0,.01.03.03.04.04.02.01.03.03.05.04.02.02.04.03.06.04.01.01.02.02.03.02.01.01.02.02.03.02.01.01.02.02.03.02.08.05.17.08.26.11,0,.01.03.01.05.02.02,0,.03.01.05.01s.04.01.06.01.04.01.06.01c.04,0,.09.01.13.01.34,0,.64-.14.86-.35.01,0,.02,0,.03-.02.03-.11.05-.23.05-.35,0-.07-.01-.14-.02-.2ZM14.05,6.44c-.01-.08-.03-.15-.06-.21-.05-.14-.12-.26-.21-.37h-.01s-.01-.02-.02-.03c-.08-.1-.18-.18-.29-.25h-.01c-.12-.08-.25-.13-.39-.16-.02,0-.04,0-.06-.01h-.06c-.05-.01-.1-.01-.15-.01-.32,0-.62.12-.84.32-.04.13-.06.26-.06.4,0,.6.42,1.11.99,1.23.02,0,.04.01.06.01s.04.01.06.01c.04,0,.09.01.13.01.33,0,.64-.14.86-.35.01,0,.02,0,.03-.02.03-.11.05-.23.05-.35,0-.08,0-.15-.02-.22ZM10.39,6.44c0-.08-.03-.15-.06-.21-.05-.14-.12-.26-.21-.37h-.01s-.01-.02-.02-.03c-.08-.1-.18-.18-.29-.25h-.01c-.12-.08-.25-.13-.39-.16-.02,0-.04,0-.06-.01h-.06s-.1-.01-.15-.01c-.32,0-.62.12-.84.32-.04.13-.06.26-.06.4,0,.6.42,1.11.99,1.23.02,0,.04.01.06.01s.04.01.06.01c.04,0,.09.01.13.01.34,0,.64-.14.87-.35,0,0,.01,0,.02-.02.03-.11.05-.23.05-.35,0-.08-.01-.15-.02-.22ZM10.39,6.44c0-.08-.03-.15-.06-.21-.05-.14-.12-.26-.21-.37h-.01s-.01-.02-.02-.03c-.08-.1-.18-.18-.29-.25h-.01c-.12-.08-.25-.13-.39-.16-.02,0-.04,0-.06-.01h-.06s-.1-.01-.15-.01c-.32,0-.62.12-.84.32-.04.13-.06.26-.06.4,0,.6.42,1.11.99,1.23.02,0,.04.01.06.01s.04.01.06.01c.04,0,.09.01.13.01.34,0,.64-.14.87-.35,0,0,.01,0,.02-.02.03-.11.05-.23.05-.35,0-.08-.01-.15-.02-.22ZM14.05,6.44c-.01-.08-.03-.15-.06-.21-.05-.14-.12-.26-.21-.37h-.01s-.01-.02-.02-.03c-.08-.1-.18-.18-.29-.25h-.01c-.12-.08-.25-.13-.39-.16-.02,0-.04,0-.06-.01h-.06c-.05-.01-.1-.01-.15-.01-.32,0-.62.12-.84.32-.04.13-.06.26-.06.4,0,.6.42,1.11.99,1.23.02,0,.04.01.06.01s.04.01.06.01c.04,0,.09.01.13.01.33,0,.64-.14.86-.35.01,0,.02,0,.03-.02.03-.11.05-.23.05-.35,0-.08,0-.15-.02-.22ZM17.71,6.46s-.01-.08-.03-.12c-.01-.03-.01-.05-.03-.07-.02-.08-.06-.15-.1-.22,0-.02-.01-.03-.02-.04-.02-.03-.03-.06-.05-.09-.02-.02-.04-.04-.05-.06,0-.02-.01-.02-.01-.02,0,0-.01-.02-.02-.02,0-.01-.01-.02-.02-.01t-.01-.02s-.02-.03-.04-.04c0-.01-.01-.02-.02-.01l-.03-.03s-.07-.07-.11-.09c-.03-.02-.06-.04-.08-.05-.05-.03-.11-.06-.16-.08s-.11-.04-.16-.05c-.04-.01-.07-.02-.11-.03h-.06s-.1-.01-.15-.01c-.32,0-.62.12-.84.32-.04.13-.06.26-.06.4v.07s.01.11.02.16c.01.04.01.08.03.12,0,.03.01.06.03.09,0,.02,0,.04.02.06.01.03.03.06.05.09,0,.02.01.03.02.05.01.01.01.02.02.02.01.02.01.03.03.05.04.06.08.11.13.16.01.02.03.03.04.04,0,.01.03.03.04.04.02.01.03.03.05.04.02.02.04.03.06.04.01.01.02.02.03.02.01.01.02.02.03.02.01.01.02.02.03.02.08.05.17.08.26.11,0,.01.03.01.05.02.02,0,.03.01.05.01s.04.01.06.01.04.01.06.01c.04,0,.09.01.13.01.34,0,.64-.14.86-.35.01,0,.02,0,.03-.02.03-.11.05-.23.05-.35,0-.07-.01-.14-.02-.2ZM17.71,6.46s-.01-.08-.03-.12c-.01-.03-.01-.05-.03-.07-.02-.08-.06-.15-.1-.22,0-.02-.01-.03-.02-.04-.02-.03-.03-.06-.05-.09-.02-.02-.04-.04-.05-.06,0-.02-.01-.02-.01-.02,0,0-.01-.02-.02-.02,0-.01-.01-.02-.02-.01t-.01-.02s-.02-.03-.04-.04c0-.01-.01-.02-.02-.01l-.03-.03s-.07-.07-.11-.09c-.03-.02-.06-.04-.08-.05-.05-.03-.11-.06-.16-.08s-.11-.04-.16-.05c-.04-.01-.07-.02-.11-.03h-.06s-.1-.01-.15-.01c-.32,0-.62.12-.84.32-.04.13-.06.26-.06.4v.07s.01.11.02.16c.01.04.01.08.03.12,0,.03.01.06.03.09,0,.02,0,.04.02.06.01.03.03.06.05.09,0,.02.01.03.02.05.01.01.01.02.02.02.01.02.01.03.03.05.04.06.08.11.13.16.01.02.03.03.04.04,0,.01.03.03.04.04.02.01.03.03.05.04.02.02.04.03.06.04.01.01.02.02.03.02.01.01.02.02.03.02.01.01.02.02.03.02.08.05.17.08.26.11,0,.01.03.01.05.02.02,0,.03.01.05.01s.04.01.06.01.04.01.06.01c.04,0,.09.01.13.01.34,0,.64-.14.86-.35.01,0,.02,0,.03-.02.03-.11.05-.23.05-.35,0-.07-.01-.14-.02-.2ZM14.05,6.44c-.01-.08-.03-.15-.06-.21-.05-.14-.12-.26-.21-.37h-.01s-.01-.02-.02-.03c-.08-.1-.18-.18-.29-.25h-.01c-.12-.08-.25-.13-.39-.16-.02,0-.04,0-.06-.01h-.06c-.05-.01-.1-.01-.15-.01-.32,0-.62.12-.84.32-.04.13-.06.26-.06.4,0,.6.42,1.11.99,1.23.02,0,.04.01.06.01s.04.01.06.01c.04,0,.09.01.13.01.33,0,.64-.14.86-.35.01,0,.02,0,.03-.02.03-.11.05-.23.05-.35,0-.08,0-.15-.02-.22ZM10.39,6.44c0-.08-.03-.15-.06-.21-.05-.14-.12-.26-.21-.37h-.01s-.01-.02-.02-.03c-.08-.1-.18-.18-.29-.25h-.01c-.12-.08-.25-.13-.39-.16-.02,0-.04,0-.06-.01h-.06s-.1-.01-.15-.01c-.32,0-.62.12-.84.32-.04.13-.06.26-.06.4,0,.6.42,1.11.99,1.23.02,0,.04.01.06.01s.04.01.06.01c.04,0,.09.01.13.01.34,0,.64-.14.87-.35,0,0,.01,0,.02-.02.03-.11.05-.23.05-.35,0-.08-.01-.15-.02-.22ZM10.39,6.44c0-.08-.03-.15-.06-.21-.05-.14-.12-.26-.21-.37h-.01s-.01-.02-.02-.03c-.08-.1-.18-.18-.29-.25h-.01c-.12-.08-.25-.13-.39-.16-.02,0-.04,0-.06-.01h-.06s-.1-.01-.15-.01c-.32,0-.62.12-.84.32-.04.13-.06.26-.06.4,0,.6.42,1.11.99,1.23.02,0,.04.01.06.01s.04.01.06.01c.04,0,.09.01.13.01.34,0,.64-.14.87-.35,0,0,.01,0,.02-.02.03-.11.05-.23.05-.35,0-.08-.01-.15-.02-.22ZM14.05,6.44c-.01-.08-.03-.15-.06-.21-.05-.14-.12-.26-.21-.37h-.01s-.01-.02-.02-.03c-.08-.1-.18-.18-.29-.25h-.01c-.12-.08-.25-.13-.39-.16-.02,0-.04,0-.06-.01h-.06c-.05-.01-.1-.01-.15-.01-.32,0-.62.12-.84.32-.04.13-.06.26-.06.4,0,.6.42,1.11.99,1.23.02,0,.04.01.06.01s.04.01.06.01c.04,0,.09.01.13.01.33,0,.64-.14.86-.35.01,0,.02,0,.03-.02.03-.11.05-.23.05-.35,0-.08,0-.15-.02-.22ZM17.71,6.46s-.01-.08-.03-.12c-.01-.03-.01-.05-.03-.07-.02-.08-.06-.15-.1-.22,0-.02-.01-.03-.02-.04-.02-.03-.03-.06-.05-.09-.02-.02-.04-.04-.05-.06,0-.02-.01-.02-.01-.02,0,0-.01-.02-.02-.02,0-.01-.01-.02-.02-.01t-.01-.02s-.02-.03-.04-.04c0-.01-.01-.02-.02-.01l-.03-.03s-.07-.07-.11-.09c-.03-.02-.06-.04-.08-.05-.05-.03-.11-.06-.16-.08s-.11-.04-.16-.05c-.04-.01-.07-.02-.11-.03h-.06s-.1-.01-.15-.01c-.32,0-.62.12-.84.32-.04.13-.06.26-.06.4v.07s.01.11.02.16c.01.04.01.08.03.12,0,.03.01.06.03.09,0,.02,0,.04.02.06.01.03.03.06.05.09,0,.02.01.03.02.05.01.01.01.02.02.02.01.02.01.03.03.05.04.06.08.11.13.16.01.02.03.03.04.04,0,.01.03.03.04.04.02.01.03.03.05.04.02.02.04.03.06.04.01.01.02.02.03.02.01.01.02.02.03.02.01.01.02.02.03.02.08.05.17.08.26.11,0,.01.03.01.05.02.02,0,.03.01.05.01s.04.01.06.01.04.01.06.01c.04,0,.09.01.13.01.34,0,.64-.14.86-.35.01,0,.02,0,.03-.02.03-.11.05-.23.05-.35,0-.07-.01-.14-.02-.2ZM17.71,6.46s-.01-.08-.03-.12c-.01-.03-.01-.05-.03-.07-.02-.08-.06-.15-.1-.22,0-.02-.01-.03-.02-.04-.02-.03-.03-.06-.05-.09-.02-.02-.04-.04-.05-.06,0-.02-.01-.02-.01-.02,0,0-.01-.02-.02-.02,0-.01-.01-.02-.02-.01t-.01-.02s-.02-.03-.04-.04c0-.01-.01-.02-.02-.01l-.03-.03s-.07-.07-.11-.09c-.03-.02-.06-.04-.08-.05-.05-.03-.11-.06-.16-.08s-.11-.04-.16-.05c-.04-.01-.07-.02-.11-.03h-.06s-.1-.01-.15-.01c-.32,0-.62.12-.84.32-.04.13-.06.26-.06.4v.07s.01.11.02.16c.01.04.01.08.03.12,0,.03.01.06.03.09,0,.02,0,.04.02.06.01.03.03.06.05.09,0,.02.01.03.02.05.01.01.01.02.02.02.01.02.01.03.03.05.04.06.08.11.13.16.01.02.03.03.04.04,0,.01.03.03.04.04.02.01.03.03.05.04.02.02.04.03.06.04.01.01.02.02.03.02.01.01.02.02.03.02.01.01.02.02.03.02.08.05.17.08.26.11,0,.01.03.01.05.02.02,0,.03.01.05.01s.04.01.06.01.04.01.06.01c.04,0,.09.01.13.01.34,0,.64-.14.86-.35.01,0,.02,0,.03-.02.03-.11.05-.23.05-.35,0-.07-.01-.14-.02-.2ZM14.05,6.44c-.01-.08-.03-.15-.06-.21-.05-.14-.12-.26-.21-.37h-.01s-.01-.02-.02-.03c-.08-.1-.18-.18-.29-.25h-.01c-.12-.08-.25-.13-.39-.16-.02,0-.04,0-.06-.01h-.06c-.05-.01-.1-.01-.15-.01-.32,0-.62.12-.84.32-.04.13-.06.26-.06.4,0,.6.42,1.11.99,1.23.02,0,.04.01.06.01s.04.01.06.01c.04,0,.09.01.13.01.33,0,.64-.14.86-.35.01,0,.02,0,.03-.02.03-.11.05-.23.05-.35,0-.08,0-.15-.02-.22ZM10.39,6.44c0-.08-.03-.15-.06-.21-.05-.14-.12-.26-.21-.37h-.01s-.01-.02-.02-.03c-.08-.1-.18-.18-.29-.25h-.01c-.12-.08-.25-.13-.39-.16-.02,0-.04,0-.06-.01h-.06s-.1-.01-.15-.01c-.32,0-.62.12-.84.32-.04.13-.06.26-.06.4,0,.6.42,1.11.99,1.23.02,0,.04.01.06.01s.04.01.06.01c.04,0,.09.01.13.01.34,0,.64-.14.87-.35,0,0,.01,0,.02-.02.03-.11.05-.23.05-.35,0-.08-.01-.15-.02-.22ZM10.39,6.44c0-.08-.03-.15-.06-.21-.05-.14-.12-.26-.21-.37h-.01s-.01-.02-.02-.03c-.08-.1-.18-.18-.29-.25h-.01c-.12-.08-.25-.13-.39-.16-.02,0-.04,0-.06-.01h-.06s-.1-.01-.15-.01c-.32,0-.62.12-.84.32-.04.13-.06.26-.06.4,0,.6.42,1.11.99,1.23.02,0,.04.01.06.01s.04.01.06.01c.04,0,.09.01.13.01.34,0,.64-.14.87-.35,0,0,.01,0,.02-.02.03-.11.05-.23.05-.35,0-.08-.01-.15-.02-.22ZM14.05,6.44c-.01-.08-.03-.15-.06-.21-.05-.14-.12-.26-.21-.37h-.01s-.01-.02-.02-.03c-.08-.1-.18-.18-.29-.25h-.01c-.12-.08-.25-.13-.39-.16-.02,0-.04,0-.06-.01h-.06c-.05-.01-.1-.01-.15-.01-.32,0-.62.12-.84.32-.04.13-.06.26-.06.4,0,.6.42,1.11.99,1.23.02,0,.04.01.06.01s.04.01.06.01c.04,0,.09.01.13.01.33,0,.64-.14.86-.35.01,0,.02,0,.03-.02.03-.11.05-.23.05-.35,0-.08,0-.15-.02-.22ZM17.71,6.46s-.01-.08-.03-.12c-.01-.03-.01-.05-.03-.07-.02-.08-.06-.15-.1-.22,0-.02-.01-.03-.02-.04-.02-.03-.03-.06-.05-.09-.02-.02-.04-.04-.05-.06,0-.02-.01-.02-.01-.02,0,0-.01-.02-.02-.02,0-.01-.01-.02-.02-.01t-.01-.02s-.02-.03-.04-.04c0-.01-.01-.02-.02-.01l-.03-.03s-.07-.07-.11-.09c-.03-.02-.06-.04-.08-.05-.05-.03-.11-.06-.16-.08s-.11-.04-.16-.05c-.04-.01-.07-.02-.11-.03h-.06s-.1-.01-.15-.01c-.32,0-.62.12-.84.32-.04.13-.06.26-.06.4v.07s.01.11.02.16c.01.04.01.08.03.12,0,.03.01.06.03.09,0,.02,0,.04.02.06.01.03.03.06.05.09,0,.02.01.03.02.05.01.01.01.02.02.02.01.02.01.03.03.05.04.06.08.11.13.16.01.02.03.03.04.04,0,.01.03.03.04.04.02.01.03.03.05.04.02.02.04.03.06.04.01.01.02.02.03.02.01.01.02.02.03.02.01.01.02.02.03.02.08.05.17.08.26.11,0,.01.03.01.05.02.02,0,.03.01.05.01s.04.01.06.01.04.01.06.01c.04,0,.09.01.13.01.34,0,.64-.14.86-.35.01,0,.02,0,.03-.02.03-.11.05-.23.05-.35,0-.07-.01-.14-.02-.2ZM17.71,6.46s-.01-.08-.03-.12c-.01-.03-.01-.05-.03-.07-.02-.08-.06-.15-.1-.22,0-.02-.01-.03-.02-.04-.02-.03-.03-.06-.05-.09-.02-.02-.04-.04-.05-.06,0-.02-.01-.02-.01-.02,0,0-.01-.02-.02-.02,0-.01-.01-.02-.02-.01t-.01-.02s-.02-.03-.04-.04c0-.01-.01-.02-.02-.01l-.03-.03s-.07-.07-.11-.09c-.03-.02-.06-.04-.08-.05-.05-.03-.11-.06-.16-.08s-.11-.04-.16-.05c-.04-.01-.07-.02-.11-.03h-.06s-.1-.01-.15-.01c-.32,0-.62.12-.84.32-.04.13-.06.26-.06.4v.07s.01.11.02.16c.01.04.01.08.03.12,0,.03.01.06.03.09,0,.02,0,.04.02.06.01.03.03.06.05.09,0,.02.01.03.02.05.01.01.01.02.02.02.01.02.01.03.03.05.04.06.08.11.13.16.01.02.03.03.04.04,0,.01.03.03.04.04.02.01.03.03.05.04.02.02.04.03.06.04.01.01.02.02.03.02.01.01.02.02.03.02.01.01.02.02.03.02.08.05.17.08.26.11,0,.01.03.01.05.02.02,0,.03.01.05.01s.04.01.06.01.04.01.06.01c.04,0,.09.01.13.01.34,0,.64-.14.86-.35.01,0,.02,0,.03-.02.03-.11.05-.23.05-.35,0-.07-.01-.14-.02-.2ZM13.99,6.23c-.05-.14-.12-.26-.21-.37h-.01s-.01-.02-.02-.03c-.08-.1-.18-.18-.29-.25h-.01c-.12-.08-.25-.13-.39-.16-.02,0-.04,0-.06-.01h-.06c-.05-.01-.1-.01-.15-.01-.32,0-.62.12-.84.32-.04.13-.06.26-.06.4,0,.6.42,1.11.99,1.23.02,0,.04.01.06.01s.04.01.06.01c.04,0,.09.01.13.01.33,0,.64-.14.86-.35.01,0,.02,0,.03-.02.03-.11.05-.23.05-.35,0-.08,0-.15-.02-.22-.01-.08-.03-.15-.06-.21ZM10.33,6.23c-.05-.14-.12-.26-.21-.37h-.01s-.01-.02-.02-.03c-.08-.1-.18-.18-.29-.25h-.01c-.12-.08-.25-.13-.39-.16-.02,0-.04,0-.06-.01h-.06s-.1-.01-.15-.01c-.32,0-.62.12-.84.32-.04.13-.06.26-.06.4,0,.6.42,1.11.99,1.23.02,0,.04.01.06.01s.04.01.06.01c.04,0,.09.01.13.01.34,0,.64-.14.87-.35,0,0,.01,0,.02-.02.03-.11.05-.23.05-.35,0-.08-.01-.15-.02-.22,0-.08-.03-.15-.06-.21ZM42.89,0H5.5C2.46,0,0,2.24,0,4.99v33.9c0,2.76,2.46,4.99,5.5,4.99h2.91c.42,0,.77.34.77.76v4.98c0,.94,1.24,1.4,1.97.75l6.62-5.99c.35-.32.81-.5,1.29-.5h23.83c3.04,0,5.5-2.23,5.5-4.99V4.99c0-2.75-2.46-4.99-5.5-4.99ZM32.17,39.96h-14.32c-.55,0-1.06-.26-1.42-.66-.36-.41-.59-.97-.59-1.59,0-1.24.9-2.25,2.01-2.25h14.32c1.11,0,2.01,1.01,2.01,2.25s-.9,2.25-2.01,2.25ZM42.32,30.36c0,.79-.64,1.43-1.43,1.43H7.66c-.79,0-1.43-.64-1.43-1.43V12.98c0-.79.64-1.43,1.43-1.43h33.23c.79,0,1.43.64,1.43,1.43v17.38ZM42.34,7.83c0,.45-.29.81-.63.81H6.62c-.35,0-.63-.36-.63-.81v-2.65c0-1,.63-1.81,1.41-1.81h33.52c.78,0,1.42.81,1.42,1.81v2.65ZM17.68,6.34s-.01-.05-.03-.07c-.02-.08-.06-.15-.1-.22,0-.02-.01-.03-.02-.04-.02-.03-.03-.06-.05-.09-.02-.02-.04-.04-.05-.06,0-.02-.01-.02-.01-.02,0,0-.01-.02-.02-.02,0-.01-.01-.02-.02-.01t-.01-.02s-.02-.03-.04-.04c0-.01-.01-.02-.02-.01l-.03-.03s-.07-.07-.11-.09c-.03-.02-.06-.04-.08-.05-.05-.03-.11-.06-.16-.08s-.11-.04-.16-.05c-.04-.01-.07-.02-.11-.03h-.06s-.1-.01-.15-.01c-.32,0-.62.12-.84.32-.04.13-.06.26-.06.4v.07s.01.11.02.16c.01.04.01.08.03.12,0,.03.01.06.03.09,0,.02,0,.04.02.06.01.03.03.06.05.09,0,.02.01.03.02.05.01.01.01.02.02.02.01.02.01.03.03.05.04.06.08.11.13.16.01.02.03.03.04.04,0,.01.03.03.04.04.02.01.03.03.05.04.02.02.04.03.06.04.01.01.02.02.03.02.01.01.02.02.03.02.01.01.02.02.03.02.08.05.17.08.26.11,0,.01.03.01.05.02.02,0,.03.01.05.01s.04.01.06.01.04.01.06.01c.04,0,.09.01.13.01.34,0,.64-.14.86-.35.01,0,.02,0,.03-.02.03-.11.05-.23.05-.35,0-.07-.01-.14-.02-.2,0-.04-.01-.08-.03-.12ZM13.99,6.23c-.05-.14-.12-.26-.21-.37h-.01s-.01-.02-.02-.03c-.08-.1-.18-.18-.29-.25h-.01c-.12-.08-.25-.13-.39-.16-.02,0-.04,0-.06-.01h-.06c-.05-.01-.1-.01-.15-.01-.32,0-.62.12-.84.32-.04.13-.06.26-.06.4,0,.6.42,1.11.99,1.23.02,0,.04.01.06.01s.04.01.06.01c.04,0,.09.01.13.01.33,0,.64-.14.86-.35.01,0,.02,0,.03-.02.03-.11.05-.23.05-.35,0-.08,0-.15-.02-.22-.01-.08-.03-.15-.06-.21ZM10.33,6.23c-.05-.14-.12-.26-.21-.37h-.01s-.01-.02-.02-.03c-.08-.1-.18-.18-.29-.25h-.01c-.12-.08-.25-.13-.39-.16-.02,0-.04,0-.06-.01h-.06s-.1-.01-.15-.01c-.32,0-.62.12-.84.32-.04.13-.06.26-.06.4,0,.6.42,1.11.99,1.23.02,0,.04.01.06.01s.04.01.06.01c.04,0,.09.01.13.01.34,0,.64-.14.87-.35,0,0,.01,0,.02-.02.03-.11.05-.23.05-.35,0-.08-.01-.15-.02-.22,0-.08-.03-.15-.06-.21ZM10.39,6.44c0-.08-.03-.15-.06-.21-.05-.14-.12-.26-.21-.37h-.01s-.01-.02-.02-.03c-.08-.1-.18-.18-.29-.25h-.01c-.12-.08-.25-.13-.39-.16-.02,0-.04,0-.06-.01h-.06s-.1-.01-.15-.01c-.32,0-.62.12-.84.32-.04.13-.06.26-.06.4,0,.6.42,1.11.99,1.23.02,0,.04.01.06.01s.04.01.06.01c.04,0,.09.01.13.01.34,0,.64-.14.87-.35,0,0,.01,0,.02-.02.03-.11.05-.23.05-.35,0-.08-.01-.15-.02-.22ZM14.05,6.44c-.01-.08-.03-.15-.06-.21-.05-.14-.12-.26-.21-.37h-.01s-.01-.02-.02-.03c-.08-.1-.18-.18-.29-.25h-.01c-.12-.08-.25-.13-.39-.16-.02,0-.04,0-.06-.01h-.06c-.05-.01-.1-.01-.15-.01-.32,0-.62.12-.84.32-.04.13-.06.26-.06.4,0,.6.42,1.11.99,1.23.02,0,.04.01.06.01s.04.01.06.01c.04,0,.09.01.13.01.33,0,.64-.14.86-.35.01,0,.02,0,.03-.02.03-.11.05-.23.05-.35,0-.08,0-.15-.02-.22ZM17.71,6.46s-.01-.08-.03-.12c-.01-.03-.01-.05-.03-.07-.02-.08-.06-.15-.1-.22,0-.02-.01-.03-.02-.04-.02-.03-.03-.06-.05-.09-.02-.02-.04-.04-.05-.06,0-.02-.01-.02-.01-.02,0,0-.01-.02-.02-.02,0-.01-.01-.02-.02-.01t-.01-.02s-.02-.03-.04-.04c0-.01-.01-.02-.02-.01l-.03-.03s-.07-.07-.11-.09c-.03-.02-.06-.04-.08-.05-.05-.03-.11-.06-.16-.08s-.11-.04-.16-.05c-.04-.01-.07-.02-.11-.03h-.06s-.1-.01-.15-.01c-.32,0-.62.12-.84.32-.04.13-.06.26-.06.4v.07s.01.11.02.16c.01.04.01.08.03.12,0,.03.01.06.03.09,0,.02,0,.04.02.06.01.03.03.06.05.09,0,.02.01.03.02.05.01.01.01.02.02.02.01.02.01.03.03.05.04.06.08.11.13.16.01.02.03.03.04.04,0,.01.03.03.04.04.02.01.03.03.05.04.02.02.04.03.06.04.01.01.02.02.03.02.01.01.02.02.03.02.01.01.02.02.03.02.08.05.17.08.26.11,0,.01.03.01.05.02.02,0,.03.01.05.01s.04.01.06.01.04.01.06.01c.04,0,.09.01.13.01.34,0,.64-.14.86-.35.01,0,.02,0,.03-.02.03-.11.05-.23.05-.35,0-.07-.01-.14-.02-.2ZM17.71,6.46s-.01-.08-.03-.12c-.01-.03-.01-.05-.03-.07-.02-.08-.06-.15-.1-.22,0-.02-.01-.03-.02-.04-.02-.03-.03-.06-.05-.09-.02-.02-.04-.04-.05-.06,0-.02-.01-.02-.01-.02,0,0-.01-.02-.02-.02,0-.01-.01-.02-.02-.01t-.01-.02s-.02-.03-.04-.04c0-.01-.01-.02-.02-.01l-.03-.03s-.07-.07-.11-.09c-.03-.02-.06-.04-.08-.05-.05-.03-.11-.06-.16-.08s-.11-.04-.16-.05c-.04-.01-.07-.02-.11-.03h-.06s-.1-.01-.15-.01c-.32,0-.62.12-.84.32-.04.13-.06.26-.06.4v.07s.01.11.02.16c.01.04.01.08.03.12,0,.03.01.06.03.09,0,.02,0,.04.02.06.01.03.03.06.05.09,0,.02.01.03.02.05.01.01.01.02.02.02.01.02.01.03.03.05.04.06.08.11.13.16.01.02.03.03.04.04,0,.01.03.03.04.04.02.01.03.03.05.04.02.02.04.03.06.04.01.01.02.02.03.02.01.01.02.02.03.02.01.01.02.02.03.02.08.05.17.08.26.11,0,.01.03.01.05.02.02,0,.03.01.05.01s.04.01.06.01.04.01.06.01c.04,0,.09.01.13.01.34,0,.64-.14.86-.35.01,0,.02,0,.03-.02.03-.11.05-.23.05-.35,0-.07-.01-.14-.02-.2ZM14.05,6.44c-.01-.08-.03-.15-.06-.21-.05-.14-.12-.26-.21-.37h-.01s-.01-.02-.02-.03c-.08-.1-.18-.18-.29-.25h-.01c-.12-.08-.25-.13-.39-.16-.02,0-.04,0-.06-.01h-.06c-.05-.01-.1-.01-.15-.01-.32,0-.62.12-.84.32-.04.13-.06.26-.06.4,0,.6.42,1.11.99,1.23.02,0,.04.01.06.01s.04.01.06.01c.04,0,.09.01.13.01.33,0,.64-.14.86-.35.01,0,.02,0,.03-.02.03-.11.05-.23.05-.35,0-.08,0-.15-.02-.22ZM10.39,6.44c0-.08-.03-.15-.06-.21-.05-.14-.12-.26-.21-.37h-.01s-.01-.02-.02-.03c-.08-.1-.18-.18-.29-.25h-.01c-.12-.08-.25-.13-.39-.16-.02,0-.04,0-.06-.01h-.06s-.1-.01-.15-.01c-.32,0-.62.12-.84.32-.04.13-.06.26-.06.4,0,.6.42,1.11.99,1.23.02,0,.04.01.06.01s.04.01.06.01c.04,0,.09.01.13.01.34,0,.64-.14.87-.35,0,0,.01,0,.02-.02.03-.11.05-.23.05-.35,0-.08-.01-.15-.02-.22ZM10.39,6.44c0-.08-.03-.15-.06-.21-.05-.14-.12-.26-.21-.37h-.01s-.01-.02-.02-.03c-.08-.1-.18-.18-.29-.25h-.01c-.12-.08-.25-.13-.39-.16-.02,0-.04,0-.06-.01h-.06s-.1-.01-.15-.01c-.32,0-.62.12-.84.32-.04.13-.06.26-.06.4,0,.6.42,1.11.99,1.23.02,0,.04.01.06.01s.04.01.06.01c.04,0,.09.01.13.01.34,0,.64-.14.87-.35,0,0,.01,0,.02-.02.03-.11.05-.23.05-.35,0-.08-.01-.15-.02-.22ZM14.05,6.44c-.01-.08-.03-.15-.06-.21-.05-.14-.12-.26-.21-.37h-.01s-.01-.02-.02-.03c-.08-.1-.18-.18-.29-.25h-.01c-.12-.08-.25-.13-.39-.16-.02,0-.04,0-.06-.01h-.06c-.05-.01-.1-.01-.15-.01-.32,0-.62.12-.84.32-.04.13-.06.26-.06.4,0,.6.42,1.11.99,1.23.02,0,.04.01.06.01s.04.01.06.01c.04,0,.09.01.13.01.33,0,.64-.14.86-.35.01,0,.02,0,.03-.02.03-.11.05-.23.05-.35,0-.08,0-.15-.02-.22ZM17.71,6.46s-.01-.08-.03-.12c-.01-.03-.01-.05-.03-.07-.02-.08-.06-.15-.1-.22,0-.02-.01-.03-.02-.04-.02-.03-.03-.06-.05-.09-.02-.02-.04-.04-.05-.06,0-.02-.01-.02-.01-.02,0,0-.01-.02-.02-.02,0-.01-.01-.02-.02-.01t-.01-.02s-.02-.03-.04-.04c0-.01-.01-.02-.02-.01l-.03-.03s-.07-.07-.11-.09c-.03-.02-.06-.04-.08-.05-.05-.03-.11-.06-.16-.08s-.11-.04-.16-.05c-.04-.01-.07-.02-.11-.03h-.06s-.1-.01-.15-.01c-.32,0-.62.12-.84.32-.04.13-.06.26-.06.4v.07s.01.11.02.16c.01.04.01.08.03.12,0,.03.01.06.03.09,0,.02,0,.04.02.06.01.03.03.06.05.09,0,.02.01.03.02.05.01.01.01.02.02.02.01.02.01.03.03.05.04.06.08.11.13.16.01.02.03.03.04.04,0,.01.03.03.04.04.02.01.03.03.05.04.02.02.04.03.06.04.01.01.02.02.03.02.01.01.02.02.03.02.01.01.02.02.03.02.08.05.17.08.26.11,0,.01.03.01.05.02.02,0,.03.01.05.01s.04.01.06.01.04.01.06.01c.04,0,.09.01.13.01.34,0,.64-.14.86-.35.01,0,.02,0,.03-.02.03-.11.05-.23.05-.35,0-.07-.01-.14-.02-.2ZM17.71,6.46s-.01-.08-.03-.12c-.01-.03-.01-.05-.03-.07-.02-.08-.06-.15-.1-.22,0-.02-.01-.03-.02-.04-.02-.03-.03-.06-.05-.09-.02-.02-.04-.04-.05-.06,0-.02-.01-.02-.01-.02,0,0-.01-.02-.02-.02,0-.01-.01-.02-.02-.01t-.01-.02s-.02-.03-.04-.04c0-.01-.01-.02-.02-.01l-.03-.03s-.07-.07-.11-.09c-.03-.02-.06-.04-.08-.05-.05-.03-.11-.06-.16-.08s-.11-.04-.16-.05c-.04-.01-.07-.02-.11-.03h-.06s-.1-.01-.15-.01c-.32,0-.62.12-.84.32-.04.13-.06.26-.06.4v.07s.01.11.02.16c.01.04.01.08.03.12,0,.03.01.06.03.09,0,.02,0,.04.02.06.01.03.03.06.05.09,0,.02.01.03.02.05.01.01.01.02.02.02.01.02.01.03.03.05.04.06.08.11.13.16.01.02.03.03.04.04,0,.01.03.03.04.04.02.01.03.03.05.04.02.02.04.03.06.04.01.01.02.02.03.02.01.01.02.02.03.02.01.01.02.02.03.02.08.05.17.08.26.11,0,.01.03.01.05.02.02,0,.03.01.05.01s.04.01.06.01.04.01.06.01c.04,0,.09.01.13.01.34,0,.64-.14.86-.35.01,0,.02,0,.03-.02.03-.11.05-.23.05-.35,0-.07-.01-.14-.02-.2ZM14.05,6.44c-.01-.08-.03-.15-.06-.21-.05-.14-.12-.26-.21-.37h-.01s-.01-.02-.02-.03c-.08-.1-.18-.18-.29-.25h-.01c-.12-.08-.25-.13-.39-.16-.02,0-.04,0-.06-.01h-.06c-.05-.01-.1-.01-.15-.01-.32,0-.62.12-.84.32-.04.13-.06.26-.06.4,0,.6.42,1.11.99,1.23.02,0,.04.01.06.01s.04.01.06.01c.04,0,.09.01.13.01.33,0,.64-.14.86-.35.01,0,.02,0,.03-.02.03-.11.05-.23.05-.35,0-.08,0-.15-.02-.22ZM10.39,6.44c0-.08-.03-.15-.06-.21-.05-.14-.12-.26-.21-.37h-.01s-.01-.02-.02-.03c-.08-.1-.18-.18-.29-.25h-.01c-.12-.08-.25-.13-.39-.16-.02,0-.04,0-.06-.01h-.06s-.1-.01-.15-.01c-.32,0-.62.12-.84.32-.04.13-.06.26-.06.4,0,.6.42,1.11.99,1.23.02,0,.04.01.06.01s.04.01.06.01c.04,0,.09.01.13.01.34,0,.64-.14.87-.35,0,0,.01,0,.02-.02.03-.11.05-.23.05-.35,0-.08-.01-.15-.02-.22ZM10.39,6.44c0-.08-.03-.15-.06-.21-.05-.14-.12-.26-.21-.37h-.01s-.01-.02-.02-.03c-.08-.1-.18-.18-.29-.25h-.01c-.12-.08-.25-.13-.39-.16-.02,0-.04,0-.06-.01h-.06s-.1-.01-.15-.01c-.32,0-.62.12-.84.32-.04.13-.06.26-.06.4,0,.6.42,1.11.99,1.23.02,0,.04.01.06.01s.04.01.06.01c.04,0,.09.01.13.01.34,0,.64-.14.87-.35,0,0,.01,0,.02-.02.03-.11.05-.23.05-.35,0-.08-.01-.15-.02-.22ZM14.05,6.44c-.01-.08-.03-.15-.06-.21-.05-.14-.12-.26-.21-.37h-.01s-.01-.02-.02-.03c-.08-.1-.18-.18-.29-.25h-.01c-.12-.08-.25-.13-.39-.16-.02,0-.04,0-.06-.01h-.06c-.05-.01-.1-.01-.15-.01-.32,0-.62.12-.84.32-.04.13-.06.26-.06.4,0,.6.42,1.11.99,1.23.02,0,.04.01.06.01s.04.01.06.01c.04,0,.09.01.13.01.33,0,.64-.14.86-.35.01,0,.02,0,.03-.02.03-.11.05-.23.05-.35,0-.08,0-.15-.02-.22ZM17.71,6.46s-.01-.08-.03-.12c-.01-.03-.01-.05-.03-.07-.02-.08-.06-.15-.1-.22,0-.02-.01-.03-.02-.04-.02-.03-.03-.06-.05-.09-.02-.02-.04-.04-.05-.06,0-.02-.01-.02-.01-.02,0,0-.01-.02-.02-.02,0-.01-.01-.02-.02-.01t-.01-.02s-.02-.03-.04-.04c0-.01-.01-.02-.02-.01l-.03-.03s-.07-.07-.11-.09c-.03-.02-.06-.04-.08-.05-.05-.03-.11-.06-.16-.08s-.11-.04-.16-.05c-.04-.01-.07-.02-.11-.03h-.06s-.1-.01-.15-.01c-.32,0-.62.12-.84.32-.04.13-.06.26-.06.4v.07s.01.11.02.16c.01.04.01.08.03.12,0,.03.01.06.03.09,0,.02,0,.04.02.06.01.03.03.06.05.09,0,.02.01.03.02.05.01.01.01.02.02.02.01.02.01.03.03.05.04.06.08.11.13.16.01.02.03.03.04.04,0,.01.03.03.04.04.02.01.03.03.05.04.02.02.04.03.06.04.01.01.02.02.03.02.01.01.02.02.03.02.01.01.02.02.03.02.08.05.17.08.26.11,0,.01.03.01.05.02.02,0,.03.01.05.01s.04.01.06.01.04.01.06.01c.04,0,.09.01.13.01.34,0,.64-.14.86-.35.01,0,.02,0,.03-.02.03-.11.05-.23.05-.35,0-.07-.01-.14-.02-.2ZM17.71,6.46s-.01-.08-.03-.12c-.01-.03-.01-.05-.03-.07-.02-.08-.06-.15-.1-.22,0-.02-.01-.03-.02-.04-.02-.03-.03-.06-.05-.09-.02-.02-.04-.04-.05-.06,0-.02-.01-.02-.01-.02,0,0-.01-.02-.02-.02,0-.01-.01-.02-.02-.01t-.01-.02s-.02-.03-.04-.04c0-.01-.01-.02-.02-.01l-.03-.03s-.07-.07-.11-.09c-.03-.02-.06-.04-.08-.05-.05-.03-.11-.06-.16-.08s-.11-.04-.16-.05c-.04-.01-.07-.02-.11-.03h-.06s-.1-.01-.15-.01c-.32,0-.62.12-.84.32-.04.13-.06.26-.06.4v.07s.01.11.02.16c.01.04.01.08.03.12,0,.03.01.06.03.09,0,.02,0,.04.02.06.01.03.03.06.05.09,0,.02.01.03.02.05.01.01.01.02.02.02.01.02.01.03.03.05.04.06.08.11.13.16.01.02.03.03.04.04,0,.01.03.03.04.04.02.01.03.03.05.04.02.02.04.03.06.04.01.01.02.02.03.02.01.01.02.02.03.02.01.01.02.02.03.02.08.05.17.08.26.11,0,.01.03.01.05.02.02,0,.03.01.05.01s.04.01.06.01.04.01.06.01c.04,0,.09.01.13.01.34,0,.64-.14.86-.35.01,0,.02,0,.03-.02.03-.11.05-.23.05-.35,0-.07-.01-.14-.02-.2ZM14.05,6.44c-.01-.08-.03-.15-.06-.21-.05-.14-.12-.26-.21-.37h-.01s-.01-.02-.02-.03c-.08-.1-.18-.18-.29-.25h-.01c-.12-.08-.25-.13-.39-.16-.02,0-.04,0-.06-.01h-.06c-.05-.01-.1-.01-.15-.01-.32,0-.62.12-.84.32-.04.13-.06.26-.06.4,0,.6.42,1.11.99,1.23.02,0,.04.01.06.01s.04.01.06.01c.04,0,.09.01.13.01.33,0,.64-.14.86-.35.01,0,.02,0,.03-.02.03-.11.05-.23.05-.35,0-.08,0-.15-.02-.22ZM10.39,6.44c0-.08-.03-.15-.06-.21-.05-.14-.12-.26-.21-.37h-.01s-.01-.02-.02-.03c-.08-.1-.18-.18-.29-.25h-.01c-.12-.08-.25-.13-.39-.16-.02,0-.04,0-.06-.01h-.06s-.1-.01-.15-.01c-.32,0-.62.12-.84.32-.04.13-.06.26-.06.4,0,.6.42,1.11.99,1.23.02,0,.04.01.06.01s.04.01.06.01c.04,0,.09.01.13.01.34,0,.64-.14.87-.35,0,0,.01,0,.02-.02.03-.11.05-.23.05-.35,0-.08-.01-.15-.02-.22ZM10.39,6.44c0-.08-.03-.15-.06-.21-.05-.14-.12-.26-.21-.37h-.01s-.01-.02-.02-.03c-.08-.1-.18-.18-.29-.25h-.01c-.12-.08-.25-.13-.39-.16-.02,0-.04,0-.06-.01h-.06s-.1-.01-.15-.01c-.32,0-.62.12-.84.32-.04.13-.06.26-.06.4,0,.6.42,1.11.99,1.23.02,0,.04.01.06.01s.04.01.06.01c.04,0,.09.01.13.01.34,0,.64-.14.87-.35,0,0,.01,0,.02-.02.03-.11.05-.23.05-.35,0-.08-.01-.15-.02-.22ZM14.05,6.44c-.01-.08-.03-.15-.06-.21-.05-.14-.12-.26-.21-.37h-.01s-.01-.02-.02-.03c-.08-.1-.18-.18-.29-.25h-.01c-.12-.08-.25-.13-.39-.16-.02,0-.04,0-.06-.01h-.06c-.05-.01-.1-.01-.15-.01-.32,0-.62.12-.84.32-.04.13-.06.26-.06.4,0,.6.42,1.11.99,1.23.02,0,.04.01.06.01s.04.01.06.01c.04,0,.09.01.13.01.33,0,.64-.14.86-.35.01,0,.02,0,.03-.02.03-.11.05-.23.05-.35,0-.08,0-.15-.02-.22ZM17.71,6.46s-.01-.08-.03-.12c-.01-.03-.01-.05-.03-.07-.02-.08-.06-.15-.1-.22,0-.02-.01-.03-.02-.04-.02-.03-.03-.06-.05-.09-.02-.02-.04-.04-.05-.06,0-.02-.01-.02-.01-.02,0,0-.01-.02-.02-.02,0-.01-.01-.02-.02-.01t-.01-.02s-.02-.03-.04-.04c0-.01-.01-.02-.02-.01l-.03-.03s-.07-.07-.11-.09c-.03-.02-.06-.04-.08-.05-.05-.03-.11-.06-.16-.08s-.11-.04-.16-.05c-.04-.01-.07-.02-.11-.03h-.06s-.1-.01-.15-.01c-.32,0-.62.12-.84.32-.04.13-.06.26-.06.4v.07s.01.11.02.16c.01.04.01.08.03.12,0,.03.01.06.03.09,0,.02,0,.04.02.06.01.03.03.06.05.09,0,.02.01.03.02.05.01.01.01.02.02.02.01.02.01.03.03.05.04.06.08.11.13.16.01.02.03.03.04.04,0,.01.03.03.04.04.02.01.03.03.05.04.02.02.04.03.06.04.01.01.02.02.03.02.01.01.02.02.03.02.01.01.02.02.03.02.08.05.17.08.26.11,0,.01.03.01.05.02.02,0,.03.01.05.01s.04.01.06.01.04.01.06.01c.04,0,.09.01.13.01.34,0,.64-.14.86-.35.01,0,.02,0,.03-.02.03-.11.05-.23.05-.35,0-.07-.01-.14-.02-.2ZM17.71,6.46s-.01-.08-.03-.12c-.01-.03-.01-.05-.03-.07-.02-.08-.06-.15-.1-.22,0-.02-.01-.03-.02-.04-.02-.03-.03-.06-.05-.09-.02-.02-.04-.04-.05-.06,0-.02-.01-.02-.01-.02,0,0-.01-.02-.02-.02,0-.01-.01-.02-.02-.01t-.01-.02s-.02-.03-.04-.04c0-.01-.01-.02-.02-.01l-.03-.03s-.07-.07-.11-.09c-.03-.02-.06-.04-.08-.05-.05-.03-.11-.06-.16-.08s-.11-.04-.16-.05c-.04-.01-.07-.02-.11-.03h-.06s-.1-.01-.15-.01c-.32,0-.62.12-.84.32-.04.13-.06.26-.06.4v.07s.01.11.02.16c.01.04.01.08.03.12,0,.03.01.06.03.09,0,.02,0,.04.02.06.01.03.03.06.05.09,0,.02.01.03.02.05.01.01.01.02.02.02.01.02.01.03.03.05.04.06.08.11.13.16.01.02.03.03.04.04,0,.01.03.03.04.04.02.01.03.03.05.04.02.02.04.03.06.04.01.01.02.02.03.02.01.01.02.02.03.02.01.01.02.02.03.02.08.05.17.08.26.11,0,.01.03.01.05.02.02,0,.03.01.05.01s.04.01.06.01.04.01.06.01c.04,0,.09.01.13.01.34,0,.64-.14.86-.35.01,0,.02,0,.03-.02.03-.11.05-.23.05-.35,0-.07-.01-.14-.02-.2ZM14.05,6.44c-.01-.08-.03-.15-.06-.21-.05-.14-.12-.26-.21-.37h-.01s-.01-.02-.02-.03c-.08-.1-.18-.18-.29-.25h-.01c-.12-.08-.25-.13-.39-.16-.02,0-.04,0-.06-.01h-.06c-.05-.01-.1-.01-.15-.01-.32,0-.62.12-.84.32-.04.13-.06.26-.06.4,0,.6.42,1.11.99,1.23.02,0,.04.01.06.01s.04.01.06.01c.04,0,.09.01.13.01.33,0,.64-.14.86-.35.01,0,.02,0,.03-.02.03-.11.05-.23.05-.35,0-.08,0-.15-.02-.22ZM10.39,6.44c0-.08-.03-.15-.06-.21-.05-.14-.12-.26-.21-.37h-.01s-.01-.02-.02-.03c-.08-.1-.18-.18-.29-.25h-.01c-.12-.08-.25-.13-.39-.16-.02,0-.04,0-.06-.01h-.06s-.1-.01-.15-.01c-.32,0-.62.12-.84.32-.04.13-.06.26-.06.4,0,.6.42,1.11.99,1.23.02,0,.04.01.06.01s.04.01.06.01c.04,0,.09.01.13.01.34,0,.64-.14.87-.35,0,0,.01,0,.02-.02.03-.11.05-.23.05-.35,0-.08-.01-.15-.02-.22ZM10.39,6.44c0-.08-.03-.15-.06-.21-.05-.14-.12-.26-.21-.37h-.01s-.01-.02-.02-.03c-.08-.1-.18-.18-.29-.25h-.01c-.12-.08-.25-.13-.39-.16-.02,0-.04,0-.06-.01h-.06s-.1-.01-.15-.01c-.32,0-.62.12-.84.32-.04.13-.06.26-.06.4,0,.6.42,1.11.99,1.23.02,0,.04.01.06.01s.04.01.06.01c.04,0,.09.01.13.01.34,0,.64-.14.87-.35,0,0,.01,0,.02-.02.03-.11.05-.23.05-.35,0-.08-.01-.15-.02-.22ZM14.05,6.44c-.01-.08-.03-.15-.06-.21-.05-.14-.12-.26-.21-.37h-.01s-.01-.02-.02-.03c-.08-.1-.18-.18-.29-.25h-.01c-.12-.08-.25-.13-.39-.16-.02,0-.04,0-.06-.01h-.06c-.05-.01-.1-.01-.15-.01-.32,0-.62.12-.84.32-.04.13-.06.26-.06.4,0,.6.42,1.11.99,1.23.02,0,.04.01.06.01s.04.01.06.01c.04,0,.09.01.13.01.33,0,.64-.14.86-.35.01,0,.02,0,.03-.02.03-.11.05-.23.05-.35,0-.08,0-.15-.02-.22ZM17.71,6.46s-.01-.08-.03-.12c-.01-.03-.01-.05-.03-.07-.02-.08-.06-.15-.1-.22,0-.02-.01-.03-.02-.04-.02-.03-.03-.06-.05-.09-.02-.02-.04-.04-.05-.06,0-.02-.01-.02-.01-.02,0,0-.01-.02-.02-.02,0-.01-.01-.02-.02-.01t-.01-.02s-.02-.03-.04-.04c0-.01-.01-.02-.02-.01l-.03-.03s-.07-.07-.11-.09c-.03-.02-.06-.04-.08-.05-.05-.03-.11-.06-.16-.08s-.11-.04-.16-.05c-.04-.01-.07-.02-.11-.03h-.06s-.1-.01-.15-.01c-.32,0-.62.12-.84.32-.04.13-.06.26-.06.4v.07s.01.11.02.16c.01.04.01.08.03.12,0,.03.01.06.03.09,0,.02,0,.04.02.06.01.03.03.06.05.09,0,.02.01.03.02.05.01.01.01.02.02.02.01.02.01.03.03.05.04.06.08.11.13.16.01.02.03.03.04.04,0,.01.03.03.04.04.02.01.03.03.05.04.02.02.04.03.06.04.01.01.02.02.03.02.01.01.02.02.03.02.01.01.02.02.03.02.08.05.17.08.26.11,0,.01.03.01.05.02.02,0,.03.01.05.01s.04.01.06.01.04.01.06.01c.04,0,.09.01.13.01.34,0,.64-.14.86-.35.01,0,.02,0,.03-.02.03-.11.05-.23.05-.35,0-.07-.01-.14-.02-.2ZM17.71,6.46s-.01-.08-.03-.12c-.01-.03-.01-.05-.03-.07-.02-.08-.06-.15-.1-.22,0-.02-.01-.03-.02-.04-.02-.03-.03-.06-.05-.09-.02-.02-.04-.04-.05-.06,0-.02-.01-.02-.01-.02,0,0-.01-.02-.02-.02,0-.01-.01-.02-.02-.01t-.01-.02s-.02-.03-.04-.04c0-.01-.01-.02-.02-.01l-.03-.03s-.07-.07-.11-.09c-.03-.02-.06-.04-.08-.05-.05-.03-.11-.06-.16-.08s-.11-.04-.16-.05c-.04-.01-.07-.02-.11-.03h-.06s-.1-.01-.15-.01c-.32,0-.62.12-.84.32-.04.13-.06.26-.06.4v.07s.01.11.02.16c.01.04.01.08.03.12,0,.03.01.06.03.09,0,.02,0,.04.02.06.01.03.03.06.05.09,0,.02.01.03.02.05.01.01.01.02.02.02.01.02.01.03.03.05.04.06.08.11.13.16.01.02.03.03.04.04,0,.01.03.03.04.04.02.01.03.03.05.04.02.02.04.03.06.04.01.01.02.02.03.02.01.01.02.02.03.02.01.01.02.02.03.02.08.05.17.08.26.11,0,.01.03.01.05.02.02,0,.03.01.05.01s.04.01.06.01.04.01.06.01c.04,0,.09.01.13.01.34,0,.64-.14.86-.35.01,0,.02,0,.03-.02.03-.11.05-.23.05-.35,0-.07-.01-.14-.02-.2ZM14.05,6.44c-.01-.08-.03-.15-.06-.21-.05-.14-.12-.26-.21-.37h-.01s-.01-.02-.02-.03c-.08-.1-.18-.18-.29-.25h-.01c-.12-.08-.25-.13-.39-.16-.02,0-.04,0-.06-.01h-.06c-.05-.01-.1-.01-.15-.01-.32,0-.62.12-.84.32-.04.13-.06.26-.06.4,0,.6.42,1.11.99,1.23.02,0,.04.01.06.01s.04.01.06.01c.04,0,.09.01.13.01.33,0,.64-.14.86-.35.01,0,.02,0,.03-.02.03-.11.05-.23.05-.35,0-.08,0-.15-.02-.22ZM10.39,6.44c0-.08-.03-.15-.06-.21-.05-.14-.12-.26-.21-.37h-.01s-.01-.02-.02-.03c-.08-.1-.18-.18-.29-.25h-.01c-.12-.08-.25-.13-.39-.16-.02,0-.04,0-.06-.01h-.06s-.1-.01-.15-.01c-.32,0-.62.12-.84.32-.04.13-.06.26-.06.4,0,.6.42,1.11.99,1.23.02,0,.04.01.06.01s.04.01.06.01c.04,0,.09.01.13.01.34,0,.64-.14.87-.35,0,0,.01,0,.02-.02.03-.11.05-.23.05-.35,0-.08-.01-.15-.02-.22ZM10.39,6.44c0-.08-.03-.15-.06-.21-.05-.14-.12-.26-.21-.37h-.01s-.01-.02-.02-.03c-.08-.1-.18-.18-.29-.25h-.01c-.12-.08-.25-.13-.39-.16-.02,0-.04,0-.06-.01h-.06s-.1-.01-.15-.01c-.32,0-.62.12-.84.32-.04.13-.06.26-.06.4,0,.6.42,1.11.99,1.23.02,0,.04.01.06.01s.04.01.06.01c.04,0,.09.01.13.01.34,0,.64-.14.87-.35,0,0,.01,0,.02-.02.03-.11.05-.23.05-.35,0-.08-.01-.15-.02-.22ZM14.05,6.44c-.01-.08-.03-.15-.06-.21-.05-.14-.12-.26-.21-.37h-.01s-.01-.02-.02-.03c-.08-.1-.18-.18-.29-.25h-.01c-.12-.08-.25-.13-.39-.16-.02,0-.04,0-.06-.01h-.06c-.05-.01-.1-.01-.15-.01-.32,0-.62.12-.84.32-.04.13-.06.26-.06.4,0,.6.42,1.11.99,1.23.02,0,.04.01.06.01s.04.01.06.01c.04,0,.09.01.13.01.33,0,.64-.14.86-.35.01,0,.02,0,.03-.02.03-.11.05-.23.05-.35,0-.08,0-.15-.02-.22ZM17.71,6.46s-.01-.08-.03-.12c-.01-.03-.01-.05-.03-.07-.02-.08-.06-.15-.1-.22,0-.02-.01-.03-.02-.04-.02-.03-.03-.06-.05-.09-.02-.02-.04-.04-.05-.06,0-.02-.01-.02-.01-.02,0,0-.01-.02-.02-.02,0-.01-.01-.02-.02-.01t-.01-.02s-.02-.03-.04-.04c0-.01-.01-.02-.02-.01l-.03-.03s-.07-.07-.11-.09c-.03-.02-.06-.04-.08-.05-.05-.03-.11-.06-.16-.08s-.11-.04-.16-.05c-.04-.01-.07-.02-.11-.03h-.06s-.1-.01-.15-.01c-.32,0-.62.12-.84.32-.04.13-.06.26-.06.4v.07s.01.11.02.16c.01.04.01.08.03.12,0,.03.01.06.03.09,0,.02,0,.04.02.06.01.03.03.06.05.09,0,.02.01.03.02.05.01.01.01.02.02.02.01.02.01.03.03.05.04.06.08.11.13.16.01.02.03.03.04.04,0,.01.03.03.04.04.02.01.03.03.05.04.02.02.04.03.06.04.01.01.02.02.03.02.01.01.02.02.03.02.01.01.02.02.03.02.08.05.17.08.26.11,0,.01.03.01.05.02.02,0,.03.01.05.01s.04.01.06.01.04.01.06.01c.04,0,.09.01.13.01.34,0,.64-.14.86-.35.01,0,.02,0,.03-.02.03-.11.05-.23.05-.35,0-.07-.01-.14-.02-.2ZM17.71,6.46s-.01-.08-.03-.12c-.01-.03-.01-.05-.03-.07-.02-.08-.06-.15-.1-.22,0-.02-.01-.03-.02-.04-.02-.03-.03-.06-.05-.09-.02-.02-.04-.04-.05-.06,0-.02-.01-.02-.01-.02,0,0-.01-.02-.02-.02,0-.01-.01-.02-.02-.01t-.01-.02s-.02-.03-.04-.04c0-.01-.01-.02-.02-.01l-.03-.03s-.07-.07-.11-.09c-.03-.02-.06-.04-.08-.05-.05-.03-.11-.06-.16-.08s-.11-.04-.16-.05c-.04-.01-.07-.02-.11-.03h-.06s-.1-.01-.15-.01c-.32,0-.62.12-.84.32-.04.13-.06.26-.06.4v.07s.01.11.02.16c.01.04.01.08.03.12,0,.03.01.06.03.09,0,.02,0,.04.02.06.01.03.03.06.05.09,0,.02.01.03.02.05.01.01.01.02.02.02.01.02.01.03.03.05.04.06.08.11.13.16.01.02.03.03.04.04,0,.01.03.03.04.04.02.01.03.03.05.04.02.02.04.03.06.04.01.01.02.02.03.02.01.01.02.02.03.02.01.01.02.02.03.02.08.05.17.08.26.11,0,.01.03.01.05.02.02,0,.03.01.05.01s.04.01.06.01.04.01.06.01c.04,0,.09.01.13.01.34,0,.64-.14.86-.35.01,0,.02,0,.03-.02.03-.11.05-.23.05-.35,0-.07-.01-.14-.02-.2ZM14.05,6.44c-.01-.08-.03-.15-.06-.21-.05-.14-.12-.26-.21-.37h-.01s-.01-.02-.02-.03c-.08-.1-.18-.18-.29-.25h-.01c-.12-.08-.25-.13-.39-.16-.02,0-.04,0-.06-.01h-.06c-.05-.01-.1-.01-.15-.01-.32,0-.62.12-.84.32-.04.13-.06.26-.06.4,0,.6.42,1.11.99,1.23.02,0,.04.01.06.01s.04.01.06.01c.04,0,.09.01.13.01.33,0,.64-.14.86-.35.01,0,.02,0,.03-.02.03-.11.05-.23.05-.35,0-.08,0-.15-.02-.22ZM10.39,6.44c0-.08-.03-.15-.06-.21-.05-.14-.12-.26-.21-.37h-.01s-.01-.02-.02-.03c-.08-.1-.18-.18-.29-.25h-.01c-.12-.08-.25-.13-.39-.16-.02,0-.04,0-.06-.01h-.06s-.1-.01-.15-.01c-.32,0-.62.12-.84.32-.04.13-.06.26-.06.4,0,.6.42,1.11.99,1.23.02,0,.04.01.06.01s.04.01.06.01c.04,0,.09.01.13.01.34,0,.64-.14.87-.35,0,0,.01,0,.02-.02.03-.11.05-.23.05-.35,0-.08-.01-.15-.02-.22Z"/>
    <path class="cls-4" d="M23.74,15.66v.77c0,.29-.24.53-.53.53h-11.2c-.17,0-.33-.08-.43-.21,0,0,0,0,0,0-.09-.07-.16-.21-.16-.38v-.52c0-.09.02-.18.05-.25.03-.27.25-.47.53-.47h11.2c.29,0,.53.24.53.53Z"/>
    <path class="cls-4" d="M10.41,6.66c0,.12-.02.24-.05.35,0,0-.01.01-.02.02-.23.21-.53.34-.86.34-.04,0-.09,0-.13,0-.02,0-.04,0-.06,0,0,0,0,0,0,0-.02,0-.04,0-.06-.01-.57-.12-1-.63-1-1.23,0-.14.02-.27.06-.4.22-.2.52-.32.84-.32.05,0,.1,0,.14,0,.02,0,.04,0,.06,0h0s.04,0,.06.01c.58.11,1.01.62,1.01,1.23Z"/>
    <path class="cls-4" d="M14.07,6.66c0,.12-.02.24-.05.35,0,0-.01.01-.02.02-.23.21-.53.34-.86.34-.04,0-.09,0-.13,0-.02,0-.04,0-.06,0,0,0,0,0,0,0-.02,0-.04,0-.06-.01-.57-.12-1-.63-1-1.23,0-.14.02-.27.06-.4.22-.2.52-.32.84-.32.05,0,.1,0,.14,0,.02,0,.04,0,.06,0h0s.04,0,.06.01c.58.11,1.01.62,1.01,1.23Z"/>
    <path class="cls-1" d="M40.92,3.37H7.4c-.78,0-1.42.81-1.42,1.81v2.66c0,.44.28.8.63.8h35.09c.35,0,.63-.36.63-.8v-2.66c0-1-.63-1.81-1.42-1.81ZM10.36,7.01s-.01.01-.02.02c-.23.21-.53.34-.86.34-.04,0-.09,0-.13,0-.02,0-.04,0-.06,0,0,0,0,0,0,0-.02,0-.04,0-.06-.01-.57-.12-1-.63-1-1.23,0-.14.02-.27.06-.4.17-.5.64-.86,1.2-.86.04,0,.09,0,.13,0,.02,0,.04,0,.06,0h0s.04,0,.06.01c.57.12,1,.63,1,1.23,0,.35-.14.67-.37.89ZM14.02,7.01s-.01.01-.02.02c-.23.21-.53.34-.86.34-.04,0-.09,0-.13,0-.02,0-.04,0-.06,0,0,0,0,0,0,0-.02,0-.04,0-.06-.01-.57-.12-1-.63-1-1.23,0-.14.02-.27.06-.4.17-.5.64-.86,1.19-.86.04,0,.09,0,.13,0,.02,0,.04,0,.06,0h0s.04,0,.06.01c.57.12,1,.63,1,1.23,0,.35-.14.67-.37.89ZM17.68,7.01s-.01.01-.02.02c-.23.21-.53.34-.86.34-.04,0-.09,0-.13,0-.02,0-.04,0-.06,0t0,0s-.04,0-.06-.01c-.02,0-.04,0-.05-.01h0s-.04-.01-.05-.02c-.09-.03-.17-.06-.25-.11-.01,0-.02-.01-.04-.02,0,0-.02-.01-.03-.02-.01,0-.02-.01-.03-.02-.02-.01-.04-.03-.06-.04-.02-.01-.04-.03-.06-.05-.01-.01-.02-.02-.04-.03-.01-.01-.03-.03-.04-.04-.05-.05-.1-.11-.14-.17-.01-.01-.02-.03-.03-.04,0,0,0-.01-.01-.02,0,0,0,0,0,0,0-.01-.02-.03-.02-.04-.02-.03-.03-.06-.05-.1,0-.02-.01-.03-.02-.05-.01-.03-.02-.06-.03-.1-.01-.04-.02-.08-.03-.11-.01-.05-.02-.11-.02-.17,0-.02,0-.04,0-.07,0-.14.02-.27.06-.4.17-.5.64-.86,1.19-.86.04,0,.09,0,.13,0,.02,0,.04,0,.06,0h0s.07.01.11.02c.02,0,.03,0,.05.01.04.01.07.02.11.04.03.01.07.03.1.05.02.01.04.02.06.03.02,0,.03.02.05.03.01,0,.03.02.04.02.02.01.04.03.05.04,0,0,0,0,.01.01.02.01.03.03.05.04,0,0,.02.02.03.02.03.02.05.05.07.07.01.01.03.03.04.05,0,0,0,0,0,0,.02.02.03.04.05.06.02.03.04.05.05.08,0,.01.02.03.02.04.03.05.06.11.08.17,0,.02.01.03.02.05.03.1.05.21.06.32,0,.02,0,.05,0,.07,0,.35-.14.67-.37.89Z"/>
    <path class="cls-4" d="M17.73,6.66c0,.12-.02.24-.05.35,0,0-.01.01-.02.02-.23.21-.53.34-.86.34-.04,0-.09,0-.13,0-.02,0-.04,0-.06,0t0,0s-.04,0-.06-.01c-.02,0-.04,0-.05-.01h0s-.04-.01-.05-.02c-.09-.03-.17-.06-.25-.11-.01,0-.02-.01-.04-.02,0,0-.02-.01-.03-.02-.01,0-.02-.01-.03-.02-.02-.01-.04-.03-.06-.04-.02-.01-.04-.03-.06-.05-.01-.01-.02-.02-.04-.03-.01-.01-.03-.03-.04-.04-.05-.05-.1-.11-.14-.17-.01-.01-.02-.03-.03-.04,0,0,0-.01-.01-.02,0,0,0,0,0,0,0-.01-.02-.03-.02-.04-.02-.03-.03-.06-.05-.1,0-.02-.01-.03-.02-.05-.01-.03-.02-.06-.03-.1-.01-.04-.02-.08-.03-.11-.01-.05-.02-.11-.02-.17,0-.02,0-.04,0-.07,0-.14.02-.27.06-.4.22-.2.52-.32.84-.32.05,0,.1,0,.14,0,.02,0,.04,0,.06,0h0s.07.01.11.02c0,0-.02,0-.03,0,.56.12.98.63.98,1.23Z"/>
    <rect class="cls-6" x="14.42" y="20.56" width="9.32" height="7.55" rx="1.61" ry="1.61"/>
    <path class="cls-6" d="M38.84,22.17v4.33c0,.89-.72,1.61-1.6,1.61h-6.11c-.89,0-1.61-.72-1.61-1.61v-4.33c0-.89.72-1.61,1.61-1.61h6.11c.88,0,1.6.72,1.6,1.61Z"/>
    <path class="cls-3" d="M18.05,6.12c0,.35-.14.67-.37.89,0,0-.01.01-.02.02-.23.21-.53.34-.86.34-.04,0-.09,0-.13,0-.02,0-.04,0-.06,0t0,0s-.04,0-.06-.01c-.02,0-.04,0-.05-.01h0s-.04-.01-.05-.02c-.09-.03-.17-.06-.25-.11-.01,0-.02-.01-.04-.02,0,0-.02-.01-.03-.02-.01,0-.02-.01-.03-.02-.02-.01-.04-.03-.06-.04-.02-.01-.04-.03-.06-.05-.01-.01-.02-.02-.04-.03-.01-.01-.03-.03-.04-.04-.05-.05-.1-.11-.14-.17-.01-.01-.02-.03-.03-.04,0,0,0-.01-.01-.02,0,0,0,0,0,0,0-.01-.02-.03-.02-.04-.02-.03-.03-.06-.05-.1,0-.02-.01-.03-.02-.05-.01-.03-.02-.06-.03-.1-.01-.04-.02-.08-.03-.11-.01-.05-.02-.11-.02-.17,0-.02,0-.04,0-.07,0-.14.02-.27.06-.4.17-.5.64-.86,1.19-.86.04,0,.09,0,.13,0,.02,0,.04,0,.06,0h0s.07.01.11.02c.02,0,.03,0,.05.01.04.01.07.02.11.04.03.01.07.03.1.05.02.01.04.02.06.03.02,0,.03.02.05.03.01,0,.03.02.04.02.02.01.04.03.05.04,0,0,0,0,.01.01.02.01.03.03.05.04,0,0,.02.02.03.02.03.02.05.05.07.07.01.01.03.03.04.05,0,0,0,0,0,0,.02.02.03.04.05.06.02.03.04.05.05.08,0,.01.02.03.02.04.03.05.06.11.08.17,0,.02.01.03.02.05.03.1.05.21.06.32,0,.02,0,.05,0,.07Z"/>
    <path class="cls-3" d="M10.73,6.12c0,.35-.14.67-.37.89,0,0-.01.01-.02.02-.23.21-.53.34-.86.34-.04,0-.09,0-.13,0-.02,0-.04,0-.06,0,0,0,0,0,0,0-.02,0-.04,0-.06-.01-.57-.12-1-.63-1-1.23,0-.14.02-.27.06-.4.17-.5.64-.86,1.2-.86.04,0,.09,0,.13,0,.02,0,.04,0,.06,0h0s.04,0,.06.01c.57.12,1,.63,1,1.23Z"/>
    <path class="cls-3" d="M14.39,6.12c0,.35-.14.67-.37.89,0,0-.01.01-.02.02-.23.21-.53.34-.86.34-.04,0-.09,0-.13,0-.02,0-.04,0-.06,0,0,0,0,0,0,0-.02,0-.04,0-.06-.01-.57-.12-1-.63-1-1.23,0-.14.02-.27.06-.4.17-.5.64-.86,1.19-.86.04,0,.09,0,.13,0,.02,0,.04,0,.06,0h0s.04,0,.06.01c.57.12,1,.63,1,1.23Z"/>
    <path class="cls-5" d="M23.74,15.66v.77c0,.29-.24.53-.53.53h-11.2c-.17,0-.33-.08-.43-.21,0,0,0,0,0,0-.07-.09-.11-.2-.11-.32v-.77s0-.04,0-.06c.03-.27.25-.47.53-.47h11.2c.29,0,.53.24.53.53Z"/>
    <path class="cls-5" d="M38.85,15.66v.77c0,.29-.24.53-.53.53h-11.2c-.17,0-.33-.08-.42-.21-.07-.09-.11-.2-.11-.32v-.77s0-.04,0-.07c.03-.26.26-.47.53-.47h11.2c.29,0,.53.24.53.53Z"/>
  </g>
</svg>