<?xml version="1.0" encoding="UTF-8"?>
<svg id="Layer_1" data-name="Layer 1" xmlns="http://www.w3.org/2000/svg" viewBox="0 0 500 500">
  <defs>
    <style>
      .cls-1 {
        fill: #0bb7d6;
      }

      .cls-2 {
        fill: #fff;
      }

      .cls-3 {
        fill: #8865d6;
      }
    </style>
  </defs>
  <path class="cls-3" d="M359.31,226.2v21.19c0,6.62-5.37,11.99-11.99,11.99h-45.58c-6.62,0-11.99-5.37-11.99-11.99v-21.19c0-6.62,5.37-11.99,11.99-11.99h45.58c6.62,0,11.99,5.37,11.99,11.99Z"/>
  <path class="cls-3" d="M155.94,185.76c-.68-.5-1.16-1.57-1.16-2.8v-3.9c0-.7.15-1.34.4-1.85-.02.15-.03.3-.03.45v5.74c0,.89.29,1.71.78,2.37Z"/>
  <path class="cls-3" d="M268.66,185.78c-.71-.48-1.2-1.57-1.2-2.83v-3.9c0-.72.16-1.37.42-1.89-.02.16-.03.32-.03.49v5.74c0,.9.3,1.73.81,2.4Z"/>
  <path class="cls-3" d="M155.94,185.76c-.68-.5-1.16-1.57-1.16-2.8v-3.9c0-.7.15-1.34.4-1.85-.02.15-.03.3-.03.45v5.74c0,.89.29,1.71.78,2.37Z"/>
  <path class="cls-3" d="M268.66,185.78c-.71-.48-1.2-1.57-1.2-2.83v-3.9c0-.72.16-1.37.42-1.89-.02.16-.03.32-.03.49v5.74c0,.9.3,1.73.81,2.4Z"/>
  <path class="cls-3" d="M155.94,185.76c-.68-.5-1.16-1.57-1.16-2.8v-3.9c0-.7.15-1.34.4-1.85-.02.15-.03.3-.03.45v5.74c0,.89.29,1.71.78,2.37Z"/>
  <path class="cls-3" d="M268.66,185.78c-.71-.48-1.2-1.57-1.2-2.83v-3.9c0-.72.16-1.37.42-1.89-.02.16-.03.32-.03.49v5.74c0,.9.3,1.73.81,2.4Z"/>
  <path class="cls-3" d="M268.66,185.78c-.71-.48-1.2-1.57-1.2-2.83v-3.9c0-.72.16-1.37.42-1.89-.02.16-.03.32-.03.49v5.74c0,.9.3,1.73.81,2.4Z"/>
  <path class="cls-3" d="M155.94,185.76c-.68-.5-1.16-1.57-1.16-2.8v-3.9c0-.7.15-1.34.4-1.85-.02.15-.03.3-.03.45v5.74c0,.89.29,1.71.78,2.37Z"/>
  <path class="cls-3" d="M155.94,185.76c-.68-.5-1.16-1.57-1.16-2.8v-3.9c0-.7.15-1.34.4-1.85-.02.15-.03.3-.03.45v5.74c0,.89.29,1.71.78,2.37Z"/>
  <path class="cls-3" d="M268.66,185.78c-.71-.48-1.2-1.57-1.2-2.83v-3.9c0-.72.16-1.37.42-1.89-.02.16-.03.32-.03.49v5.74c0,.9.3,1.73.81,2.4Z"/>
  <path class="cls-3" d="M268.66,185.78c-.71-.48-1.2-1.57-1.2-2.83v-3.9c0-.72.16-1.37.42-1.89-.02.16-.03.32-.03.49v5.74c0,.9.3,1.73.81,2.4Z"/>
  <path class="cls-3" d="M155.94,185.76c-.68-.5-1.16-1.57-1.16-2.8v-3.9c0-.7.15-1.34.4-1.85-.02.15-.03.3-.03.45v5.74c0,.89.29,1.71.78,2.37Z"/>
  <path class="cls-3" d="M155.94,185.76c-.68-.5-1.16-1.57-1.16-2.8v-3.9c0-.7.15-1.34.4-1.85-.02.15-.03.3-.03.45v5.74c0,.89.29,1.71.78,2.37Z"/>
  <path class="cls-3" d="M268.66,185.78c-.71-.48-1.2-1.57-1.2-2.83v-3.9c0-.72.16-1.37.42-1.89-.02.16-.03.32-.03.49v5.74c0,.9.3,1.73.81,2.4Z"/>
  <path class="cls-3" d="M359.31,226.2v21.19c0,6.62-5.37,11.99-11.99,11.99h-45.58c-6.62,0-11.99-5.37-11.99-11.99v-21.19c0-6.62,5.37-11.99,11.99-11.99h45.58c6.62,0,11.99,5.37,11.99,11.99Z"/>
  <path class="cls-2" d="M268.66,185.78c-.71-.48-1.2-1.57-1.2-2.83v-3.9c0-.72.16-1.37.42-1.89-.02.16-.03.32-.03.49v5.74c0,.9.3,1.73.81,2.4Z"/>
  <path class="cls-2" d="M155.94,185.76c-.68-.5-1.16-1.57-1.16-2.8v-3.9c0-.7.15-1.34.4-1.85-.02.15-.03.3-.03.45v5.74c0,.89.29,1.71.78,2.37Z"/>
  <path class="cls-3" d="M246.62,226.2v21.19c0,6.62-5.37,11.99-11.99,11.99h-45.58c-6.62,0-11.99-5.37-11.99-11.99v-21.19c0-6.62,5.37-11.99,11.99-11.99h45.58c6.62,0,11.99,5.37,11.99,11.99Z"/>
  <path class="cls-3" d="M359.31,226.2v21.19c0,6.62-5.37,11.99-11.99,11.99h-45.58c-6.62,0-11.99-5.37-11.99-11.99v-21.19c0-6.62,5.37-11.99,11.99-11.99h45.58c6.62,0,11.99,5.37,11.99,11.99Z"/>
  <path class="cls-2" d="M141.97,115.65c1.78-.34,3.37-1.2,4.65-2.43-1.28,1.18-2.87,2.06-4.65,2.43ZM169.19,115.66c1.82-.33,3.43-1.19,4.73-2.44-1.3,1.19-2.91,2.09-4.73,2.44ZM196.49,115.66c1.82-.33,3.43-1.19,4.73-2.44-1.3,1.19-2.91,2.09-4.73,2.44ZM189.51,114.11c-.07-.03-.13-.07-.19-.11l.19.19s.08.02.11.03l-.11-.11ZM196.49,115.66c1.82-.33,3.43-1.19,4.73-2.44-1.3,1.19-2.91,2.09-4.73,2.44ZM189.51,114.11c-.07-.03-.13-.07-.19-.11l.19.19s.08.02.11.03l-.11-.11ZM169.19,115.66c1.82-.33,3.43-1.19,4.73-2.44-1.3,1.19-2.91,2.09-4.73,2.44ZM141.97,115.65c1.78-.34,3.37-1.2,4.65-2.43-1.28,1.18-2.87,2.06-4.65,2.43ZM141.97,115.65c1.78-.34,3.37-1.2,4.65-2.43-1.28,1.18-2.87,2.06-4.65,2.43ZM169.19,115.66c1.82-.33,3.43-1.19,4.73-2.44-1.3,1.19-2.91,2.09-4.73,2.44ZM196.49,115.66c1.82-.33,3.43-1.19,4.73-2.44-1.3,1.19-2.91,2.09-4.73,2.44ZM189.51,114.11c-.07-.03-.13-.07-.19-.11l.19.19s.08.02.11.03l-.11-.11ZM196.49,115.66c1.82-.33,3.43-1.19,4.73-2.44-1.3,1.19-2.91,2.09-4.73,2.44ZM189.51,114.11c-.07-.03-.13-.07-.19-.11l.19.19s.08.02.11.03l-.11-.11ZM169.19,115.66c1.82-.33,3.43-1.19,4.73-2.44-1.3,1.19-2.91,2.09-4.73,2.44ZM141.97,115.65c1.78-.34,3.37-1.2,4.65-2.43-1.28,1.18-2.87,2.06-4.65,2.43ZM141.97,115.65c1.78-.34,3.37-1.2,4.65-2.43-1.28,1.18-2.87,2.06-4.65,2.43ZM169.19,115.66c1.82-.33,3.43-1.19,4.73-2.44-1.3,1.19-2.91,2.09-4.73,2.44ZM196.49,115.66c1.82-.33,3.43-1.19,4.73-2.44-1.3,1.19-2.91,2.09-4.73,2.44ZM189.51,114.11c-.07-.03-.13-.07-.19-.11l.19.19s.08.02.11.03l-.11-.11ZM196.49,115.66c1.82-.33,3.43-1.19,4.73-2.44-1.3,1.19-2.91,2.09-4.73,2.44ZM189.51,114.11c-.07-.03-.13-.07-.19-.11l.19.19s.08.02.11.03l-.11-.11ZM169.19,115.66c1.82-.33,3.43-1.19,4.73-2.44-1.3,1.19-2.91,2.09-4.73,2.44ZM141.97,115.65c1.78-.34,3.37-1.2,4.65-2.43-1.28,1.18-2.87,2.06-4.65,2.43ZM141.97,115.65c1.78-.34,3.37-1.2,4.65-2.43-1.28,1.18-2.87,2.06-4.65,2.43ZM169.19,115.66c1.82-.33,3.43-1.19,4.73-2.44-1.3,1.19-2.91,2.09-4.73,2.44ZM196.49,115.66c1.82-.33,3.43-1.19,4.73-2.44-1.3,1.19-2.91,2.09-4.73,2.44ZM189.51,114.11c-.07-.03-.13-.07-.19-.11l.19.19s.08.02.11.03l-.11-.11ZM196.49,115.66c1.82-.33,3.43-1.19,4.73-2.44-1.3,1.19-2.91,2.09-4.73,2.44ZM189.51,114.11c-.07-.03-.13-.07-.19-.11l.19.19s.08.02.11.03l-.11-.11ZM169.19,115.66c1.82-.33,3.43-1.19,4.73-2.44-1.3,1.19-2.91,2.09-4.73,2.44ZM141.97,115.65c1.78-.34,3.37-1.2,4.65-2.43-1.28,1.18-2.87,2.06-4.65,2.43ZM141.97,115.65c1.78-.34,3.37-1.2,4.65-2.43-1.28,1.18-2.87,2.06-4.65,2.43ZM169.19,115.66c1.82-.33,3.43-1.19,4.73-2.44-1.3,1.19-2.91,2.09-4.73,2.44ZM196.49,115.66c1.82-.33,3.43-1.19,4.73-2.44-1.3,1.19-2.91,2.09-4.73,2.44ZM189.51,114.11c-.07-.03-.13-.07-.19-.11l.19.19s.08.02.11.03l-.11-.11ZM196.49,115.66c1.82-.33,3.43-1.19,4.73-2.44-1.3,1.19-2.91,2.09-4.73,2.44ZM189.51,114.11c-.07-.03-.13-.07-.19-.11l.19.19s.08.02.11.03l-.11-.11ZM169.19,115.66c1.82-.33,3.43-1.19,4.73-2.44-1.3,1.19-2.91,2.09-4.73,2.44ZM141.97,115.65c1.78-.34,3.37-1.2,4.65-2.43-1.28,1.18-2.87,2.06-4.65,2.43ZM141.97,115.65c1.78-.34,3.37-1.2,4.65-2.43-1.28,1.18-2.87,2.06-4.65,2.43ZM169.19,115.66c1.82-.33,3.43-1.19,4.73-2.44-1.3,1.19-2.91,2.09-4.73,2.44ZM196.49,115.66c1.82-.33,3.43-1.19,4.73-2.44-1.3,1.19-2.91,2.09-4.73,2.44ZM189.51,114.11c-.07-.03-.13-.07-.19-.11l.19.19s.08.02.11.03l-.11-.11ZM196.49,115.66c1.82-.33,3.43-1.19,4.73-2.44-1.3,1.19-2.91,2.09-4.73,2.44ZM189.51,114.11c-.07-.03-.13-.07-.19-.11l.19.19s.08.02.11.03l-.11-.11ZM169.19,115.66c1.82-.33,3.43-1.19,4.73-2.44-1.3,1.19-2.91,2.09-4.73,2.44ZM141.97,115.65c1.78-.34,3.37-1.2,4.65-2.43-1.28,1.18-2.87,2.06-4.65,2.43ZM141.97,115.65c1.78-.34,3.37-1.2,4.65-2.43-1.28,1.18-2.87,2.06-4.65,2.43ZM169.19,115.66c1.82-.33,3.43-1.19,4.73-2.44-1.3,1.19-2.91,2.09-4.73,2.44ZM196.49,115.66c1.82-.33,3.43-1.19,4.73-2.44-1.3,1.19-2.91,2.09-4.73,2.44ZM189.51,114.11c-.07-.03-.13-.07-.19-.11l.19.19s.08.02.11.03l-.11-.11ZM196.49,115.66c1.82-.33,3.43-1.19,4.73-2.44-1.3,1.19-2.91,2.09-4.73,2.44ZM189.51,114.11c-.07-.03-.13-.07-.19-.11l.19.19s.08.02.11.03l-.11-.11ZM169.19,115.66c1.82-.33,3.43-1.19,4.73-2.44-1.3,1.19-2.91,2.09-4.73,2.44ZM141.97,115.65c1.78-.34,3.37-1.2,4.65-2.43-1.28,1.18-2.87,2.06-4.65,2.43ZM141.97,115.65c1.78-.34,3.37-1.2,4.65-2.43-1.28,1.18-2.87,2.06-4.65,2.43ZM169.19,115.66c1.82-.33,3.43-1.19,4.73-2.44-1.3,1.19-2.91,2.09-4.73,2.44ZM196.49,115.66c1.82-.33,3.43-1.19,4.73-2.44-1.3,1.19-2.91,2.09-4.73,2.44ZM189.51,114.11c-.07-.03-.13-.07-.19-.11l.19.19s.08.02.11.03l-.11-.11ZM196.49,115.66c1.82-.33,3.43-1.19,4.73-2.44-1.3,1.19-2.91,2.09-4.73,2.44ZM189.51,114.11c-.07-.03-.13-.07-.19-.11l.19.19s.08.02.11.03l-.11-.11ZM169.19,115.66c1.82-.33,3.43-1.19,4.73-2.44-1.3,1.19-2.91,2.09-4.73,2.44ZM141.97,115.65c1.78-.34,3.37-1.2,4.65-2.43-1.28,1.18-2.87,2.06-4.65,2.43ZM141.97,115.65c1.78-.34,3.37-1.2,4.65-2.43-1.28,1.18-2.87,2.06-4.65,2.43ZM169.19,115.66c1.82-.33,3.43-1.19,4.73-2.44-1.3,1.19-2.91,2.09-4.73,2.44ZM196.49,115.66c1.82-.33,3.43-1.19,4.73-2.44-1.3,1.19-2.91,2.09-4.73,2.44ZM189.51,114.11c-.07-.03-.13-.07-.19-.11l.19.19s.08.02.11.03l-.11-.11ZM196.49,115.66c1.82-.33,3.43-1.19,4.73-2.44-1.3,1.19-2.91,2.09-4.73,2.44ZM189.51,114.11c-.07-.03-.13-.07-.19-.11l.19.19s.08.02.11.03l-.11-.11ZM169.19,115.66c1.82-.33,3.43-1.19,4.73-2.44-1.3,1.19-2.91,2.09-4.73,2.44ZM141.97,115.65c1.78-.34,3.37-1.2,4.65-2.43-1.28,1.18-2.87,2.06-4.65,2.43ZM141.97,115.65c1.78-.34,3.37-1.2,4.65-2.43-1.28,1.18-2.87,2.06-4.65,2.43ZM169.19,115.66c1.82-.33,3.43-1.19,4.73-2.44-1.3,1.19-2.91,2.09-4.73,2.44ZM189.51,114.11c-.07-.03-.13-.07-.19-.11l.19.19s.08.02.11.03l-.11-.11ZM196.49,115.66c1.82-.33,3.43-1.19,4.73-2.44-1.3,1.19-2.91,2.09-4.73,2.44ZM196.49,115.66c1.82-.33,3.43-1.19,4.73-2.44-1.3,1.19-2.91,2.09-4.73,2.44ZM189.51,114.11c-.07-.03-.13-.07-.19-.11l.19.19s.08.02.11.03l-.11-.11ZM169.19,115.66c1.82-.33,3.43-1.19,4.73-2.44-1.3,1.19-2.91,2.09-4.73,2.44ZM141.97,115.65c1.78-.34,3.37-1.2,4.65-2.43-1.28,1.18-2.87,2.06-4.65,2.43ZM141.97,115.65c1.78-.34,3.37-1.2,4.65-2.43-1.28,1.18-2.87,2.06-4.65,2.43ZM169.19,115.66c1.82-.33,3.43-1.19,4.73-2.44-1.3,1.19-2.91,2.09-4.73,2.44ZM189.51,114.11c-.07-.03-.13-.07-.19-.11l.19.19s.08.02.11.03l-.11-.11ZM196.49,115.66c1.82-.33,3.43-1.19,4.73-2.44-1.3,1.19-2.91,2.09-4.73,2.44ZM196.49,115.66c1.82-.33,3.43-1.19,4.73-2.44-1.3,1.19-2.91,2.09-4.73,2.44ZM189.51,114.11c-.07-.03-.13-.07-.19-.11l.19.19s.08.02.11.03l-.11-.11ZM169.19,115.66c1.82-.33,3.43-1.19,4.73-2.44-1.3,1.19-2.91,2.09-4.73,2.44ZM141.97,115.65c1.78-.34,3.37-1.2,4.65-2.43-1.28,1.18-2.87,2.06-4.65,2.43ZM141.97,115.65c1.78-.34,3.37-1.2,4.65-2.43-1.28,1.18-2.87,2.06-4.65,2.43ZM169.19,115.66c1.82-.33,3.43-1.19,4.73-2.44-1.3,1.19-2.91,2.09-4.73,2.44ZM189.51,114.11c-.07-.03-.13-.07-.19-.11l.19.19s.08.02.11.03l-.11-.11ZM196.49,115.66c1.82-.33,3.43-1.19,4.73-2.44-1.3,1.19-2.91,2.09-4.73,2.44ZM196.49,115.66c1.82-.33,3.43-1.19,4.73-2.44-1.3,1.19-2.91,2.09-4.73,2.44ZM189.51,114.11c-.07-.03-.13-.07-.19-.11l.19.19s.08.02.11.03l-.11-.11ZM169.19,115.66c1.82-.33,3.43-1.19,4.73-2.44-1.3,1.19-2.91,2.09-4.73,2.44ZM141.97,115.65c1.78-.34,3.37-1.2,4.65-2.43-1.28,1.18-2.87,2.06-4.65,2.43ZM141.97,115.65c1.78-.34,3.37-1.2,4.65-2.43-1.28,1.18-2.87,2.06-4.65,2.43ZM169.19,115.66c1.82-.33,3.43-1.19,4.73-2.44-1.3,1.19-2.91,2.09-4.73,2.44ZM189.51,114.11c-.07-.03-.13-.07-.19-.11l.19.19s.08.02.11.03l-.11-.11ZM196.49,115.66c1.82-.33,3.43-1.19,4.73-2.44-1.3,1.19-2.91,2.09-4.73,2.44ZM196.49,115.66c1.82-.33,3.43-1.19,4.73-2.44-1.3,1.19-2.91,2.09-4.73,2.44ZM189.51,114.11c-.07-.03-.13-.07-.19-.11l.19.19s.08.02.11.03l-.11-.11ZM169.19,115.66c1.82-.33,3.43-1.19,4.73-2.44-1.3,1.19-2.91,2.09-4.73,2.44ZM141.97,115.65c1.78-.34,3.37-1.2,4.65-2.43-1.28,1.18-2.87,2.06-4.65,2.43ZM141.97,115.65c1.78-.34,3.37-1.2,4.65-2.43-1.28,1.18-2.87,2.06-4.65,2.43ZM169.19,115.66c1.82-.33,3.43-1.19,4.73-2.44-1.3,1.19-2.91,2.09-4.73,2.44ZM189.51,114.11c-.07-.03-.13-.07-.19-.11l.19.19s.08.02.11.03l-.11-.11ZM196.49,115.66c1.82-.33,3.43-1.19,4.73-2.44-1.3,1.19-2.91,2.09-4.73,2.44ZM196.49,115.66c1.82-.33,3.43-1.19,4.73-2.44-1.3,1.19-2.91,2.09-4.73,2.44ZM189.51,114.11c-.07-.03-.13-.07-.19-.11l.19.19s.08.02.11.03l-.11-.11ZM169.19,115.66c1.82-.33,3.43-1.19,4.73-2.44-1.3,1.19-2.91,2.09-4.73,2.44ZM141.97,115.65c1.78-.34,3.37-1.2,4.65-2.43-1.28,1.18-2.87,2.06-4.65,2.43ZM141.97,115.65c1.78-.34,3.37-1.2,4.65-2.43-1.28,1.18-2.87,2.06-4.65,2.43ZM169.19,115.66c1.82-.33,3.43-1.19,4.73-2.44-1.3,1.19-2.91,2.09-4.73,2.44ZM189.51,114.11c-.07-.03-.13-.07-.19-.11l.19.19s.08.02.11.03l-.11-.11ZM196.49,115.66c1.82-.33,3.43-1.19,4.73-2.44-1.3,1.19-2.91,2.09-4.73,2.44ZM196.49,115.66c1.82-.33,3.43-1.19,4.73-2.44-1.3,1.19-2.91,2.09-4.73,2.44ZM189.32,114l.19.19s.08.02.11.03l-.11-.11c-.07-.03-.13-.07-.19-.11ZM173.92,113.22c-1.3,1.19-2.91,2.09-4.73,2.44,1.82-.33,3.43-1.19,4.73-2.44ZM146.62,113.22c-1.28,1.18-2.87,2.06-4.65,2.43,1.78-.34,3.37-1.2,4.65-2.43ZM389.47,60.79H110.52c-22.67,0-41.09,16.63-41.09,37.21v252.92c0,20.59,18.42,37.22,41.09,37.22h21.71c3.13,0,5.74,2.54,5.74,5.75v37.14c0,7.01,9.25,10.44,14.7,5.52l49.37-44.68c2.61-2.39,6.12-3.73,9.7-3.73h177.73c22.68,0,41.1-16.63,41.1-37.22V98c0-20.58-18.42-37.21-41.1-37.21ZM307.65,362.41h-114.93c-5.07,0-10-2.39-13.28-6.27-3.35-3.87-5.37-9.24-5.37-15.14,0-11.78,8.21-21.33,18.28-21.33h115.3c10.07,0,18.28,9.55,18.28,21.33s-8.21,21.41-18.28,21.41ZM385.22,287.3c0,5.89-4.77,10.67-10.66,10.67H126.64c-5.9,0-10.67-4.78-10.67-10.67v-129.63c0-5.89,4.77-10.66,10.67-10.66h247.92c5.89,0,10.66,4.77,10.66,10.66v129.63ZM385.37,119.26c0,3.28-2.09,5.97-4.7,5.97H118.88c-2.61,0-4.7-2.69-4.7-5.97v-19.84c0-7.46,4.7-13.5,10.52-13.5h250.08c5.89,0,10.59,6.04,10.59,13.5v19.84ZM201.22,113.22c-1.3,1.19-2.91,2.09-4.73,2.44,1.82-.33,3.43-1.19,4.73-2.44ZM189.32,114l.19.19s.08.02.11.03l-.11-.11c-.07-.03-.13-.07-.19-.11ZM173.92,113.22c-1.3,1.19-2.91,2.09-4.73,2.44,1.82-.33,3.43-1.19,4.73-2.44ZM146.62,113.22c-1.28,1.18-2.87,2.06-4.65,2.43,1.78-.34,3.37-1.2,4.65-2.43ZM141.97,115.65c1.78-.34,3.37-1.2,4.65-2.43-1.28,1.18-2.87,2.06-4.65,2.43ZM169.19,115.66c1.82-.33,3.43-1.19,4.73-2.44-1.3,1.19-2.91,2.09-4.73,2.44ZM189.51,114.11c-.07-.03-.13-.07-.19-.11l.19.19s.08.02.11.03l-.11-.11ZM196.49,115.66c1.82-.33,3.43-1.19,4.73-2.44-1.3,1.19-2.91,2.09-4.73,2.44ZM196.49,115.66c1.82-.33,3.43-1.19,4.73-2.44-1.3,1.19-2.91,2.09-4.73,2.44ZM189.51,114.11c-.07-.03-.13-.07-.19-.11l.19.19s.08.02.11.03l-.11-.11ZM169.19,115.66c1.82-.33,3.43-1.19,4.73-2.44-1.3,1.19-2.91,2.09-4.73,2.44ZM141.97,115.65c1.78-.34,3.37-1.2,4.65-2.43-1.28,1.18-2.87,2.06-4.65,2.43ZM141.97,115.65c1.78-.34,3.37-1.2,4.65-2.43-1.28,1.18-2.87,2.06-4.65,2.43ZM169.19,115.66c1.82-.33,3.43-1.19,4.73-2.44-1.3,1.19-2.91,2.09-4.73,2.44ZM189.51,114.11c-.07-.03-.13-.07-.19-.11l.19.19s.08.02.11.03l-.11-.11ZM196.49,115.66c1.82-.33,3.43-1.19,4.73-2.44-1.3,1.19-2.91,2.09-4.73,2.44ZM196.49,115.66c1.82-.33,3.43-1.19,4.73-2.44-1.3,1.19-2.91,2.09-4.73,2.44ZM189.51,114.11c-.07-.03-.13-.07-.19-.11l.19.19s.08.02.11.03l-.11-.11ZM169.19,115.66c1.82-.33,3.43-1.19,4.73-2.44-1.3,1.19-2.91,2.09-4.73,2.44ZM141.97,115.65c1.78-.34,3.37-1.2,4.65-2.43-1.28,1.18-2.87,2.06-4.65,2.43ZM141.97,115.65c1.78-.34,3.37-1.2,4.65-2.43-1.28,1.18-2.87,2.06-4.65,2.43ZM169.19,115.66c1.82-.33,3.43-1.19,4.73-2.44-1.3,1.19-2.91,2.09-4.73,2.44ZM189.51,114.11c-.07-.03-.13-.07-.19-.11l.19.19s.08.02.11.03l-.11-.11ZM196.49,115.66c1.82-.33,3.43-1.19,4.73-2.44-1.3,1.19-2.91,2.09-4.73,2.44ZM196.49,115.66c1.82-.33,3.43-1.19,4.73-2.44-1.3,1.19-2.91,2.09-4.73,2.44ZM189.51,114.11c-.07-.03-.13-.07-.19-.11l.19.19s.08.02.11.03l-.11-.11ZM169.19,115.66c1.82-.33,3.43-1.19,4.73-2.44-1.3,1.19-2.91,2.09-4.73,2.44ZM141.97,115.65c1.78-.34,3.37-1.2,4.65-2.43-1.28,1.18-2.87,2.06-4.65,2.43ZM141.97,115.65c1.78-.34,3.37-1.2,4.65-2.43-1.28,1.18-2.87,2.06-4.65,2.43ZM169.19,115.66c1.82-.33,3.43-1.19,4.73-2.44-1.3,1.19-2.91,2.09-4.73,2.44ZM189.51,114.11c-.07-.03-.13-.07-.19-.11l.19.19s.08.02.11.03l-.11-.11ZM196.49,115.66c1.82-.33,3.43-1.19,4.73-2.44-1.3,1.19-2.91,2.09-4.73,2.44ZM196.49,115.66c1.82-.33,3.43-1.19,4.73-2.44-1.3,1.19-2.91,2.09-4.73,2.44ZM189.51,114.11c-.07-.03-.13-.07-.19-.11l.19.19s.08.02.11.03l-.11-.11ZM169.19,115.66c1.82-.33,3.43-1.19,4.73-2.44-1.3,1.19-2.91,2.09-4.73,2.44ZM141.97,115.65c1.78-.34,3.37-1.2,4.65-2.43-1.28,1.18-2.87,2.06-4.65,2.43ZM141.97,115.65c1.78-.34,3.37-1.2,4.65-2.43-1.28,1.18-2.87,2.06-4.65,2.43ZM169.19,115.66c1.82-.33,3.43-1.19,4.73-2.44-1.3,1.19-2.91,2.09-4.73,2.44ZM189.51,114.11c-.07-.03-.13-.07-.19-.11l.19.19s.08.02.11.03l-.11-.11ZM196.49,115.66c1.82-.33,3.43-1.19,4.73-2.44-1.3,1.19-2.91,2.09-4.73,2.44ZM196.49,115.66c1.82-.33,3.43-1.19,4.73-2.44-1.3,1.19-2.91,2.09-4.73,2.44ZM189.51,114.11c-.07-.03-.13-.07-.19-.11l.19.19s.08.02.11.03l-.11-.11ZM169.19,115.66c1.82-.33,3.43-1.19,4.73-2.44-1.3,1.19-2.91,2.09-4.73,2.44ZM141.97,115.65c1.78-.34,3.37-1.2,4.65-2.43-1.28,1.18-2.87,2.06-4.65,2.43ZM141.97,115.65c1.78-.34,3.37-1.2,4.65-2.43-1.28,1.18-2.87,2.06-4.65,2.43ZM169.19,115.66c1.82-.33,3.43-1.19,4.73-2.44-1.3,1.19-2.91,2.09-4.73,2.44ZM189.51,114.11c-.07-.03-.13-.07-.19-.11l.19.19s.08.02.11.03l-.11-.11ZM196.49,115.66c1.82-.33,3.43-1.19,4.73-2.44-1.3,1.19-2.91,2.09-4.73,2.44ZM196.49,115.66c1.82-.33,3.43-1.19,4.73-2.44-1.3,1.19-2.91,2.09-4.73,2.44ZM189.51,114.11c-.07-.03-.13-.07-.19-.11l.19.19s.08.02.11.03l-.11-.11ZM169.19,115.66c1.82-.33,3.43-1.19,4.73-2.44-1.3,1.19-2.91,2.09-4.73,2.44ZM141.97,115.65c1.78-.34,3.37-1.2,4.65-2.43-1.28,1.18-2.87,2.06-4.65,2.43ZM141.97,115.65c1.78-.34,3.37-1.2,4.65-2.43-1.28,1.18-2.87,2.06-4.65,2.43ZM169.19,115.66c1.82-.33,3.43-1.19,4.73-2.44-1.3,1.19-2.91,2.09-4.73,2.44ZM196.49,115.66c1.82-.33,3.43-1.19,4.73-2.44-1.3,1.19-2.91,2.09-4.73,2.44ZM189.51,114.11c-.07-.03-.13-.07-.19-.11l.19.19s.08.02.11.03l-.11-.11ZM196.49,115.66c1.82-.33,3.43-1.19,4.73-2.44-1.3,1.19-2.91,2.09-4.73,2.44ZM189.51,114.11c-.07-.03-.13-.07-.19-.11l.19.19s.08.02.11.03l-.11-.11ZM169.19,115.66c1.82-.33,3.43-1.19,4.73-2.44-1.3,1.19-2.91,2.09-4.73,2.44ZM141.97,115.65c1.78-.34,3.37-1.2,4.65-2.43-1.28,1.18-2.87,2.06-4.65,2.43ZM141.97,115.65c1.78-.34,3.37-1.2,4.65-2.43-1.28,1.18-2.87,2.06-4.65,2.43ZM169.19,115.66c1.82-.33,3.43-1.19,4.73-2.44-1.3,1.19-2.91,2.09-4.73,2.44ZM196.49,115.66c1.82-.33,3.43-1.19,4.73-2.44-1.3,1.19-2.91,2.09-4.73,2.44ZM189.51,114.11c-.07-.03-.13-.07-.19-.11l.19.19s.08.02.11.03l-.11-.11ZM196.49,115.66c1.82-.33,3.43-1.19,4.73-2.44-1.3,1.19-2.91,2.09-4.73,2.44ZM189.51,114.11c-.07-.03-.13-.07-.19-.11l.19.19s.08.02.11.03l-.11-.11ZM169.19,115.66c1.82-.33,3.43-1.19,4.73-2.44-1.3,1.19-2.91,2.09-4.73,2.44ZM141.97,115.65c1.78-.34,3.37-1.2,4.65-2.43-1.28,1.18-2.87,2.06-4.65,2.43ZM141.97,115.65c1.78-.34,3.37-1.2,4.65-2.43-1.28,1.18-2.87,2.06-4.65,2.43ZM169.19,115.66c1.82-.33,3.43-1.19,4.73-2.44-1.3,1.19-2.91,2.09-4.73,2.44ZM196.49,115.66c1.82-.33,3.43-1.19,4.73-2.44-1.3,1.19-2.91,2.09-4.73,2.44ZM189.51,114.11c-.07-.03-.13-.07-.19-.11l.19.19s.08.02.11.03l-.11-.11ZM196.49,115.66c1.82-.33,3.43-1.19,4.73-2.44-1.3,1.19-2.91,2.09-4.73,2.44ZM189.51,114.11c-.07-.03-.13-.07-.19-.11l.19.19s.08.02.11.03l-.11-.11ZM169.19,115.66c1.82-.33,3.43-1.19,4.73-2.44-1.3,1.19-2.91,2.09-4.73,2.44ZM141.97,115.65c1.78-.34,3.37-1.2,4.65-2.43-1.28,1.18-2.87,2.06-4.65,2.43ZM141.97,115.65c1.78-.34,3.37-1.2,4.65-2.43-1.28,1.18-2.87,2.06-4.65,2.43ZM169.19,115.66c1.82-.33,3.43-1.19,4.73-2.44-1.3,1.19-2.91,2.09-4.73,2.44ZM196.49,115.66c1.82-.33,3.43-1.19,4.73-2.44-1.3,1.19-2.91,2.09-4.73,2.44ZM189.51,114.11c-.07-.03-.13-.07-.19-.11l.19.19s.08.02.11.03l-.11-.11ZM196.49,115.66c1.82-.33,3.43-1.19,4.73-2.44-1.3,1.19-2.91,2.09-4.73,2.44ZM189.51,114.11c-.07-.03-.13-.07-.19-.11l.19.19s.08.02.11.03l-.11-.11ZM169.19,115.66c1.82-.33,3.43-1.19,4.73-2.44-1.3,1.19-2.91,2.09-4.73,2.44ZM141.97,115.65c1.78-.34,3.37-1.2,4.65-2.43-1.28,1.18-2.87,2.06-4.65,2.43ZM141.97,115.65c1.78-.34,3.37-1.2,4.65-2.43-1.28,1.18-2.87,2.06-4.65,2.43ZM169.19,115.66c1.82-.33,3.43-1.19,4.73-2.44-1.3,1.19-2.91,2.09-4.73,2.44ZM196.49,115.66c1.82-.33,3.43-1.19,4.73-2.44-1.3,1.19-2.91,2.09-4.73,2.44ZM189.51,114.11c-.07-.03-.13-.07-.19-.11l.19.19s.08.02.11.03l-.11-.11ZM196.49,115.66c1.82-.33,3.43-1.19,4.73-2.44-1.3,1.19-2.91,2.09-4.73,2.44ZM189.51,114.11c-.07-.03-.13-.07-.19-.11l.19.19s.08.02.11.03l-.11-.11ZM169.19,115.66c1.82-.33,3.43-1.19,4.73-2.44-1.3,1.19-2.91,2.09-4.73,2.44ZM141.97,115.65c1.78-.34,3.37-1.2,4.65-2.43-1.28,1.18-2.87,2.06-4.65,2.43ZM141.97,115.65c1.78-.34,3.37-1.2,4.65-2.43-1.28,1.18-2.87,2.06-4.65,2.43ZM169.19,115.66c1.82-.33,3.43-1.19,4.73-2.44-1.3,1.19-2.91,2.09-4.73,2.44ZM196.49,115.66c1.82-.33,3.43-1.19,4.73-2.44-1.3,1.19-2.91,2.09-4.73,2.44ZM189.51,114.11c-.07-.03-.13-.07-.19-.11l.19.19s.08.02.11.03l-.11-.11ZM196.49,115.66c1.82-.33,3.43-1.19,4.73-2.44-1.3,1.19-2.91,2.09-4.73,2.44ZM189.51,114.11c-.07-.03-.13-.07-.19-.11l.19.19s.08.02.11.03l-.11-.11ZM169.19,115.66c1.82-.33,3.43-1.19,4.73-2.44-1.3,1.19-2.91,2.09-4.73,2.44ZM141.97,115.65c1.78-.34,3.37-1.2,4.65-2.43-1.28,1.18-2.87,2.06-4.65,2.43ZM141.97,115.65c1.78-.34,3.37-1.2,4.65-2.43-1.28,1.18-2.87,2.06-4.65,2.43ZM169.19,115.66c1.82-.33,3.43-1.19,4.73-2.44-1.3,1.19-2.91,2.09-4.73,2.44ZM196.49,115.66c1.82-.33,3.43-1.19,4.73-2.44-1.3,1.19-2.91,2.09-4.73,2.44ZM189.51,114.11c-.07-.03-.13-.07-.19-.11l.19.19s.08.02.11.03l-.11-.11ZM196.49,115.66c1.82-.33,3.43-1.19,4.73-2.44-1.3,1.19-2.91,2.09-4.73,2.44ZM189.51,114.11c-.07-.03-.13-.07-.19-.11l.19.19s.08.02.11.03l-.11-.11ZM169.19,115.66c1.82-.33,3.43-1.19,4.73-2.44-1.3,1.19-2.91,2.09-4.73,2.44ZM141.97,115.65c1.78-.34,3.37-1.2,4.65-2.43-1.28,1.18-2.87,2.06-4.65,2.43ZM141.97,115.65c1.78-.34,3.37-1.2,4.65-2.43-1.28,1.18-2.87,2.06-4.65,2.43ZM169.19,115.66c1.82-.33,3.43-1.19,4.73-2.44-1.3,1.19-2.91,2.09-4.73,2.44ZM196.49,115.66c1.82-.33,3.43-1.19,4.73-2.44-1.3,1.19-2.91,2.09-4.73,2.44ZM189.51,114.11c-.07-.03-.13-.07-.19-.11l.19.19s.08.02.11.03l-.11-.11ZM196.49,115.66c1.82-.33,3.43-1.19,4.73-2.44-1.3,1.19-2.91,2.09-4.73,2.44ZM189.51,114.11c-.07-.03-.13-.07-.19-.11l.19.19s.08.02.11.03l-.11-.11ZM169.19,115.66c1.82-.33,3.43-1.19,4.73-2.44-1.3,1.19-2.91,2.09-4.73,2.44ZM141.97,115.65c1.78-.34,3.37-1.2,4.65-2.43-1.28,1.18-2.87,2.06-4.65,2.43ZM141.97,115.65c1.78-.34,3.37-1.2,4.65-2.43-1.28,1.18-2.87,2.06-4.65,2.43ZM169.19,115.66c1.82-.33,3.43-1.19,4.73-2.44-1.3,1.19-2.91,2.09-4.73,2.44ZM196.49,115.66c1.82-.33,3.43-1.19,4.73-2.44-1.3,1.19-2.91,2.09-4.73,2.44ZM189.51,114.11c-.07-.03-.13-.07-.19-.11l.19.19s.08.02.11.03l-.11-.11ZM196.49,115.66c1.82-.33,3.43-1.19,4.73-2.44-1.3,1.19-2.91,2.09-4.73,2.44ZM189.51,114.11c-.07-.03-.13-.07-.19-.11l.19.19s.08.02.11.03l-.11-.11ZM169.19,115.66c1.82-.33,3.43-1.19,4.73-2.44-1.3,1.19-2.91,2.09-4.73,2.44ZM141.97,115.65c1.78-.34,3.37-1.2,4.65-2.43-1.28,1.18-2.87,2.06-4.65,2.43Z"/>
  <path class="cls-1" d="M374.58,146.98H126.64c-5.89,0-10.68,4.78-10.68,10.67v129.65c0,5.89,4.78,10.67,10.68,10.67h247.93c5.89,0,10.67-4.78,10.67-10.67v-129.65c0-5.89-4.78-10.67-10.67-10.67ZM246.64,183.38c0,2.19-1.78,3.97-3.97,3.97h-83.54c-1.3,0-2.46-.63-3.18-1.59t0,0c-.49-.66-.78-1.48-.78-2.37v-5.74c0-.15.01-.3.03-.45.22-1.98,1.9-3.52,3.95-3.52h83.54c2.19,0,3.97,1.78,3.97,3.97v5.74ZM359.34,183.38c0,2.19-1.78,3.97-3.97,3.97h-83.54c-1.29,0-2.43-.62-3.15-1.56h-.01c-.51-.68-.81-1.51-.81-2.41v-5.74c0-.17.01-.33.03-.49.24-1.96,1.91-3.48,3.94-3.48h83.54c2.19,0,3.97,1.78,3.97,3.97v5.74Z"/>
  <path class="cls-3" d="M246.62,226.2v32.29c0,6.62-5.37,11.99-11.99,11.99h-45.58c-6.62,0-11.99-5.37-11.99-11.99v-32.29c0-6.62,5.37-11.99,11.99-11.99h45.58c6.62,0,11.99,5.37,11.99,11.99Z"/>
  <path class="cls-3" d="M359.31,226.2v32.29c0,6.62-5.37,11.99-11.99,11.99h-45.58c-6.62,0-11.99-5.37-11.99-11.99v-32.29c0-6.62,5.37-11.99,11.99-11.99h45.58c6.62,0,11.99,5.37,11.99,11.99Z"/>
  <g>
    <circle class="cls-1" cx="140.21" cy="106.4" r="9.14"/>
    <circle class="cls-1" cx="167.56" cy="106.4" r="9.14"/>
    <circle class="cls-1" cx="194.92" cy="106.4" r="9.14"/>
  </g>
</svg>