<?xml version="1.0" encoding="UTF-8"?>
<svg id="Layer_2" data-name="Layer 2" xmlns="http://www.w3.org/2000/svg" viewBox="0 0 48.41 50.69">
  <defs>
    <style>
      .cls-1 {
        fill: #0a8a9e;
      }

      .cls-2 {
        fill: #0f172a;
      }

      .cls-3 {
        fill: #0a8a9e;
      }
    </style>
  </defs>
  <g id="Layer_1-2" data-name="Layer 1">
    <path class="cls-3" d="M31.14,20.57h6.11c.89,0,1.61.72,1.61,1.61v2.84c0,.89-.72,1.61-1.61,1.61h-6.11c-.89,0-1.61-.72-1.61-1.61v-2.84c0-.89.72-1.61,1.61-1.61Z"/>
    <path class="cls-3" d="M16.04,20.57h6.11c.89,0,1.61.72,1.61,1.61v2.84c0,.89-.72,1.61-1.61,1.61h-6.11c-.89,0-1.61-.72-1.61-1.61v-2.84c0-.89.72-1.61,1.61-1.61Z"/>
    <path class="cls-1" d="M22.83,50.69H10.45c-5.77,0-10.45-4.68-10.45-10.45V10.45C0,4.68,4.68,0,10.45,0h27.51c5.77,0,10.45,4.68,10.45,10.45v16.7c0,.86-.7,1.56-1.56,1.56s-1.56-.7-1.56-1.56V10.45c0-4.04-3.29-7.33-7.33-7.33H10.45c-4.04,0-7.33,3.29-7.33,7.33v29.79c0,4.04,3.29,7.33,7.33,7.33h12.38c.86,0,1.56.7,1.56,1.56s-.7,1.56-1.56,1.56Z"/>
    <path class="cls-1" d="M38.14,50.69c-.4,0-.8-.15-1.1-.46l-6.94-6.94c-.61-.61-.61-1.6,0-2.21.61-.61,1.6-.61,2.21,0l5.84,5.84,5.84-5.84c.61-.61,1.6-.61,2.21,0,.61.61.61,1.6,0,2.21l-6.94,6.94c-.31.31-.71.46-1.1.46Z"/>
    <path class="cls-1" d="M38.14,50.69c-.86,0-1.56-.7-1.56-1.56v-14.75c0-.86.7-1.56,1.56-1.56s1.56.7,1.56,1.56v14.75c0,.86-.7,1.56-1.56,1.56Z"/>
    <path class="cls-3" d="M9.28,6.66c0,.7-.57,1.27-1.27,1.27s-1.27-.57-1.27-1.27.57-1.27,1.27-1.27,1.27.57,1.27,1.27Z"/>
    <path class="cls-3" d="M12.95,6.66c0,.7-.57,1.27-1.27,1.27s-1.27-.57-1.27-1.27.57-1.27,1.27-1.27,1.27.57,1.27,1.27Z"/>
    <path class="cls-3" d="M16.61,6.66c0,.7-.57,1.27-1.27,1.27s-1.27-.57-1.27-1.27.57-1.27,1.27-1.27,1.27.57,1.27,1.27Z"/>
    <path class="cls-3" d="M23.61,15.6v.77c0,.3-.16.55-.35.55h-15.28c-.2,0-.35-.25-.35-.55v-.77c0-.3.16-.55.35-.55h15.28c.2,0,.35.25.35.55Z"/>
    <path class="cls-3" d="M38.72,15.6v.77c0,.3-.16.55-.35.55h-15.28c-.2,0-.35-.25-.35-.55v-.77c0-.3.16-.55.35-.55h15.28c.2,0,.35.25.35.55Z"/>
  </g>
</svg>
