<?xml version="1.0" encoding="UTF-8"?>
<svg id="Layer_2" data-name="Layer 2" xmlns="http://www.w3.org/2000/svg" viewBox="0 0 48.41 50.69">
  <defs>
    <style>
      .cls-1 {
        fill: #0bb7d6;
      }

      .cls-2 {
        fill: #fff;
      }

      .cls-3 {
        fill: #8865d6;
      }
    </style>
  </defs>
  <g id="Layer_1-2" data-name="Layer 1">
    <path class="cls-3" d="M31.14,20.57h6.11c.89,0,1.61.72,1.61,1.61v2.84c0,.89-.72,1.61-1.61,1.61h-6.11c-.89,0-1.61-.72-1.61-1.61v-2.84c0-.89.72-1.61,1.61-1.61Z"/>
    <path class="cls-3" d="M11.6,16.75c-.09-.07-.15-.21-.15-.38v-.52c0-.09.02-.18.05-.25,0,.02,0,.04,0,.06v.77c0,.12.04.23.1.32Z"/>
    <path class="cls-3" d="M26.71,16.76c-.09-.06-.16-.21-.16-.38v-.52c0-.1.02-.18.06-.25,0,.02,0,.04,0,.07v.77c0,.12.04.23.11.32Z"/>
    <path class="cls-3" d="M17.74,6.66c0,.12-.02.24-.05.35,0,0-.01.01-.02.02.04-.12.06-.24.06-.37,0-.02,0-.05,0-.07,0-.11-.03-.22-.06-.32,0-.02-.01-.03-.02-.05-.02-.06-.05-.11-.08-.17,0-.01-.02-.03-.02-.04-.02-.03-.04-.06-.05-.08-.02-.02-.03-.04-.05-.06,0,0,0,0,0,0-.01-.02-.03-.03-.04-.05-.02-.03-.05-.05-.07-.07,0,0-.02-.02-.03-.02-.02-.01-.03-.03-.05-.04,0,0,0,0-.01-.01-.02-.01-.04-.03-.05-.04-.01,0-.03-.02-.04-.02-.01,0-.03-.02-.05-.03-.02-.01-.04-.02-.06-.03-.03-.02-.07-.03-.1-.05-.04-.01-.07-.03-.11-.04-.02,0-.03,0-.05-.01,0,0-.02,0-.03,0,.56.12.98.63.98,1.23Z"/>
    <path class="cls-3" d="M14.08,6.66c0,.12-.02.24-.05.35,0,0-.01.01-.02.02.04-.12.06-.24.06-.37,0-.61-.43-1.11-1-1.23.58.11,1.01.62,1.01,1.24Z"/>
    <path class="cls-3" d="M10.41,6.66c0,.12-.02.24-.05.35,0,0-.01.01-.02.02.04-.12.06-.24.06-.37,0-.61-.43-1.11-1-1.23.58.11,1.01.62,1.01,1.24Z"/>
    <path class="cls-3" d="M11.6,16.75c-.09-.07-.15-.21-.15-.38v-.52c0-.09.02-.18.05-.25,0,.02,0,.04,0,.06v.77c0,.12.04.23.1.32Z"/>
    <path class="cls-3" d="M26.71,16.76c-.09-.06-.16-.21-.16-.38v-.52c0-.1.02-.18.06-.25,0,.02,0,.04,0,.07v.77c0,.12.04.23.11.32Z"/>
    <path class="cls-3" d="M10.41,6.66c0,.12-.02.24-.05.35,0,0-.01.01-.02.02-.23.21-.53.34-.86.34-.04,0-.09,0-.13,0-.02,0-.04,0-.06,0,0,0,0,0,0,0-.02,0-.04,0-.06-.01-.57-.12-1-.63-1-1.23,0-.14.02-.27.06-.4.22-.2.52-.32.84-.32.05,0,.1,0,.14,0,.02,0,.04,0,.06,0h0s.04,0,.06.01c.58.11,1.01.62,1.01,1.24Z"/>
    <path class="cls-3" d="M14.08,6.66c0,.12-.02.24-.05.35,0,0-.01.01-.02.02-.23.21-.53.34-.87.34-.04,0-.09,0-.13,0-.02,0-.04,0-.06,0,0,0,0,0,0,0-.02,0-.04,0-.06-.01-.57-.12-1-.63-1-1.23,0-.14.02-.27.06-.4.22-.2.52-.32.84-.32.05,0,.1,0,.14,0,.02,0,.04,0,.06,0h0s.04,0,.06.01c.58.11,1.01.62,1.01,1.24Z"/>
    <path class="cls-3" d="M17.74,6.66c0,.12-.02.24-.05.35,0,0-.01.01-.02.02-.23.21-.53.34-.87.34-.04,0-.09,0-.13,0-.02,0-.04,0-.06,0t0,0s-.04,0-.06-.01c-.02,0-.04,0-.05-.01h0s-.04-.01-.05-.02c-.09-.03-.17-.06-.25-.11-.01,0-.02-.01-.04-.02,0,0-.02-.01-.03-.02-.01,0-.02-.01-.03-.02-.02-.01-.04-.03-.06-.04-.02-.01-.04-.03-.06-.05-.01-.01-.02-.02-.04-.03-.01-.01-.03-.03-.04-.04-.05-.05-.1-.11-.14-.17-.01-.01-.02-.03-.03-.04,0,0,0-.01-.01-.02,0,0,0,0,0,0,0-.01-.02-.03-.02-.04-.02-.03-.03-.06-.05-.1,0-.02-.01-.03-.02-.05-.01-.03-.02-.06-.03-.1-.01-.04-.02-.08-.03-.11-.01-.05-.02-.11-.02-.17,0-.02,0-.04,0-.07,0-.14.02-.27.06-.4.22-.2.52-.32.84-.32.05,0,.1,0,.14,0,.02,0,.04,0,.06,0h0s.07.01.11.02c0,0-.02,0-.03,0,.56.12.98.63.98,1.23Z"/>
    <path class="cls-3" d="M11.6,16.75c-.09-.07-.15-.21-.15-.38v-.52c0-.09.02-.18.05-.25,0,.02,0,.04,0,.06v.77c0,.12.04.23.1.32Z"/>
    <path class="cls-3" d="M26.71,16.76c-.09-.06-.16-.21-.16-.38v-.52c0-.1.02-.18.06-.25,0,.02,0,.04,0,.07v.77c0,.12.04.23.11.32Z"/>
    <path class="cls-3" d="M26.71,16.76c-.09-.06-.16-.21-.16-.38v-.52c0-.1.02-.18.06-.25,0,.02,0,.04,0,.07v.77c0,.12.04.23.11.32Z"/>
    <path class="cls-3" d="M11.6,16.75c-.09-.07-.15-.21-.15-.38v-.52c0-.09.02-.18.05-.25,0,.02,0,.04,0,.06v.77c0,.12.04.23.1.32Z"/>
    <path class="cls-3" d="M10.41,6.66c0,.12-.02.24-.05.35,0,0-.01.01-.02.02-.23.21-.53.34-.86.34-.04,0-.09,0-.13,0-.02,0-.04,0-.06,0,0,0,0,0,0,0-.02,0-.04,0-.06-.01-.57-.12-1-.63-1-1.23,0-.14.02-.27.06-.4.22-.2.52-.32.84-.32.05,0,.1,0,.14,0,.02,0,.04,0,.06,0h0s.04,0,.06.01c.58.11,1.01.62,1.01,1.24Z"/>
    <path class="cls-3" d="M14.08,6.66c0,.12-.02.24-.05.35,0,0-.01.01-.02.02-.23.21-.53.34-.87.34-.04,0-.09,0-.13,0-.02,0-.04,0-.06,0,0,0,0,0,0,0-.02,0-.04,0-.06-.01-.57-.12-1-.63-1-1.23,0-.14.02-.27.06-.4.22-.2.52-.32.84-.32.05,0,.1,0,.14,0,.02,0,.04,0,.06,0h0s.04,0,.06.01c.58.11,1.01.62,1.01,1.24Z"/>
    <path class="cls-3" d="M17.74,6.66c0,.12-.02.24-.05.35,0,0-.01.01-.02.02-.23.21-.53.34-.87.34-.04,0-.09,0-.13,0-.02,0-.04,0-.06,0t0,0s-.04,0-.06-.01c-.02,0-.04,0-.05-.01h0s-.04-.01-.05-.02c-.09-.03-.17-.06-.25-.11-.01,0-.02-.01-.04-.02,0,0-.02-.01-.03-.02-.01,0-.02-.01-.03-.02-.02-.01-.04-.03-.06-.04-.02-.01-.04-.03-.06-.05-.01-.01-.02-.02-.04-.03-.01-.01-.03-.03-.04-.04-.05-.05-.1-.11-.14-.17-.01-.01-.02-.03-.03-.04,0,0,0-.01-.01-.02,0,0,0,0,0,0,0-.01-.02-.03-.02-.04-.02-.03-.03-.06-.05-.1,0-.02-.01-.03-.02-.05-.01-.03-.02-.06-.03-.1-.01-.04-.02-.08-.03-.11-.01-.05-.02-.11-.02-.17,0-.02,0-.04,0-.07,0-.14.02-.27.06-.4.22-.2.52-.32.84-.32.05,0,.1,0,.14,0,.02,0,.04,0,.06,0h0s.07.01.11.02c0,0-.02,0-.03,0,.56.12.98.63.98,1.23Z"/>
    <path class="cls-3" d="M11.6,16.75c-.09-.07-.15-.21-.15-.38v-.52c0-.09.02-.18.05-.25,0,.02,0,.04,0,.06v.77c0,.12.04.23.1.32Z"/>
    <path class="cls-3" d="M26.71,16.76c-.09-.06-.16-.21-.16-.38v-.52c0-.1.02-.18.06-.25,0,.02,0,.04,0,.07v.77c0,.12.04.23.11.32Z"/>
    <path class="cls-3" d="M26.71,16.76c-.09-.06-.16-.21-.16-.38v-.52c0-.1.02-.18.06-.25,0,.02,0,.04,0,.07v.77c0,.12.04.23.11.32Z"/>
    <path class="cls-3" d="M11.6,16.75c-.09-.07-.15-.21-.15-.38v-.52c0-.09.02-.18.05-.25,0,.02,0,.04,0,.06v.77c0,.12.04.23.1.32Z"/>
    <path class="cls-3" d="M10.41,6.66c0,.12-.02.24-.05.35,0,0-.01.01-.02.02-.23.21-.53.34-.86.34-.04,0-.09,0-.13,0-.02,0-.04,0-.06,0,0,0,0,0,0,0-.02,0-.04,0-.06-.01-.57-.12-1-.63-1-1.23,0-.14.02-.27.06-.4.22-.2.52-.32.84-.32.05,0,.1,0,.14,0,.02,0,.04,0,.06,0h0s.04,0,.06.01c.58.11,1.01.62,1.01,1.24Z"/>
    <path class="cls-3" d="M14.08,6.66c0,.12-.02.24-.05.35,0,0-.01.01-.02.02-.23.21-.53.34-.87.34-.04,0-.09,0-.13,0-.02,0-.04,0-.06,0,0,0,0,0,0,0-.02,0-.04,0-.06-.01-.57-.12-1-.63-1-1.23,0-.14.02-.27.06-.4.22-.2.52-.32.84-.32.05,0,.1,0,.14,0,.02,0,.04,0,.06,0h0s.04,0,.06.01c.58.11,1.01.62,1.01,1.24Z"/>
    <path class="cls-3" d="M17.74,6.66c0,.12-.02.24-.05.35,0,0-.01.01-.02.02-.23.21-.53.34-.87.34-.04,0-.09,0-.13,0-.02,0-.04,0-.06,0t0,0s-.04,0-.06-.01c-.02,0-.04,0-.05-.01h0s-.04-.01-.05-.02c-.09-.03-.17-.06-.25-.11-.01,0-.02-.01-.04-.02,0,0-.02-.01-.03-.02-.01,0-.02-.01-.03-.02-.02-.01-.04-.03-.06-.04-.02-.01-.04-.03-.06-.05-.01-.01-.02-.02-.04-.03-.01-.01-.03-.03-.04-.04-.05-.05-.1-.11-.14-.17-.01-.01-.02-.03-.03-.04,0,0,0-.01-.01-.02,0,0,0,0,0,0,0-.01-.02-.03-.02-.04-.02-.03-.03-.06-.05-.1,0-.02-.01-.03-.02-.05-.01-.03-.02-.06-.03-.1-.01-.04-.02-.08-.03-.11-.01-.05-.02-.11-.02-.17,0-.02,0-.04,0-.07,0-.14.02-.27.06-.4.22-.2.52-.32.84-.32.05,0,.1,0,.14,0,.02,0,.04,0,.06,0h0s.07.01.11.02c0,0-.02,0-.03,0,.56.12.98.63.98,1.23Z"/>
    <path class="cls-3" d="M11.6,16.75c-.09-.07-.15-.21-.15-.38v-.52c0-.09.02-.18.05-.25,0,.02,0,.04,0,.06v.77c0,.12.04.23.1.32Z"/>
    <path class="cls-3" d="M26.71,16.76c-.09-.06-.16-.21-.16-.38v-.52c0-.1.02-.18.06-.25,0,.02,0,.04,0,.07v.77c0,.12.04.23.11.32Z"/>
    <path class="cls-3" d="M17.74,6.66c0,.12-.02.24-.05.35,0,0-.01.01-.02.02-.23.21-.53.34-.87.34-.04,0-.09,0-.13,0-.02,0-.04,0-.06,0t0,0s-.04,0-.06-.01c-.02,0-.04,0-.05-.01h0s-.04-.01-.05-.02c-.09-.03-.17-.06-.25-.11-.01,0-.02-.01-.04-.02,0,0-.02-.01-.03-.02-.01,0-.02-.01-.03-.02-.02-.01-.04-.03-.06-.04-.02-.01-.04-.03-.06-.05-.01-.01-.02-.02-.04-.03-.01-.01-.03-.03-.04-.04-.05-.05-.1-.11-.14-.17-.01-.01-.02-.03-.03-.04,0,0,0-.01-.01-.02,0,0,0,0,0,0,0-.01-.02-.03-.02-.04-.02-.03-.03-.06-.05-.1,0-.02-.01-.03-.02-.05-.01-.03-.02-.06-.03-.1-.01-.04-.02-.08-.03-.11-.01-.05-.02-.11-.02-.17,0-.02,0-.04,0-.07,0-.14.02-.27.06-.4.22-.2.52-.32.84-.32.05,0,.1,0,.14,0,.02,0,.04,0,.06,0h0s.07.01.11.02c0,0-.02,0-.03,0,.56.12.98.63.98,1.23Z"/>
    <path class="cls-3" d="M14.08,6.66c0,.12-.02.24-.05.35,0,0-.01.01-.02.02-.23.21-.53.34-.87.34-.04,0-.09,0-.13,0-.02,0-.04,0-.06,0,0,0,0,0,0,0-.02,0-.04,0-.06-.01-.57-.12-1-.63-1-1.23,0-.14.02-.27.06-.4.22-.2.52-.32.84-.32.05,0,.1,0,.14,0,.02,0,.04,0,.06,0h0s.04,0,.06.01c.58.11,1.01.62,1.01,1.24Z"/>
    <path class="cls-3" d="M10.41,6.66c0,.12-.02.24-.05.35,0,0-.01.01-.02.02-.23.21-.53.34-.86.34-.04,0-.09,0-.13,0-.02,0-.04,0-.06,0,0,0,0,0,0,0-.02,0-.04,0-.06-.01-.57-.12-1-.63-1-1.23,0-.14.02-.27.06-.4.22-.2.52-.32.84-.32.05,0,.1,0,.14,0,.02,0,.04,0,.06,0h0s.04,0,.06.01c.58.11,1.01.62,1.01,1.24Z"/>
    <path class="cls-3" d="M31.14,20.57h6.11c.89,0,1.61.72,1.61,1.61v2.84c0,.89-.72,1.61-1.61,1.61h-6.11c-.89,0-1.61-.72-1.61-1.61v-2.84c0-.89.72-1.61,1.61-1.61Z"/>
    <path class="cls-2" d="M26.71,16.76c-.09-.06-.16-.21-.16-.38v-.52c0-.1.02-.18.06-.25,0,.02,0,.04,0,.07v.77c0,.12.04.23.11.32Z"/>
    <path class="cls-2" d="M11.6,16.75c-.09-.07-.15-.21-.15-.38v-.52c0-.09.02-.18.05-.25,0,.02,0,.04,0,.06v.77c0,.12.04.23.1.32Z"/>
    <path class="cls-3" d="M16.04,20.57h6.11c.89,0,1.61.72,1.61,1.61v2.84c0,.89-.72,1.61-1.61,1.61h-6.11c-.89,0-1.61-.72-1.61-1.61v-2.84c0-.89.72-1.61,1.61-1.61Z"/>
    <path class="cls-3" d="M31.14,20.57h6.11c.89,0,1.61.72,1.61,1.61v2.84c0,.89-.72,1.61-1.61,1.61h-6.11c-.89,0-1.61-.72-1.61-1.61v-2.84c0-.89.72-1.61,1.61-1.61Z"/>
    <path class="cls-2" d="M9.4,5.42s-.04,0-.06-.01h0s-.04,0-.06,0c-.05,0-.09,0-.14,0-.32,0-.62.12-.84.32-.04.13-.06.26-.06.4,0,.61.43,1.11,1,1.23.02,0,.04,0,.06.01,0,0,0,0,0,0,.02,0,.04,0,.06,0,.04,0,.09,0,.13,0,.33,0,.64-.13.86-.34,0,0,.01-.01.02-.02.03-.11.05-.23.05-.35,0-.61-.43-1.12-1.01-1.24ZM13.06,5.42s-.04,0-.06-.01h0s-.04,0-.06,0c-.05,0-.09,0-.14,0-.32,0-.62.12-.84.32-.04.13-.06.26-.06.4,0,.61.43,1.11,1,1.23.02,0,.04,0,.06.01,0,0,0,0,0,0,.02,0,.04,0,.06,0,.04,0,.09,0,.13,0,.33,0,.64-.13.87-.34,0,0,.01-.01.02-.02.03-.11.05-.23.05-.35,0-.61-.43-1.12-1.01-1.24ZM16.75,5.43s.02,0,.03,0c-.04,0-.07-.02-.11-.02h0s-.04,0-.06,0c-.05,0-.1,0-.14,0-.32,0-.62.12-.84.32-.04.13-.06.26-.06.4,0,.02,0,.04,0,.07,0,.06,0,.11.02.17,0,.04.02.08.03.11,0,.03.02.06.03.1,0,.02.01.03.02.05.01.03.03.07.05.1,0,.01.02.03.02.04,0,0,0,0,0,0,0,0,0,.01.01.02,0,.01.02.03.03.04.04.06.09.12.14.17.01.01.03.03.04.04.01.01.02.02.04.03.02.02.04.03.06.05.02.01.04.03.06.04,0,0,.02.01.03.02,0,0,.02.01.03.02.01,0,.02.01.04.02.08.05.16.08.25.11.02,0,.04.01.05.02h0s.04,0,.05.01c.02,0,.04,0,.06.01t0,0s.04,0,.06,0c.04,0,.09,0,.13,0,.34,0,.64-.13.87-.34,0,0,.01-.01.02-.02.03-.11.05-.23.05-.35,0-.6-.42-1.1-.98-1.23ZM16.75,5.43s.02,0,.03,0c-.04,0-.07-.02-.11-.02h0s-.04,0-.06,0c-.05,0-.1,0-.14,0-.32,0-.62.12-.84.32-.04.13-.06.26-.06.4,0,.02,0,.04,0,.07,0,.06,0,.11.02.17,0,.04.02.08.03.11,0,.03.02.06.03.1,0,.02.01.03.02.05.01.03.03.07.05.1,0,.01.02.03.02.04,0,0,0,0,0,0,0,0,0,.01.01.02,0,.01.02.03.03.04.04.06.09.12.14.17.01.01.03.03.04.04.01.01.02.02.04.03.02.02.04.03.06.05.02.01.04.03.06.04,0,0,.02.01.03.02,0,0,.02.01.03.02.01,0,.02.01.04.02.08.05.16.08.25.11.02,0,.04.01.05.02h0s.04,0,.05.01c.02,0,.04,0,.06.01t0,0s.04,0,.06,0c.04,0,.09,0,.13,0,.34,0,.64-.13.87-.34,0,0,.01-.01.02-.02.03-.11.05-.23.05-.35,0-.6-.42-1.1-.98-1.23ZM13.06,5.42s-.04,0-.06-.01h0s-.04,0-.06,0c-.05,0-.09,0-.14,0-.32,0-.62.12-.84.32-.04.13-.06.26-.06.4,0,.61.43,1.11,1,1.23.02,0,.04,0,.06.01,0,0,0,0,0,0,.02,0,.04,0,.06,0,.04,0,.09,0,.13,0,.33,0,.64-.13.87-.34,0,0,.01-.01.02-.02.03-.11.05-.23.05-.35,0-.61-.43-1.12-1.01-1.24ZM9.4,5.42s-.04,0-.06-.01h0s-.04,0-.06,0c-.05,0-.09,0-.14,0-.32,0-.62.12-.84.32-.04.13-.06.26-.06.4,0,.61.43,1.11,1,1.23.02,0,.04,0,.06.01,0,0,0,0,0,0,.02,0,.04,0,.06,0,.04,0,.09,0,.13,0,.33,0,.64-.13.86-.34,0,0,.01-.01.02-.02.03-.11.05-.23.05-.35,0-.61-.43-1.12-1.01-1.24ZM9.4,5.42s-.04,0-.06-.01h0s-.04,0-.06,0c-.05,0-.09,0-.14,0-.32,0-.62.12-.84.32-.04.13-.06.26-.06.4,0,.61.43,1.11,1,1.23.02,0,.04,0,.06.01,0,0,0,0,0,0,.02,0,.04,0,.06,0,.04,0,.09,0,.13,0,.33,0,.64-.13.86-.34,0,0,.01-.01.02-.02.03-.11.05-.23.05-.35,0-.61-.43-1.12-1.01-1.24ZM13.06,5.42s-.04,0-.06-.01h0s-.04,0-.06,0c-.05,0-.09,0-.14,0-.32,0-.62.12-.84.32-.04.13-.06.26-.06.4,0,.61.43,1.11,1,1.23.02,0,.04,0,.06.01,0,0,0,0,0,0,.02,0,.04,0,.06,0,.04,0,.09,0,.13,0,.33,0,.64-.13.87-.34,0,0,.01-.01.02-.02.03-.11.05-.23.05-.35,0-.61-.43-1.12-1.01-1.24ZM16.75,5.43s.02,0,.03,0c-.04,0-.07-.02-.11-.02h0s-.04,0-.06,0c-.05,0-.1,0-.14,0-.32,0-.62.12-.84.32-.04.13-.06.26-.06.4,0,.02,0,.04,0,.07,0,.06,0,.11.02.17,0,.04.02.08.03.11,0,.03.02.06.03.1,0,.02.01.03.02.05.01.03.03.07.05.1,0,.01.02.03.02.04,0,0,0,0,0,0,0,0,0,.01.01.02,0,.01.02.03.03.04.04.06.09.12.14.17.01.01.03.03.04.04.01.01.02.02.04.03.02.02.04.03.06.05.02.01.04.03.06.04,0,0,.02.01.03.02,0,0,.02.01.03.02.01,0,.02.01.04.02.08.05.16.08.25.11.02,0,.04.01.05.02h0s.04,0,.05.01c.02,0,.04,0,.06.01t0,0s.04,0,.06,0c.04,0,.09,0,.13,0,.34,0,.64-.13.87-.34,0,0,.01-.01.02-.02.03-.11.05-.23.05-.35,0-.6-.42-1.1-.98-1.23ZM16.75,5.43s.02,0,.03,0c-.04,0-.07-.02-.11-.02h0s-.04,0-.06,0c-.05,0-.1,0-.14,0-.32,0-.62.12-.84.32-.04.13-.06.26-.06.4,0,.02,0,.04,0,.07,0,.06,0,.11.02.17,0,.04.02.08.03.11,0,.03.02.06.03.1,0,.02.01.03.02.05.01.03.03.07.05.1,0,.01.02.03.02.04,0,0,0,0,0,0,0,0,0,.01.01.02,0,.01.02.03.03.04.04.06.09.12.14.17.01.01.03.03.04.04.01.01.02.02.04.03.02.02.04.03.06.05.02.01.04.03.06.04,0,0,.02.01.03.02,0,0,.02.01.03.02.01,0,.02.01.04.02.08.05.16.08.25.11.02,0,.04.01.05.02h0s.04,0,.05.01c.02,0,.04,0,.06.01t0,0s.04,0,.06,0c.04,0,.09,0,.13,0,.34,0,.64-.13.87-.34,0,0,.01-.01.02-.02.03-.11.05-.23.05-.35,0-.6-.42-1.1-.98-1.23ZM13.06,5.42s-.04,0-.06-.01h0s-.04,0-.06,0c-.05,0-.09,0-.14,0-.32,0-.62.12-.84.32-.04.13-.06.26-.06.4,0,.61.43,1.11,1,1.23.02,0,.04,0,.06.01,0,0,0,0,0,0,.02,0,.04,0,.06,0,.04,0,.09,0,.13,0,.33,0,.64-.13.87-.34,0,0,.01-.01.02-.02.03-.11.05-.23.05-.35,0-.61-.43-1.12-1.01-1.24ZM9.4,5.42s-.04,0-.06-.01h0s-.04,0-.06,0c-.05,0-.09,0-.14,0-.32,0-.62.12-.84.32-.04.13-.06.26-.06.4,0,.61.43,1.11,1,1.23.02,0,.04,0,.06.01,0,0,0,0,0,0,.02,0,.04,0,.06,0,.04,0,.09,0,.13,0,.33,0,.64-.13.86-.34,0,0,.01-.01.02-.02.03-.11.05-.23.05-.35,0-.61-.43-1.12-1.01-1.24ZM9.4,5.42s-.04,0-.06-.01h0s-.04,0-.06,0c-.05,0-.09,0-.14,0-.32,0-.62.12-.84.32-.04.13-.06.26-.06.4,0,.61.43,1.11,1,1.23.02,0,.04,0,.06.01,0,0,0,0,0,0,.02,0,.04,0,.06,0,.04,0,.09,0,.13,0,.33,0,.64-.13.86-.34,0,0,.01-.01.02-.02.03-.11.05-.23.05-.35,0-.61-.43-1.12-1.01-1.24ZM13.06,5.42s-.04,0-.06-.01h0s-.04,0-.06,0c-.05,0-.09,0-.14,0-.32,0-.62.12-.84.32-.04.13-.06.26-.06.4,0,.61.43,1.11,1,1.23.02,0,.04,0,.06.01,0,0,0,0,0,0,.02,0,.04,0,.06,0,.04,0,.09,0,.13,0,.33,0,.64-.13.87-.34,0,0,.01-.01.02-.02.03-.11.05-.23.05-.35,0-.61-.43-1.12-1.01-1.24ZM16.75,5.43s.02,0,.03,0c-.04,0-.07-.02-.11-.02h0s-.04,0-.06,0c-.05,0-.1,0-.14,0-.32,0-.62.12-.84.32-.04.13-.06.26-.06.4,0,.02,0,.04,0,.07,0,.06,0,.11.02.17,0,.04.02.08.03.11,0,.03.02.06.03.1,0,.02.01.03.02.05.01.03.03.07.05.1,0,.01.02.03.02.04,0,0,0,0,0,0,0,0,0,.01.01.02,0,.01.02.03.03.04.04.06.09.12.14.17.01.01.03.03.04.04.01.01.02.02.04.03.02.02.04.03.06.05.02.01.04.03.06.04,0,0,.02.01.03.02,0,0,.02.01.03.02.01,0,.02.01.04.02.08.05.16.08.25.11.02,0,.04.01.05.02h0s.04,0,.05.01c.02,0,.04,0,.06.01t0,0s.04,0,.06,0c.04,0,.09,0,.13,0,.34,0,.64-.13.87-.34,0,0,.01-.01.02-.02.03-.11.05-.23.05-.35,0-.6-.42-1.1-.98-1.23ZM16.75,5.43s.02,0,.03,0c-.04,0-.07-.02-.11-.02h0s-.04,0-.06,0c-.05,0-.1,0-.14,0-.32,0-.62.12-.84.32-.04.13-.06.26-.06.4,0,.02,0,.04,0,.07,0,.06,0,.11.02.17,0,.04.02.08.03.11,0,.03.02.06.03.1,0,.02.01.03.02.05.01.03.03.07.05.1,0,.01.02.03.02.04,0,0,0,0,0,0,0,0,0,.01.01.02,0,.01.02.03.03.04.04.06.09.12.14.17.01.01.03.03.04.04.01.01.02.02.04.03.02.02.04.03.06.05.02.01.04.03.06.04,0,0,.02.01.03.02,0,0,.02.01.03.02.01,0,.02.01.04.02.08.05.16.08.25.11.02,0,.04.01.05.02h0s.04,0,.05.01c.02,0,.04,0,.06.01t0,0s.04,0,.06,0c.04,0,.09,0,.13,0,.34,0,.64-.13.87-.34,0,0,.01-.01.02-.02.03-.11.05-.23.05-.35,0-.6-.42-1.1-.98-1.23ZM13.06,5.42s-.04,0-.06-.01h0s-.04,0-.06,0c-.05,0-.09,0-.14,0-.32,0-.62.12-.84.32-.04.13-.06.26-.06.4,0,.61.43,1.11,1,1.23.02,0,.04,0,.06.01,0,0,0,0,0,0,.02,0,.04,0,.06,0,.04,0,.09,0,.13,0,.33,0,.64-.13.87-.34,0,0,.01-.01.02-.02.03-.11.05-.23.05-.35,0-.61-.43-1.12-1.01-1.24ZM9.4,5.42s-.04,0-.06-.01h0s-.04,0-.06,0c-.05,0-.09,0-.14,0-.32,0-.62.12-.84.32-.04.13-.06.26-.06.4,0,.61.43,1.11,1,1.23.02,0,.04,0,.06.01,0,0,0,0,0,0,.02,0,.04,0,.06,0,.04,0,.09,0,.13,0,.33,0,.64-.13.86-.34,0,0,.01-.01.02-.02.03-.11.05-.23.05-.35,0-.61-.43-1.12-1.01-1.24ZM9.4,5.42s-.04,0-.06-.01h0s-.04,0-.06,0c-.05,0-.09,0-.14,0-.32,0-.62.12-.84.32-.04.13-.06.26-.06.4,0,.61.43,1.11,1,1.23.02,0,.04,0,.06.01,0,0,0,0,0,0,.02,0,.04,0,.06,0,.04,0,.09,0,.13,0,.33,0,.64-.13.86-.34,0,0,.01-.01.02-.02.03-.11.05-.23.05-.35,0-.61-.43-1.12-1.01-1.24ZM13.06,5.42s-.04,0-.06-.01h0s-.04,0-.06,0c-.05,0-.09,0-.14,0-.32,0-.62.12-.84.32-.04.13-.06.26-.06.4,0,.61.43,1.11,1,1.23.02,0,.04,0,.06.01,0,0,0,0,0,0,.02,0,.04,0,.06,0,.04,0,.09,0,.13,0,.33,0,.64-.13.87-.34,0,0,.01-.01.02-.02.03-.11.05-.23.05-.35,0-.61-.43-1.12-1.01-1.24ZM16.75,5.43s.02,0,.03,0c-.04,0-.07-.02-.11-.02h0s-.04,0-.06,0c-.05,0-.1,0-.14,0-.32,0-.62.12-.84.32-.04.13-.06.26-.06.4,0,.02,0,.04,0,.07,0,.06,0,.11.02.17,0,.04.02.08.03.11,0,.03.02.06.03.1,0,.02.01.03.02.05.01.03.03.07.05.1,0,.01.02.03.02.04,0,0,0,0,0,0,0,0,0,.01.01.02,0,.01.02.03.03.04.04.06.09.12.14.17.01.01.03.03.04.04.01.01.02.02.04.03.02.02.04.03.06.05.02.01.04.03.06.04,0,0,.02.01.03.02,0,0,.02.01.03.02.01,0,.02.01.04.02.08.05.16.08.25.11.02,0,.04.01.05.02h0s.04,0,.05.01c.02,0,.04,0,.06.01t0,0s.04,0,.06,0c.04,0,.09,0,.13,0,.34,0,.64-.13.87-.34,0,0,.01-.01.02-.02.03-.11.05-.23.05-.35,0-.6-.42-1.1-.98-1.23ZM16.75,5.43s.02,0,.03,0c-.04,0-.07-.02-.11-.02h0s-.04,0-.06,0c-.05,0-.1,0-.14,0-.32,0-.62.12-.84.32-.04.13-.06.26-.06.4,0,.02,0,.04,0,.07,0,.06,0,.11.02.17,0,.04.02.08.03.11,0,.03.02.06.03.1,0,.02.01.03.02.05.01.03.03.07.05.1,0,.01.02.03.02.04,0,0,0,0,0,0,0,0,0,.01.01.02,0,.01.02.03.03.04.04.06.09.12.14.17.01.01.03.03.04.04.01.01.02.02.04.03.02.02.04.03.06.05.02.01.04.03.06.04,0,0,.02.01.03.02,0,0,.02.01.03.02.01,0,.02.01.04.02.08.05.16.08.25.11.02,0,.04.01.05.02h0s.04,0,.05.01c.02,0,.04,0,.06.01t0,0s.04,0,.06,0c.04,0,.09,0,.13,0,.34,0,.64-.13.87-.34,0,0,.01-.01.02-.02.03-.11.05-.23.05-.35,0-.6-.42-1.1-.98-1.23ZM13.06,5.42s-.04,0-.06-.01h0s-.04,0-.06,0c-.05,0-.09,0-.14,0-.32,0-.62.12-.84.32-.04.13-.06.26-.06.4,0,.61.43,1.11,1,1.23.02,0,.04,0,.06.01,0,0,0,0,0,0,.02,0,.04,0,.06,0,.04,0,.09,0,.13,0,.33,0,.64-.13.87-.34,0,0,.01-.01.02-.02.03-.11.05-.23.05-.35,0-.61-.43-1.12-1.01-1.24ZM9.4,5.42s-.04,0-.06-.01h0s-.04,0-.06,0c-.05,0-.09,0-.14,0-.32,0-.62.12-.84.32-.04.13-.06.26-.06.4,0,.61.43,1.11,1,1.23.02,0,.04,0,.06.01,0,0,0,0,0,0,.02,0,.04,0,.06,0,.04,0,.09,0,.13,0,.33,0,.64-.13.86-.34,0,0,.01-.01.02-.02.03-.11.05-.23.05-.35,0-.61-.43-1.12-1.01-1.24ZM9.4,5.42s-.04,0-.06-.01h0s-.04,0-.06,0c-.05,0-.09,0-.14,0-.32,0-.62.12-.84.32-.04.13-.06.26-.06.4,0,.61.43,1.11,1,1.23.02,0,.04,0,.06.01,0,0,0,0,0,0,.02,0,.04,0,.06,0,.04,0,.09,0,.13,0,.33,0,.64-.13.86-.34,0,0,.01-.01.02-.02.03-.11.05-.23.05-.35,0-.61-.43-1.12-1.01-1.24ZM13.06,5.42s-.04,0-.06-.01h0s-.04,0-.06,0c-.05,0-.09,0-.14,0-.32,0-.62.12-.84.32-.04.13-.06.26-.06.4,0,.61.43,1.11,1,1.23.02,0,.04,0,.06.01,0,0,0,0,0,0,.02,0,.04,0,.06,0,.04,0,.09,0,.13,0,.33,0,.64-.13.87-.34,0,0,.01-.01.02-.02.03-.11.05-.23.05-.35,0-.61-.43-1.12-1.01-1.24ZM16.75,5.43s.02,0,.03,0c-.04,0-.07-.02-.11-.02h0s-.04,0-.06,0c-.05,0-.1,0-.14,0-.32,0-.62.12-.84.32-.04.13-.06.26-.06.4,0,.02,0,.04,0,.07,0,.06,0,.11.02.17,0,.04.02.08.03.11,0,.03.02.06.03.1,0,.02.01.03.02.05.01.03.03.07.05.1,0,.01.02.03.02.04,0,0,0,0,0,0,0,0,0,.01.01.02,0,.01.02.03.03.04.04.06.09.12.14.17.01.01.03.03.04.04.01.01.02.02.04.03.02.02.04.03.06.05.02.01.04.03.06.04,0,0,.02.01.03.02,0,0,.02.01.03.02.01,0,.02.01.04.02.08.05.16.08.25.11.02,0,.04.01.05.02h0s.04,0,.05.01c.02,0,.04,0,.06.01t0,0s.04,0,.06,0c.04,0,.09,0,.13,0,.34,0,.64-.13.87-.34,0,0,.01-.01.02-.02.03-.11.05-.23.05-.35,0-.6-.42-1.1-.98-1.23ZM16.75,5.43s.02,0,.03,0c-.04,0-.07-.02-.11-.02h0s-.04,0-.06,0c-.05,0-.1,0-.14,0-.32,0-.62.12-.84.32-.04.13-.06.26-.06.4,0,.02,0,.04,0,.07,0,.06,0,.11.02.17,0,.04.02.08.03.11,0,.03.02.06.03.1,0,.02.01.03.02.05.01.03.03.07.05.1,0,.01.02.03.02.04,0,0,0,0,0,0,0,0,0,.01.01.02,0,.01.02.03.03.04.04.06.09.12.14.17.01.01.03.03.04.04.01.01.02.02.04.03.02.02.04.03.06.05.02.01.04.03.06.04,0,0,.02.01.03.02,0,0,.02.01.03.02.01,0,.02.01.04.02.08.05.16.08.25.11.02,0,.04.01.05.02h0s.04,0,.05.01c.02,0,.04,0,.06.01t0,0s.04,0,.06,0c.04,0,.09,0,.13,0,.34,0,.64-.13.87-.34,0,0,.01-.01.02-.02.03-.11.05-.23.05-.35,0-.6-.42-1.1-.98-1.23ZM13.06,5.42s-.04,0-.06-.01h0s-.04,0-.06,0c-.05,0-.09,0-.14,0-.32,0-.62.12-.84.32-.04.13-.06.26-.06.4,0,.61.43,1.11,1,1.23.02,0,.04,0,.06.01,0,0,0,0,0,0,.02,0,.04,0,.06,0,.04,0,.09,0,.13,0,.33,0,.64-.13.87-.34,0,0,.01-.01.02-.02.03-.11.05-.23.05-.35,0-.61-.43-1.12-1.01-1.24ZM9.4,5.42s-.04,0-.06-.01h0s-.04,0-.06,0c-.05,0-.09,0-.14,0-.32,0-.62.12-.84.32-.04.13-.06.26-.06.4,0,.61.43,1.11,1,1.23.02,0,.04,0,.06.01,0,0,0,0,0,0,.02,0,.04,0,.06,0,.04,0,.09,0,.13,0,.33,0,.64-.13.86-.34,0,0,.01-.01.02-.02.03-.11.05-.23.05-.35,0-.61-.43-1.12-1.01-1.24ZM9.4,5.42s-.04,0-.06-.01h0s-.04,0-.06,0c-.05,0-.09,0-.14,0-.32,0-.62.12-.84.32-.04.13-.06.26-.06.4,0,.61.43,1.11,1,1.23.02,0,.04,0,.06.01,0,0,0,0,0,0,.02,0,.04,0,.06,0,.04,0,.09,0,.13,0,.33,0,.64-.13.86-.34,0,0,.01-.01.02-.02.03-.11.05-.23.05-.35,0-.61-.43-1.12-1.01-1.24ZM13.06,5.42s-.04,0-.06-.01h0s-.04,0-.06,0c-.05,0-.09,0-.14,0-.32,0-.62.12-.84.32-.04.13-.06.26-.06.4,0,.61.43,1.11,1,1.23.02,0,.04,0,.06.01,0,0,0,0,0,0,.02,0,.04,0,.06,0,.04,0,.09,0,.13,0,.33,0,.64-.13.87-.34,0,0,.01-.01.02-.02.03-.11.05-.23.05-.35,0-.61-.43-1.12-1.01-1.24ZM16.75,5.43s.02,0,.03,0c-.04,0-.07-.02-.11-.02h0s-.04,0-.06,0c-.05,0-.1,0-.14,0-.32,0-.62.12-.84.32-.04.13-.06.26-.06.4,0,.02,0,.04,0,.07,0,.06,0,.11.02.17,0,.04.02.08.03.11,0,.03.02.06.03.1,0,.02.01.03.02.05.01.03.03.07.05.1,0,.01.02.03.02.04,0,0,0,0,0,0,0,0,0,.01.01.02,0,.01.02.03.03.04.04.06.09.12.14.17.01.01.03.03.04.04.01.01.02.02.04.03.02.02.04.03.06.05.02.01.04.03.06.04,0,0,.02.01.03.02,0,0,.02.01.03.02.01,0,.02.01.04.02.08.05.16.08.25.11.02,0,.04.01.05.02h0s.04,0,.05.01c.02,0,.04,0,.06.01t0,0s.04,0,.06,0c.04,0,.09,0,.13,0,.34,0,.64-.13.87-.34,0,0,.01-.01.02-.02.03-.11.05-.23.05-.35,0-.6-.42-1.1-.98-1.23ZM16.75,5.43s.02,0,.03,0c-.04,0-.07-.02-.11-.02h0s-.04,0-.06,0c-.05,0-.1,0-.14,0-.32,0-.62.12-.84.32-.04.13-.06.26-.06.4,0,.02,0,.04,0,.07,0,.06,0,.11.02.17,0,.04.02.08.03.11,0,.03.02.06.03.1,0,.02.01.03.02.05.01.03.03.07.05.1,0,.01.02.03.02.04,0,0,0,0,0,0,0,0,0,.01.01.02,0,.01.02.03.03.04.04.06.09.12.14.17.01.01.03.03.04.04.01.01.02.02.04.03.02.02.04.03.06.05.02.01.04.03.06.04,0,0,.02.01.03.02,0,0,.02.01.03.02.01,0,.02.01.04.02.08.05.16.08.25.11.02,0,.04.01.05.02h0s.04,0,.05.01c.02,0,.04,0,.06.01t0,0s.04,0,.06,0c.04,0,.09,0,.13,0,.34,0,.64-.13.87-.34,0,0,.01-.01.02-.02.03-.11.05-.23.05-.35,0-.6-.42-1.1-.98-1.23ZM13.06,5.42s-.04,0-.06-.01h0s-.04,0-.06,0c-.05,0-.09,0-.14,0-.32,0-.62.12-.84.32-.04.13-.06.26-.06.4,0,.61.43,1.11,1,1.23.02,0,.04,0,.06.01,0,0,0,0,0,0,.02,0,.04,0,.06,0,.04,0,.09,0,.13,0,.33,0,.64-.13.87-.34,0,0,.01-.01.02-.02.03-.11.05-.23.05-.35,0-.61-.43-1.12-1.01-1.24ZM9.4,5.42s-.04,0-.06-.01h0s-.04,0-.06,0c-.05,0-.09,0-.14,0-.32,0-.62.12-.84.32-.04.13-.06.26-.06.4,0,.61.43,1.11,1,1.23.02,0,.04,0,.06.01,0,0,0,0,0,0,.02,0,.04,0,.06,0,.04,0,.09,0,.13,0,.33,0,.64-.13.86-.34,0,0,.01-.01.02-.02.03-.11.05-.23.05-.35,0-.61-.43-1.12-1.01-1.24ZM9.4,5.42s-.04,0-.06-.01h0s-.04,0-.06,0c-.05,0-.09,0-.14,0-.32,0-.62.12-.84.32-.04.13-.06.26-.06.4,0,.61.43,1.11,1,1.23.02,0,.04,0,.06.01,0,0,0,0,0,0,.02,0,.04,0,.06,0,.04,0,.09,0,.13,0,.33,0,.64-.13.86-.34,0,0,.01-.01.02-.02.03-.11.05-.23.05-.35,0-.61-.43-1.12-1.01-1.24ZM13.06,5.42s-.04,0-.06-.01h0s-.04,0-.06,0c-.05,0-.09,0-.14,0-.32,0-.62.12-.84.32-.04.13-.06.26-.06.4,0,.61.43,1.11,1,1.23.02,0,.04,0,.06.01,0,0,0,0,0,0,.02,0,.04,0,.06,0,.04,0,.09,0,.13,0,.33,0,.64-.13.87-.34,0,0,.01-.01.02-.02.03-.11.05-.23.05-.35,0-.61-.43-1.12-1.01-1.24ZM16.75,5.43s.02,0,.03,0c-.04,0-.07-.02-.11-.02h0s-.04,0-.06,0c-.05,0-.1,0-.14,0-.32,0-.62.12-.84.32-.04.13-.06.26-.06.4,0,.02,0,.04,0,.07,0,.06,0,.11.02.17,0,.04.02.08.03.11,0,.03.02.06.03.1,0,.02.01.03.02.05.01.03.03.07.05.1,0,.01.02.03.02.04,0,0,0,0,0,0,0,0,0,.01.01.02,0,.01.02.03.03.04.04.06.09.12.14.17.01.01.03.03.04.04.01.01.02.02.04.03.02.02.04.03.06.05.02.01.04.03.06.04,0,0,.02.01.03.02,0,0,.02.01.03.02.01,0,.02.01.04.02.08.05.16.08.25.11.02,0,.04.01.05.02h0s.04,0,.05.01c.02,0,.04,0,.06.01t0,0s.04,0,.06,0c.04,0,.09,0,.13,0,.34,0,.64-.13.87-.34,0,0,.01-.01.02-.02.03-.11.05-.23.05-.35,0-.6-.42-1.1-.98-1.23ZM16.75,5.43s.02,0,.03,0c-.04,0-.07-.02-.11-.02h0s-.04,0-.06,0c-.05,0-.1,0-.14,0-.32,0-.62.12-.84.32-.04.13-.06.26-.06.4,0,.02,0,.04,0,.07,0,.06,0,.11.02.17,0,.04.02.08.03.11,0,.03.02.06.03.1,0,.02.01.03.02.05.01.03.03.07.05.1,0,.01.02.03.02.04,0,0,0,0,0,0,0,0,0,.01.01.02,0,.01.02.03.03.04.04.06.09.12.14.17.01.01.03.03.04.04.01.01.02.02.04.03.02.02.04.03.06.05.02.01.04.03.06.04,0,0,.02.01.03.02,0,0,.02.01.03.02.01,0,.02.01.04.02.08.05.16.08.25.11.02,0,.04.01.05.02h0s.04,0,.05.01c.02,0,.04,0,.06.01t0,0s.04,0,.06,0c.04,0,.09,0,.13,0,.34,0,.64-.13.87-.34,0,0,.01-.01.02-.02.03-.11.05-.23.05-.35,0-.6-.42-1.1-.98-1.23ZM13.06,5.42s-.04,0-.06-.01h0s-.04,0-.06,0c-.05,0-.09,0-.14,0-.32,0-.62.12-.84.32-.04.13-.06.26-.06.4,0,.61.43,1.11,1,1.23.02,0,.04,0,.06.01,0,0,0,0,0,0,.02,0,.04,0,.06,0,.04,0,.09,0,.13,0,.33,0,.64-.13.87-.34,0,0,.01-.01.02-.02.03-.11.05-.23.05-.35,0-.61-.43-1.12-1.01-1.24ZM9.4,5.42s-.04,0-.06-.01h0s-.04,0-.06,0c-.05,0-.09,0-.14,0-.32,0-.62.12-.84.32-.04.13-.06.26-.06.4,0,.61.43,1.11,1,1.23.02,0,.04,0,.06.01,0,0,0,0,0,0,.02,0,.04,0,.06,0,.04,0,.09,0,.13,0,.33,0,.64-.13.86-.34,0,0,.01-.01.02-.02.03-.11.05-.23.05-.35,0-.61-.43-1.12-1.01-1.24ZM42.91,0H5.5C2.46,0,0,2.23,0,4.99v33.91c0,2.76,2.46,4.99,5.5,4.99h2.92c.42,0,.76.34.76.76v4.99c0,.93,1.24,1.4,1.97.74l6.62-5.99c.35-.32.82-.5,1.29-.5h23.84c3.04,0,5.5-2.23,5.5-4.99V4.99c0-2.76-2.46-4.99-5.5-4.99ZM31.93,40.44h-15.41c-.68,0-1.33-.32-1.78-.84-.44-.52-.72-1.23-.72-2.02,0-1.58,1.1-2.87,2.45-2.87h15.45c1.35,0,2.45,1.28,2.45,2.87s-1.1,2.86-2.45,2.86ZM42.34,30.37c0,.79-.64,1.43-1.43,1.43H7.67c-.79,0-1.43-.64-1.43-1.43V12.99c0-.79.64-1.43,1.43-1.43h33.24c.79,0,1.43.64,1.43,1.43v17.38ZM42.36,7.83c0,.44-.28.8-.63.8H6.62c-.35,0-.63-.36-.63-.8v-2.66c0-1,.63-1.81,1.42-1.81h33.53c.78,0,1.42.81,1.42,1.81v2.66ZM16.75,5.43s.02,0,.03,0c-.04,0-.07-.02-.11-.02h0s-.04,0-.06,0c-.05,0-.1,0-.14,0-.32,0-.62.12-.84.32-.04.13-.06.26-.06.4,0,.02,0,.04,0,.07,0,.06,0,.11.02.17,0,.04.02.08.03.11,0,.03.02.06.03.1,0,.02.01.03.02.05.01.03.03.07.05.1,0,.01.02.03.02.04,0,0,0,0,0,0,0,0,0,.01.01.02,0,.01.02.03.03.04.04.06.09.12.14.17.01.01.03.03.04.04.01.01.02.02.04.03.02.02.04.03.06.05.02.01.04.03.06.04,0,0,.02.01.03.02,0,0,.02.01.03.02.01,0,.02.01.04.02.08.05.16.08.25.11.02,0,.04.01.05.02h0s.04,0,.05.01c.02,0,.04,0,.06.01t0,0s.04,0,.06,0c.04,0,.09,0,.13,0,.34,0,.64-.13.87-.34,0,0,.01-.01.02-.02.03-.11.05-.23.05-.35,0-.6-.42-1.1-.98-1.23ZM13.06,5.42s-.04,0-.06-.01h0s-.04,0-.06,0c-.05,0-.09,0-.14,0-.32,0-.62.12-.84.32-.04.13-.06.26-.06.4,0,.61.43,1.11,1,1.23.02,0,.04,0,.06.01,0,0,0,0,0,0,.02,0,.04,0,.06,0,.04,0,.09,0,.13,0,.33,0,.64-.13.87-.34,0,0,.01-.01.02-.02.03-.11.05-.23.05-.35,0-.61-.43-1.12-1.01-1.24ZM9.4,5.42s-.04,0-.06-.01h0s-.04,0-.06,0c-.05,0-.09,0-.14,0-.32,0-.62.12-.84.32-.04.13-.06.26-.06.4,0,.61.43,1.11,1,1.23.02,0,.04,0,.06.01,0,0,0,0,0,0,.02,0,.04,0,.06,0,.04,0,.09,0,.13,0,.33,0,.64-.13.86-.34,0,0,.01-.01.02-.02.03-.11.05-.23.05-.35,0-.61-.43-1.12-1.01-1.24ZM9.4,5.42s-.04,0-.06-.01h0s-.04,0-.06,0c-.05,0-.09,0-.14,0-.32,0-.62.12-.84.32-.04.13-.06.26-.06.4,0,.61.43,1.11,1,1.23.02,0,.04,0,.06.01,0,0,0,0,0,0,.02,0,.04,0,.06,0,.04,0,.09,0,.13,0,.33,0,.64-.13.86-.34,0,0,.01-.01.02-.02.03-.11.05-.23.05-.35,0-.61-.43-1.12-1.01-1.24ZM13.06,5.42s-.04,0-.06-.01h0s-.04,0-.06,0c-.05,0-.09,0-.14,0-.32,0-.62.12-.84.32-.04.13-.06.26-.06.4,0,.61.43,1.11,1,1.23.02,0,.04,0,.06.01,0,0,0,0,0,0,.02,0,.04,0,.06,0,.04,0,.09,0,.13,0,.33,0,.64-.13.87-.34,0,0,.01-.01.02-.02.03-.11.05-.23.05-.35,0-.61-.43-1.12-1.01-1.24ZM16.75,5.43s.02,0,.03,0c-.04,0-.07-.02-.11-.02h0s-.04,0-.06,0c-.05,0-.1,0-.14,0-.32,0-.62.12-.84.32-.04.13-.06.26-.06.4,0,.02,0,.04,0,.07,0,.06,0,.11.02.17,0,.04.02.08.03.11,0,.03.02.06.03.1,0,.02.01.03.02.05.01.03.03.07.05.1,0,.01.02.03.02.04,0,0,0,0,0,0,0,0,0,.01.01.02,0,.01.02.03.03.04.04.06.09.12.14.17.01.01.03.03.04.04.01.01.02.02.04.03.02.02.04.03.06.05.02.01.04.03.06.04,0,0,.02.01.03.02,0,0,.02.01.03.02.01,0,.02.01.04.02.08.05.16.08.25.11.02,0,.04.01.05.02h0s.04,0,.05.01c.02,0,.04,0,.06.01t0,0s.04,0,.06,0c.04,0,.09,0,.13,0,.34,0,.64-.13.87-.34,0,0,.01-.01.02-.02.03-.11.05-.23.05-.35,0-.6-.42-1.1-.98-1.23ZM16.75,5.43s.02,0,.03,0c-.04,0-.07-.02-.11-.02h0s-.04,0-.06,0c-.05,0-.1,0-.14,0-.32,0-.62.12-.84.32-.04.13-.06.26-.06.4,0,.02,0,.04,0,.07,0,.06,0,.11.02.17,0,.04.02.08.03.11,0,.03.02.06.03.1,0,.02.01.03.02.05.01.03.03.07.05.1,0,.01.02.03.02.04,0,0,0,0,0,0,0,0,0,.01.01.02,0,.01.02.03.03.04.04.06.09.12.14.17.01.01.03.03.04.04.01.01.02.02.04.03.02.02.04.03.06.05.02.01.04.03.06.04,0,0,.02.01.03.02,0,0,.02.01.03.02.01,0,.02.01.04.02.08.05.16.08.25.11.02,0,.04.01.05.02h0s.04,0,.05.01c.02,0,.04,0,.06.01t0,0s.04,0,.06,0c.04,0,.09,0,.13,0,.34,0,.64-.13.87-.34,0,0,.01-.01.02-.02.03-.11.05-.23.05-.35,0-.6-.42-1.1-.98-1.23ZM13.06,5.42s-.04,0-.06-.01h0s-.04,0-.06,0c-.05,0-.09,0-.14,0-.32,0-.62.12-.84.32-.04.13-.06.26-.06.4,0,.61.43,1.11,1,1.23.02,0,.04,0,.06.01,0,0,0,0,0,0,.02,0,.04,0,.06,0,.04,0,.09,0,.13,0,.33,0,.64-.13.87-.34,0,0,.01-.01.02-.02.03-.11.05-.23.05-.35,0-.61-.43-1.12-1.01-1.24ZM9.4,5.42s-.04,0-.06-.01h0s-.04,0-.06,0c-.05,0-.09,0-.14,0-.32,0-.62.12-.84.32-.04.13-.06.26-.06.4,0,.61.43,1.11,1,1.23.02,0,.04,0,.06.01,0,0,0,0,0,0,.02,0,.04,0,.06,0,.04,0,.09,0,.13,0,.33,0,.64-.13.86-.34,0,0,.01-.01.02-.02.03-.11.05-.23.05-.35,0-.61-.43-1.12-1.01-1.24ZM9.4,5.42s-.04,0-.06-.01h0s-.04,0-.06,0c-.05,0-.09,0-.14,0-.32,0-.62.12-.84.32-.04.13-.06.26-.06.4,0,.61.43,1.11,1,1.23.02,0,.04,0,.06.01,0,0,0,0,0,0,.02,0,.04,0,.06,0,.04,0,.09,0,.13,0,.33,0,.64-.13.86-.34,0,0,.01-.01.02-.02.03-.11.05-.23.05-.35,0-.61-.43-1.12-1.01-1.24ZM13.06,5.42s-.04,0-.06-.01h0s-.04,0-.06,0c-.05,0-.09,0-.14,0-.32,0-.62.12-.84.32-.04.13-.06.26-.06.4,0,.61.43,1.11,1,1.23.02,0,.04,0,.06.01,0,0,0,0,0,0,.02,0,.04,0,.06,0,.04,0,.09,0,.13,0,.33,0,.64-.13.87-.34,0,0,.01-.01.02-.02.03-.11.05-.23.05-.35,0-.61-.43-1.12-1.01-1.24ZM16.75,5.43s.02,0,.03,0c-.04,0-.07-.02-.11-.02h0s-.04,0-.06,0c-.05,0-.1,0-.14,0-.32,0-.62.12-.84.32-.04.13-.06.26-.06.4,0,.02,0,.04,0,.07,0,.06,0,.11.02.17,0,.04.02.08.03.11,0,.03.02.06.03.1,0,.02.01.03.02.05.01.03.03.07.05.1,0,.01.02.03.02.04,0,0,0,0,0,0,0,0,0,.01.01.02,0,.01.02.03.03.04.04.06.09.12.14.17.01.01.03.03.04.04.01.01.02.02.04.03.02.02.04.03.06.05.02.01.04.03.06.04,0,0,.02.01.03.02,0,0,.02.01.03.02.01,0,.02.01.04.02.08.05.16.08.25.11.02,0,.04.01.05.02h0s.04,0,.05.01c.02,0,.04,0,.06.01t0,0s.04,0,.06,0c.04,0,.09,0,.13,0,.34,0,.64-.13.87-.34,0,0,.01-.01.02-.02.03-.11.05-.23.05-.35,0-.6-.42-1.1-.98-1.23ZM16.75,5.43s.02,0,.03,0c-.04,0-.07-.02-.11-.02h0s-.04,0-.06,0c-.05,0-.1,0-.14,0-.32,0-.62.12-.84.32-.04.13-.06.26-.06.4,0,.02,0,.04,0,.07,0,.06,0,.11.02.17,0,.04.02.08.03.11,0,.03.02.06.03.1,0,.02.01.03.02.05.01.03.03.07.05.1,0,.01.02.03.02.04,0,0,0,0,0,0,0,0,0,.01.01.02,0,.01.02.03.03.04.04.06.09.12.14.17.01.01.03.03.04.04.01.01.02.02.04.03.02.02.04.03.06.05.02.01.04.03.06.04,0,0,.02.01.03.02,0,0,.02.01.03.02.01,0,.02.01.04.02.08.05.16.08.25.11.02,0,.04.01.05.02h0s.04,0,.05.01c.02,0,.04,0,.06.01t0,0s.04,0,.06,0c.04,0,.09,0,.13,0,.34,0,.64-.13.87-.34,0,0,.01-.01.02-.02.03-.11.05-.23.05-.35,0-.6-.42-1.1-.98-1.23ZM13.06,5.42s-.04,0-.06-.01h0s-.04,0-.06,0c-.05,0-.09,0-.14,0-.32,0-.62.12-.84.32-.04.13-.06.26-.06.4,0,.61.43,1.11,1,1.23.02,0,.04,0,.06.01,0,0,0,0,0,0,.02,0,.04,0,.06,0,.04,0,.09,0,.13,0,.33,0,.64-.13.87-.34,0,0,.01-.01.02-.02.03-.11.05-.23.05-.35,0-.61-.43-1.12-1.01-1.24ZM9.4,5.42s-.04,0-.06-.01h0s-.04,0-.06,0c-.05,0-.09,0-.14,0-.32,0-.62.12-.84.32-.04.13-.06.26-.06.4,0,.61.43,1.11,1,1.23.02,0,.04,0,.06.01,0,0,0,0,0,0,.02,0,.04,0,.06,0,.04,0,.09,0,.13,0,.33,0,.64-.13.86-.34,0,0,.01-.01.02-.02.03-.11.05-.23.05-.35,0-.61-.43-1.12-1.01-1.24ZM9.4,5.42s-.04,0-.06-.01h0s-.04,0-.06,0c-.05,0-.09,0-.14,0-.32,0-.62.12-.84.32-.04.13-.06.26-.06.4,0,.61.43,1.11,1,1.23.02,0,.04,0,.06.01,0,0,0,0,0,0,.02,0,.04,0,.06,0,.04,0,.09,0,.13,0,.33,0,.64-.13.86-.34,0,0,.01-.01.02-.02.03-.11.05-.23.05-.35,0-.61-.43-1.12-1.01-1.24ZM13.06,5.42s-.04,0-.06-.01h0s-.04,0-.06,0c-.05,0-.09,0-.14,0-.32,0-.62.12-.84.32-.04.13-.06.26-.06.4,0,.61.43,1.11,1,1.23.02,0,.04,0,.06.01,0,0,0,0,0,0,.02,0,.04,0,.06,0,.04,0,.09,0,.13,0,.33,0,.64-.13.87-.34,0,0,.01-.01.02-.02.03-.11.05-.23.05-.35,0-.61-.43-1.12-1.01-1.24ZM16.75,5.43s.02,0,.03,0c-.04,0-.07-.02-.11-.02h0s-.04,0-.06,0c-.05,0-.1,0-.14,0-.32,0-.62.12-.84.32-.04.13-.06.26-.06.4,0,.02,0,.04,0,.07,0,.06,0,.11.02.17,0,.04.02.08.03.11,0,.03.02.06.03.1,0,.02.01.03.02.05.01.03.03.07.05.1,0,.01.02.03.02.04,0,0,0,0,0,0,0,0,0,.01.01.02,0,.01.02.03.03.04.04.06.09.12.14.17.01.01.03.03.04.04.01.01.02.02.04.03.02.02.04.03.06.05.02.01.04.03.06.04,0,0,.02.01.03.02,0,0,.02.01.03.02.01,0,.02.01.04.02.08.05.16.08.25.11.02,0,.04.01.05.02h0s.04,0,.05.01c.02,0,.04,0,.06.01t0,0s.04,0,.06,0c.04,0,.09,0,.13,0,.34,0,.64-.13.87-.34,0,0,.01-.01.02-.02.03-.11.05-.23.05-.35,0-.6-.42-1.1-.98-1.23ZM16.75,5.43s.02,0,.03,0c-.04,0-.07-.02-.11-.02h0s-.04,0-.06,0c-.05,0-.1,0-.14,0-.32,0-.62.12-.84.32-.04.13-.06.26-.06.4,0,.02,0,.04,0,.07,0,.06,0,.11.02.17,0,.04.02.08.03.11,0,.03.02.06.03.1,0,.02.01.03.02.05.01.03.03.07.05.1,0,.01.02.03.02.04,0,0,0,0,0,0,0,0,0,.01.01.02,0,.01.02.03.03.04.04.06.09.12.14.17.01.01.03.03.04.04.01.01.02.02.04.03.02.02.04.03.06.05.02.01.04.03.06.04,0,0,.02.01.03.02,0,0,.02.01.03.02.01,0,.02.01.04.02.08.05.16.08.25.11.02,0,.04.01.05.02h0s.04,0,.05.01c.02,0,.04,0,.06.01t0,0s.04,0,.06,0c.04,0,.09,0,.13,0,.34,0,.64-.13.87-.34,0,0,.01-.01.02-.02.03-.11.05-.23.05-.35,0-.6-.42-1.1-.98-1.23ZM13.06,5.42s-.04,0-.06-.01h0s-.04,0-.06,0c-.05,0-.09,0-.14,0-.32,0-.62.12-.84.32-.04.13-.06.26-.06.4,0,.61.43,1.11,1,1.23.02,0,.04,0,.06.01,0,0,0,0,0,0,.02,0,.04,0,.06,0,.04,0,.09,0,.13,0,.33,0,.64-.13.87-.34,0,0,.01-.01.02-.02.03-.11.05-.23.05-.35,0-.61-.43-1.12-1.01-1.24ZM9.4,5.42s-.04,0-.06-.01h0s-.04,0-.06,0c-.05,0-.09,0-.14,0-.32,0-.62.12-.84.32-.04.13-.06.26-.06.4,0,.61.43,1.11,1,1.23.02,0,.04,0,.06.01,0,0,0,0,0,0,.02,0,.04,0,.06,0,.04,0,.09,0,.13,0,.33,0,.64-.13.86-.34,0,0,.01-.01.02-.02.03-.11.05-.23.05-.35,0-.61-.43-1.12-1.01-1.24ZM9.4,5.42s-.04,0-.06-.01h0s-.04,0-.06,0c-.05,0-.09,0-.14,0-.32,0-.62.12-.84.32-.04.13-.06.26-.06.4,0,.61.43,1.11,1,1.23.02,0,.04,0,.06.01,0,0,0,0,0,0,.02,0,.04,0,.06,0,.04,0,.09,0,.13,0,.33,0,.64-.13.86-.34,0,0,.01-.01.02-.02.03-.11.05-.23.05-.35,0-.61-.43-1.12-1.01-1.24ZM13.06,5.42s-.04,0-.06-.01h0s-.04,0-.06,0c-.05,0-.09,0-.14,0-.32,0-.62.12-.84.32-.04.13-.06.26-.06.4,0,.61.43,1.11,1,1.23.02,0,.04,0,.06.01,0,0,0,0,0,0,.02,0,.04,0,.06,0,.04,0,.09,0,.13,0,.33,0,.64-.13.87-.34,0,0,.01-.01.02-.02.03-.11.05-.23.05-.35,0-.61-.43-1.12-1.01-1.24ZM16.75,5.43s.02,0,.03,0c-.04,0-.07-.02-.11-.02h0s-.04,0-.06,0c-.05,0-.1,0-.14,0-.32,0-.62.12-.84.32-.04.13-.06.26-.06.4,0,.02,0,.04,0,.07,0,.06,0,.11.02.17,0,.04.02.08.03.11,0,.03.02.06.03.1,0,.02.01.03.02.05.01.03.03.07.05.1,0,.01.02.03.02.04,0,0,0,0,0,0,0,0,0,.01.01.02,0,.01.02.03.03.04.04.06.09.12.14.17.01.01.03.03.04.04.01.01.02.02.04.03.02.02.04.03.06.05.02.01.04.03.06.04,0,0,.02.01.03.02,0,0,.02.01.03.02.01,0,.02.01.04.02.08.05.16.08.25.11.02,0,.04.01.05.02h0s.04,0,.05.01c.02,0,.04,0,.06.01t0,0s.04,0,.06,0c.04,0,.09,0,.13,0,.34,0,.64-.13.87-.34,0,0,.01-.01.02-.02.03-.11.05-.23.05-.35,0-.6-.42-1.1-.98-1.23ZM16.75,5.43s.02,0,.03,0c-.04,0-.07-.02-.11-.02h0s-.04,0-.06,0c-.05,0-.1,0-.14,0-.32,0-.62.12-.84.32-.04.13-.06.26-.06.4,0,.02,0,.04,0,.07,0,.06,0,.11.02.17,0,.04.02.08.03.11,0,.03.02.06.03.1,0,.02.01.03.02.05.01.03.03.07.05.1,0,.01.02.03.02.04,0,0,0,0,0,0,0,0,0,.01.01.02,0,.01.02.03.03.04.04.06.09.12.14.17.01.01.03.03.04.04.01.01.02.02.04.03.02.02.04.03.06.05.02.01.04.03.06.04,0,0,.02.01.03.02,0,0,.02.01.03.02.01,0,.02.01.04.02.08.05.16.08.25.11.02,0,.04.01.05.02h0s.04,0,.05.01c.02,0,.04,0,.06.01t0,0s.04,0,.06,0c.04,0,.09,0,.13,0,.34,0,.64-.13.87-.34,0,0,.01-.01.02-.02.03-.11.05-.23.05-.35,0-.6-.42-1.1-.98-1.23ZM13.06,5.42s-.04,0-.06-.01h0s-.04,0-.06,0c-.05,0-.09,0-.14,0-.32,0-.62.12-.84.32-.04.13-.06.26-.06.4,0,.61.43,1.11,1,1.23.02,0,.04,0,.06.01,0,0,0,0,0,0,.02,0,.04,0,.06,0,.04,0,.09,0,.13,0,.33,0,.64-.13.87-.34,0,0,.01-.01.02-.02.03-.11.05-.23.05-.35,0-.61-.43-1.12-1.01-1.24ZM9.4,5.42s-.04,0-.06-.01h0s-.04,0-.06,0c-.05,0-.09,0-.14,0-.32,0-.62.12-.84.32-.04.13-.06.26-.06.4,0,.61.43,1.11,1,1.23.02,0,.04,0,.06.01,0,0,0,0,0,0,.02,0,.04,0,.06,0,.04,0,.09,0,.13,0,.33,0,.64-.13.86-.34,0,0,.01-.01.02-.02.03-.11.05-.23.05-.35,0-.61-.43-1.12-1.01-1.24ZM9.4,5.42s-.04,0-.06-.01h0s-.04,0-.06,0c-.05,0-.09,0-.14,0-.32,0-.62.12-.84.32-.04.13-.06.26-.06.4,0,.61.43,1.11,1,1.23.02,0,.04,0,.06.01,0,0,0,0,0,0,.02,0,.04,0,.06,0,.04,0,.09,0,.13,0,.33,0,.64-.13.86-.34,0,0,.01-.01.02-.02.03-.11.05-.23.05-.35,0-.61-.43-1.12-1.01-1.24ZM13.06,5.42s-.04,0-.06-.01h0s-.04,0-.06,0c-.05,0-.09,0-.14,0-.32,0-.62.12-.84.32-.04.13-.06.26-.06.4,0,.61.43,1.11,1,1.23.02,0,.04,0,.06.01,0,0,0,0,0,0,.02,0,.04,0,.06,0,.04,0,.09,0,.13,0,.33,0,.64-.13.87-.34,0,0,.01-.01.02-.02.03-.11.05-.23.05-.35,0-.61-.43-1.12-1.01-1.24ZM16.75,5.43s.02,0,.03,0c-.04,0-.07-.02-.11-.02h0s-.04,0-.06,0c-.05,0-.1,0-.14,0-.32,0-.62.12-.84.32-.04.13-.06.26-.06.4,0,.02,0,.04,0,.07,0,.06,0,.11.02.17,0,.04.02.08.03.11,0,.03.02.06.03.1,0,.02.01.03.02.05.01.03.03.07.05.1,0,.01.02.03.02.04,0,0,0,0,0,0,0,0,0,.01.01.02,0,.01.02.03.03.04.04.06.09.12.14.17.01.01.03.03.04.04.01.01.02.02.04.03.02.02.04.03.06.05.02.01.04.03.06.04,0,0,.02.01.03.02,0,0,.02.01.03.02.01,0,.02.01.04.02.08.05.16.08.25.11.02,0,.04.01.05.02h0s.04,0,.05.01c.02,0,.04,0,.06.01t0,0s.04,0,.06,0c.04,0,.09,0,.13,0,.34,0,.64-.13.87-.34,0,0,.01-.01.02-.02.03-.11.05-.23.05-.35,0-.6-.42-1.1-.98-1.23ZM16.75,5.43s.02,0,.03,0c-.04,0-.07-.02-.11-.02h0s-.04,0-.06,0c-.05,0-.1,0-.14,0-.32,0-.62.12-.84.32-.04.13-.06.26-.06.4,0,.02,0,.04,0,.07,0,.06,0,.11.02.17,0,.04.02.08.03.11,0,.03.02.06.03.1,0,.02.01.03.02.05.01.03.03.07.05.1,0,.01.02.03.02.04,0,0,0,0,0,0,0,0,0,.01.01.02,0,.01.02.03.03.04.04.06.09.12.14.17.01.01.03.03.04.04.01.01.02.02.04.03.02.02.04.03.06.05.02.01.04.03.06.04,0,0,.02.01.03.02,0,0,.02.01.03.02.01,0,.02.01.04.02.08.05.16.08.25.11.02,0,.04.01.05.02h0s.04,0,.05.01c.02,0,.04,0,.06.01t0,0s.04,0,.06,0c.04,0,.09,0,.13,0,.34,0,.64-.13.87-.34,0,0,.01-.01.02-.02.03-.11.05-.23.05-.35,0-.6-.42-1.1-.98-1.23ZM13.06,5.42s-.04,0-.06-.01h0s-.04,0-.06,0c-.05,0-.09,0-.14,0-.32,0-.62.12-.84.32-.04.13-.06.26-.06.4,0,.61.43,1.11,1,1.23.02,0,.04,0,.06.01,0,0,0,0,0,0,.02,0,.04,0,.06,0,.04,0,.09,0,.13,0,.33,0,.64-.13.87-.34,0,0,.01-.01.02-.02.03-.11.05-.23.05-.35,0-.61-.43-1.12-1.01-1.24ZM9.4,5.42s-.04,0-.06-.01h0s-.04,0-.06,0c-.05,0-.09,0-.14,0-.32,0-.62.12-.84.32-.04.13-.06.26-.06.4,0,.61.43,1.11,1,1.23.02,0,.04,0,.06.01,0,0,0,0,0,0,.02,0,.04,0,.06,0,.04,0,.09,0,.13,0,.33,0,.64-.13.86-.34,0,0,.01-.01.02-.02.03-.11.05-.23.05-.35,0-.61-.43-1.12-1.01-1.24ZM9.4,5.42s-.04,0-.06-.01h0s-.04,0-.06,0c-.05,0-.09,0-.14,0-.32,0-.62.12-.84.32-.04.13-.06.26-.06.4,0,.61.43,1.11,1,1.23.02,0,.04,0,.06.01,0,0,0,0,0,0,.02,0,.04,0,.06,0,.04,0,.09,0,.13,0,.33,0,.64-.13.86-.34,0,0,.01-.01.02-.02.03-.11.05-.23.05-.35,0-.61-.43-1.12-1.01-1.24ZM13.06,5.42s-.04,0-.06-.01h0s-.04,0-.06,0c-.05,0-.09,0-.14,0-.32,0-.62.12-.84.32-.04.13-.06.26-.06.4,0,.61.43,1.11,1,1.23.02,0,.04,0,.06.01,0,0,0,0,0,0,.02,0,.04,0,.06,0,.04,0,.09,0,.13,0,.33,0,.64-.13.87-.34,0,0,.01-.01.02-.02.03-.11.05-.23.05-.35,0-.61-.43-1.12-1.01-1.24ZM16.75,5.43s.02,0,.03,0c-.04,0-.07-.02-.11-.02h0s-.04,0-.06,0c-.05,0-.1,0-.14,0-.32,0-.62.12-.84.32-.04.13-.06.26-.06.4,0,.02,0,.04,0,.07,0,.06,0,.11.02.17,0,.04.02.08.03.11,0,.03.02.06.03.1,0,.02.01.03.02.05.01.03.03.07.05.1,0,.01.02.03.02.04,0,0,0,0,0,0,0,0,0,.01.01.02,0,.01.02.03.03.04.04.06.09.12.14.17.01.01.03.03.04.04.01.01.02.02.04.03.02.02.04.03.06.05.02.01.04.03.06.04,0,0,.02.01.03.02,0,0,.02.01.03.02.01,0,.02.01.04.02.08.05.16.08.25.11.02,0,.04.01.05.02h0s.04,0,.05.01c.02,0,.04,0,.06.01t0,0s.04,0,.06,0c.04,0,.09,0,.13,0,.34,0,.64-.13.87-.34,0,0,.01-.01.02-.02.03-.11.05-.23.05-.35,0-.6-.42-1.1-.98-1.23ZM16.75,5.43s.02,0,.03,0c-.04,0-.07-.02-.11-.02h0s-.04,0-.06,0c-.05,0-.1,0-.14,0-.32,0-.62.12-.84.32-.04.13-.06.26-.06.4,0,.02,0,.04,0,.07,0,.06,0,.11.02.17,0,.04.02.08.03.11,0,.03.02.06.03.1,0,.02.01.03.02.05.01.03.03.07.05.1,0,.01.02.03.02.04,0,0,0,0,0,0,0,0,0,.01.01.02,0,.01.02.03.03.04.04.06.09.12.14.17.01.01.03.03.04.04.01.01.02.02.04.03.02.02.04.03.06.05.02.01.04.03.06.04,0,0,.02.01.03.02,0,0,.02.01.03.02.01,0,.02.01.04.02.08.05.16.08.25.11.02,0,.04.01.05.02h0s.04,0,.05.01c.02,0,.04,0,.06.01t0,0s.04,0,.06,0c.04,0,.09,0,.13,0,.34,0,.64-.13.87-.34,0,0,.01-.01.02-.02.03-.11.05-.23.05-.35,0-.6-.42-1.1-.98-1.23ZM13.06,5.42s-.04,0-.06-.01h0s-.04,0-.06,0c-.05,0-.09,0-.14,0-.32,0-.62.12-.84.32-.04.13-.06.26-.06.4,0,.61.43,1.11,1,1.23.02,0,.04,0,.06.01,0,0,0,0,0,0,.02,0,.04,0,.06,0,.04,0,.09,0,.13,0,.33,0,.64-.13.87-.34,0,0,.01-.01.02-.02.03-.11.05-.23.05-.35,0-.61-.43-1.12-1.01-1.24ZM9.4,5.42s-.04,0-.06-.01h0s-.04,0-.06,0c-.05,0-.09,0-.14,0-.32,0-.62.12-.84.32-.04.13-.06.26-.06.4,0,.61.43,1.11,1,1.23.02,0,.04,0,.06.01,0,0,0,0,0,0,.02,0,.04,0,.06,0,.04,0,.09,0,.13,0,.33,0,.64-.13.86-.34,0,0,.01-.01.02-.02.03-.11.05-.23.05-.35,0-.61-.43-1.12-1.01-1.24Z"/>
    <path class="cls-1" d="M40.91,11.56H7.67c-.79,0-1.43.64-1.43,1.43v17.38c0,.79.64,1.43,1.43,1.43h33.24c.79,0,1.43-.64,1.43-1.43V12.99c0-.79-.64-1.43-1.43-1.43ZM23.76,16.44c0,.29-.24.53-.53.53h-11.2c-.17,0-.33-.08-.43-.21t0,0c-.07-.09-.1-.2-.1-.32v-.77s0-.04,0-.06c.03-.27.26-.47.53-.47h11.2c.29,0,.53.24.53.53v.77ZM38.87,16.44c0,.29-.24.53-.53.53h-11.2c-.17,0-.33-.08-.42-.21h0c-.07-.09-.11-.2-.11-.32v-.77s0-.04,0-.07c.03-.26.26-.47.53-.47h11.2c.29,0,.53.24.53.53v.77Z"/>
    <path class="cls-2" d="M10.41,6.66c0,.12-.02.24-.05.35,0,0-.01.01-.02.02-.23.21-.53.34-.86.34-.04,0-.09,0-.13,0-.02,0-.04,0-.06,0,0,0,0,0,0,0-.02,0-.04,0-.06-.01-.57-.12-1-.63-1-1.23,0-.14.02-.27.06-.4.22-.2.52-.32.84-.32.05,0,.1,0,.14,0,.02,0,.04,0,.06,0h0s.04,0,.06.01c.58.11,1.01.62,1.01,1.24Z"/>
    <path class="cls-2" d="M14.08,6.66c0,.12-.02.24-.05.35,0,0-.01.01-.02.02-.23.21-.53.34-.87.34-.04,0-.09,0-.13,0-.02,0-.04,0-.06,0,0,0,0,0,0,0-.02,0-.04,0-.06-.01-.57-.12-1-.63-1-1.23,0-.14.02-.27.06-.4.22-.2.52-.32.84-.32.05,0,.1,0,.14,0,.02,0,.04,0,.06,0h0s.04,0,.06.01c.58.11,1.01.62,1.01,1.24Z"/>
    <path class="cls-2" d="M17.74,6.66c0,.12-.02.24-.05.35,0,0-.01.01-.02.02-.23.21-.53.34-.87.34-.04,0-.09,0-.13,0-.02,0-.04,0-.06,0t0,0s-.04,0-.06-.01c-.02,0-.04,0-.05-.01h0s-.04-.01-.05-.02c-.09-.03-.17-.06-.25-.11-.01,0-.02-.01-.04-.02,0,0-.02-.01-.03-.02-.01,0-.02-.01-.03-.02-.02-.01-.04-.03-.06-.04-.02-.01-.04-.03-.06-.05-.01-.01-.02-.02-.04-.03-.01-.01-.03-.03-.04-.04-.05-.05-.1-.11-.14-.17-.01-.01-.02-.03-.03-.04,0,0,0-.01-.01-.02,0,0,0,0,0,0,0-.01-.02-.03-.02-.04-.02-.03-.03-.06-.05-.1,0-.02-.01-.03-.02-.05-.01-.03-.02-.06-.03-.1-.01-.04-.02-.08-.03-.11-.01-.05-.02-.11-.02-.17,0-.02,0-.04,0-.07,0-.14.02-.27.06-.4.22-.2.52-.32.84-.32.05,0,.1,0,.14,0,.02,0,.04,0,.06,0h0s.07.01.11.02c0,0-.02,0-.03,0,.56.12.98.63.98,1.23Z"/>
    <path class="cls-3" d="M16.04,20.57h6.11c.89,0,1.61.72,1.61,1.61v4.33c0,.89-.72,1.61-1.61,1.61h-6.11c-.89,0-1.61-.72-1.61-1.61v-4.33c0-.89.72-1.61,1.61-1.61Z"/>
    <path class="cls-3" d="M31.14,20.57h6.11c.89,0,1.61.72,1.61,1.61v4.33c0,.89-.72,1.61-1.61,1.61h-6.11c-.89,0-1.61-.72-1.61-1.61v-4.33c0-.89.72-1.61,1.61-1.61Z"/>
    <path class="cls-1" d="M18.06,6.12c0,.35-.14.67-.37.89,0,0-.01.01-.02.02-.23.21-.53.34-.87.34-.04,0-.09,0-.13,0-.02,0-.04,0-.06,0t0,0s-.04,0-.06-.01c-.02,0-.04,0-.05-.01h0s-.04-.01-.05-.02c-.09-.03-.17-.06-.25-.11-.01,0-.02-.01-.04-.02,0,0-.02-.01-.03-.02-.01,0-.02-.01-.03-.02-.02-.01-.04-.03-.06-.04-.02-.01-.04-.03-.06-.05-.01-.01-.02-.02-.04-.03-.01-.01-.03-.03-.04-.04-.05-.05-.1-.11-.14-.17-.01-.01-.02-.03-.03-.04,0,0,0-.01-.01-.02,0,0,0,0,0,0,0-.01-.02-.03-.02-.04-.02-.03-.03-.06-.05-.1,0-.02-.01-.03-.02-.05-.01-.03-.02-.06-.03-.1-.01-.04-.02-.08-.03-.11-.01-.05-.02-.11-.02-.17,0-.02,0-.04,0-.07,0-.14.02-.27.06-.4.17-.5.64-.86,1.19-.86.04,0,.09,0,.13,0,.02,0,.04,0,.06,0h0s.07.01.11.02c.02,0,.03,0,.05.01.04.01.07.02.11.04.03.01.07.03.1.05.02.01.04.02.06.03.02,0,.03.02.05.03.01,0,.03.02.04.02.02.01.04.03.05.04,0,0,0,0,.01.01.02.01.03.03.05.04,0,0,.02.02.03.02.03.02.05.05.07.07.01.01.03.03.04.05,0,0,0,0,0,0,.02.02.03.04.05.06.02.03.04.05.05.08,0,.01.02.03.02.04.03.05.06.11.08.17,0,.02.01.03.02.05.03.1.05.21.06.32,0,.02,0,.05,0,.07Z"/>
    <path class="cls-1" d="M10.74,6.12c0,.35-.14.67-.37.89,0,0-.01.01-.02.02-.23.21-.53.34-.86.34-.04,0-.09,0-.13,0-.02,0-.04,0-.06,0,0,0,0,0,0,0-.02,0-.04,0-.06-.01-.57-.12-1-.63-1-1.23,0-.14.02-.27.06-.4.17-.5.64-.86,1.2-.86.04,0,.09,0,.13,0,.02,0,.04,0,.06,0h0s.04,0,.06.01c.57.12,1,.63,1,1.23Z"/>
    <path class="cls-1" d="M14.4,6.12c0,.35-.14.67-.37.89,0,0-.01.01-.02.02-.23.21-.53.34-.87.34-.04,0-.09,0-.13,0-.02,0-.04,0-.06,0,0,0,0,0,0,0-.02,0-.04,0-.06-.01-.57-.12-1-.63-1-1.23,0-.14.02-.27.06-.4.17-.5.64-.86,1.2-.86.04,0,.09,0,.13,0,.02,0,.04,0,.06,0h0s.04,0,.06.01c.57.12,1,.63,1,1.23Z"/>
  </g>
</svg>