<?xml version="1.0" encoding="UTF-8"?>
<svg xmlns="http://www.w3.org/2000/svg" xmlns:xlink="http://www.w3.org/1999/xlink" viewBox="0 0 1200 1200">
  <defs>
    <style>
      .cls-1 {
        fill: none;
        stroke: #fff;
        stroke-miterlimit: 10;
        stroke-width: 13px;
      }

      .cls-2 {
        fill: url(#linear-gradient);
      }

      .cls-3 {
        fill: #fff;
      }
    </style>
    <linearGradient id="linear-gradient" x1="702.83" y1="180.85" x2="1338.59" y2="-374.2" gradientUnits="userSpaceOnUse">
      <stop offset="0" stop-color="#121c99"/>
      <stop offset=".96" stop-color="#76eedf"/>
    </linearGradient>
  </defs>
  <g id="Layer_3" data-name="Layer 3">
    <rect class="cls-3" x="-975.45" y="-101.77" width="5632.64" height="1217.72"/>
  </g>
  <g id="Layer_1" data-name="Layer 1">
    <rect class="cls-3" x="773.68" y="-264.61" width="520.76" height="286.3"/>
    <path class="cls-2" d="M1390.96-358.17V143.2c0,40.74-36.43,73.77-81.36,73.77h-363.41l-106.07,95.94c-10.76,9.75-29.15,2.84-29.15-10.95v-84.98h-54.38c-44.94,0-81.37-33.03-81.37-73.77v-501.38c0-40.74,36.43-73.77,81.37-73.77h553.01c44.93,0,81.36,33.03,81.36,73.77Z"/>
    <rect class="cls-3" x="993.59" y="-66.02" width="81.45" height="338.12" rx="40.72" ry="40.72" transform="translate(1137.35 -931.27) rotate(90)"/>
    <rect class="cls-1" x="773.93" y="-264.61" width="520.76" height="286.3"/>
  </g>
</svg>